<svg width="776" height="670" viewBox="0 0 776 670" fill="none" xmlns="http://www.w3.org/2000/svg">
<path d="M300.619 117.335L416.67 16.2727" stroke="#002DCA" stroke-dasharray="2 2"/>
<path d="M249.231 57.8112L414.956 15.8446L383 503.5L249.231 57.8112Z" stroke="#002DCA" stroke-dasharray="2 2"/>
<circle cx="255.654" cy="198.271" r="197.271" stroke="#E3570D" stroke-width="2"/>
<circle cx="332.736" cy="386.693" r="197.271" stroke="#E3570D" stroke-width="2"/>
<path d="M491.511 399.759L488.144 403.125H465.372L462.006 399.759V376.983L465.372 373.617H488.144L491.511 376.983M491.511 399.759V376.983M491.511 399.759L494.877 403.125H517.649L521.016 399.759M491.511 376.983L494.877 373.617H517.649L521.016 376.983M521.016 399.759V376.983M521.016 399.759L524.382 403.125H547.159L550.525 399.759V376.983L547.159 373.617H524.382L521.016 376.983M521.016 406.487L524.382 403.121H547.159L550.525 406.487V429.263L547.159 432.63H524.382L521.016 429.263M521.016 406.487V429.263M521.016 406.487L517.649 403.121H494.877L491.511 406.487V429.263L494.877 432.63H517.649L521.016 429.263M462.01 311.251L458.644 314.617H435.872L432.505 311.251V288.475L435.872 285.108H458.644L462.01 288.475M462.01 311.251V288.475M462.01 311.251L465.377 314.617H488.149L491.515 311.251M462.01 288.475L465.377 285.108H488.149L491.515 288.475M491.515 311.251V288.475M491.515 311.251L494.882 314.617H517.654L521.02 311.251M491.515 288.475L494.882 285.108H517.654L521.02 288.475M521.02 311.251V288.475M521.02 311.251L524.387 314.617H547.163L550.53 311.251V288.475L547.163 285.108H524.387L521.02 288.475M521.02 258.971L524.387 255.604H547.163L550.53 258.971V281.746L547.163 285.113H524.387L521.02 281.746M521.02 258.971V281.746M521.02 258.971L517.654 255.604H494.882L491.515 258.971M521.02 281.746L517.654 285.113H494.882L491.515 281.746M491.515 258.971V281.746M491.515 258.971L488.149 255.604H465.377L462.01 258.971M491.515 281.746L488.149 285.113H465.377L462.01 281.746M462.01 258.971V281.746M462.01 258.971L458.644 255.604H435.872L432.505 258.971V281.746L435.872 285.113H458.644L462.01 281.746M435.872 344.117L432.505 340.75V317.975L435.872 314.613H458.644L462.01 317.975M435.872 344.117H458.644M435.872 344.117L432.505 347.484V370.259L435.872 373.626H458.644L462.01 370.259M458.644 344.117L462.01 340.75M458.644 344.117L462.01 347.484M462.01 340.75V317.975M462.01 340.75L465.377 344.117M462.01 317.975L465.377 314.613H488.149L491.515 317.975M465.377 344.117H488.149M465.377 344.117L462.01 347.484M488.149 344.117L491.515 340.75M488.149 344.117L491.515 347.484M491.515 340.75V317.975M491.515 340.75L494.882 344.117M491.515 317.975L494.882 314.613H517.654L521.02 317.975M494.882 344.117H517.654M494.882 344.117L491.515 347.484M517.654 344.117L521.02 340.75M517.654 344.117L521.02 347.484M521.02 340.75V317.975M521.02 340.75L524.387 344.117M521.02 317.975L524.387 314.613H547.163L550.53 317.975V340.75L547.163 344.117M524.387 344.117H547.163M524.387 344.117L521.02 347.484M547.163 344.117L550.53 347.484V370.259L547.163 373.626H524.387L521.02 370.259M553.892 344.117L550.525 340.75V317.975L553.892 314.613H576.668L580.03 317.975V340.75L576.668 344.117M553.892 344.117H576.668M553.892 344.117L550.525 347.484V370.259L553.892 373.626H576.668L580.03 370.259V347.484L576.668 344.117M521.02 347.484V370.259M521.02 370.259L517.654 373.626H494.882L491.515 370.259M491.515 347.484V370.259M491.515 370.259L488.149 373.626H465.377L462.01 370.259M462.01 347.484V370.259M491.511 134.23L488.144 137.596H465.372L462.006 134.23V111.454L465.372 108.087H488.144L491.511 111.454M491.511 134.23V111.454M491.511 134.23L494.877 137.596H517.649L521.016 134.23M491.511 111.454L494.877 108.087H517.649L521.016 111.454M521.016 134.23V111.454M521.016 134.23L524.382 137.596H547.159L550.525 134.23V111.454L547.159 108.087M521.016 111.454L524.382 108.087M524.382 108.087H547.159M524.382 108.087L521.016 104.721V81.9451L524.382 78.5831V78.5878H547.159L550.525 81.9498V104.721L547.159 108.087M553.887 108.087L550.521 111.454V134.23L553.887 137.596H576.664L580.026 134.23V111.454L576.664 108.087M553.887 108.087H576.664M553.887 108.087L550.521 104.721V81.9451L553.887 78.5831V78.5878M576.664 108.087L580.026 104.721V81.9498L576.664 78.5878M576.664 78.5878H553.887M576.664 78.5878L580.026 75.2211M553.887 78.5878L550.521 75.2211V63.8707M462.006 193.238L458.639 196.605H435.868L432.501 193.238V170.463L435.868 167.096H458.639L462.006 170.463M462.006 193.238V170.463M462.006 193.238L465.372 196.605H488.144L491.511 193.238M462.006 170.463L465.372 167.096H488.144L491.511 170.463M491.511 193.238V170.463M491.511 193.238L494.877 196.605H517.649L521.016 193.238M491.511 170.463L494.877 167.096H517.649L521.016 170.463M521.016 193.238V170.463M521.016 193.238L524.382 196.605H547.159L550.525 193.238V170.463L547.159 167.096H524.382L521.016 170.463M521.016 140.958L524.382 137.592H547.159L550.525 140.958V163.734L547.159 167.101H524.382L521.016 163.734M521.016 140.958V163.734M521.016 140.958L517.649 137.592H494.877L491.511 140.958M521.016 163.734L517.649 167.101H494.877L491.511 163.734M491.511 140.958V163.734M491.511 140.958L488.144 137.592H465.372L462.006 140.958M491.511 163.734L488.144 167.101H465.372L462.006 163.734M462.006 140.958V163.734M462.006 140.958L458.639 137.592H435.868L432.501 140.958V163.734L435.868 167.101H458.639L462.006 163.734M406.363 226.1L402.996 222.733V199.962L406.363 196.596H406.367H429.139L432.505 199.962V222.733L429.139 226.1M406.363 226.1H429.139M406.363 226.1L402.996 229.466V252.237L406.363 255.604H429.139L432.505 252.237V229.466L429.139 226.1M406.363 226.1H406.367H429.139M435.868 226.1L432.501 222.733V199.962L435.868 196.596H458.639L462.006 199.962M435.868 226.1H458.639M435.868 226.1L432.501 229.466V252.237L435.868 255.604H458.639L462.006 252.237M458.639 226.1L462.006 222.733M458.639 226.1L462.006 229.466M462.006 222.733V199.962M462.006 222.733L465.372 226.1M462.006 199.962L465.372 196.596H488.144L491.511 199.962M465.372 226.1H488.144M465.372 226.1L462.006 229.466M488.144 226.1L491.511 222.733M488.144 226.1L491.511 229.466M491.511 222.733V199.962M491.511 222.733L494.877 226.1M491.511 199.962L494.877 196.596H517.649L521.016 199.962M494.877 226.1H517.649M494.877 226.1L491.511 229.466M517.649 226.1L521.016 222.733M517.649 226.1L521.016 229.466M521.016 222.733V199.962M521.016 222.733L524.382 226.1M521.016 199.962L524.382 196.596H547.159L550.525 199.962V222.733L547.159 226.1M524.382 226.1H547.159M524.382 226.1L521.016 229.466M547.159 226.1L550.525 229.466V252.237L547.159 255.604H524.382L521.016 252.237M553.887 226.1L550.521 222.733V199.962L553.887 196.596H576.664L580.026 199.962V222.733L576.664 226.1M553.887 226.1H576.664M553.887 226.1L550.521 229.466V252.237L553.887 255.604H576.664L580.026 252.237V229.466L576.664 226.1M521.016 229.466V252.237M521.016 252.237L517.649 255.604H494.877L491.511 252.237M491.511 229.466V252.237M491.511 252.237L488.144 255.604H465.372L462.006 252.237M462.006 229.466V252.237M583.383 226.1L580.016 229.466V252.237L583.383 255.604H606.159L609.526 252.237V229.466L606.159 226.1M583.383 226.1H606.159M583.383 226.1L580.016 222.733V199.962L583.383 196.596H606.159L609.526 199.962V222.733L606.159 226.1M612.888 226.1L609.521 229.466V252.237L612.888 255.604H635.659L639.026 252.237M612.888 226.1H635.659M612.888 226.1L609.521 222.733V199.962L612.888 196.596H635.659L639.026 199.962M639.026 252.237V229.466M639.026 252.237L642.393 255.604H665.169L668.536 252.237V229.466L665.169 226.1M639.026 229.466L635.659 226.1M639.026 229.466L642.393 226.1M635.659 226.1L639.026 222.733M642.393 226.1H665.169M642.393 226.1L639.026 222.733M665.169 226.1L668.536 222.733V199.962L665.169 196.596H642.393L639.026 199.962M671.898 226.1L668.531 229.466V252.237L671.898 255.604H694.674L698.041 252.237V229.466L694.674 226.1M671.898 226.1H694.674M671.898 226.1L668.531 222.733V199.962L671.898 196.596H694.674L698.041 199.962V222.733L694.674 226.1M701.403 226.1L698.036 229.466V252.237L701.403 255.604H724.174L727.541 252.237M701.403 226.1H724.174M701.403 226.1L698.036 222.733V199.962L701.403 196.596H724.174L727.541 199.962M727.541 252.237V229.466M727.541 252.237L730.908 255.604H753.684L757.051 252.237V229.466L753.684 226.1M727.541 229.466L724.174 226.1M727.541 229.466L730.908 226.1M724.174 226.1L727.541 222.733M730.908 226.1H753.684M730.908 226.1L727.541 222.733M753.684 226.1L757.051 222.733V199.962L753.684 196.596H730.908L727.541 199.962M727.541 199.962V222.733M639.026 199.962V222.733M639.026 163.734L635.659 167.101H612.888L609.521 163.734V140.958L612.888 137.592H635.659L639.026 140.958M639.026 163.734V140.958M639.026 163.734L642.393 167.101H665.169L668.536 163.734V140.958L665.169 137.592H642.393L639.026 140.958M639.026 170.463L642.393 167.096H665.169L668.536 170.463V193.238L665.169 196.605H642.393L639.026 193.238M639.026 170.463V193.238M639.026 170.463L635.659 167.096H612.888L609.521 170.463V193.238L612.888 196.605H635.659L639.026 193.238M639.022 111.459L642.388 108.092H665.164L668.531 111.459V134.234L665.164 137.601H642.388L639.022 134.234M639.022 111.459V134.234M639.022 111.459L635.655 108.092H612.883L609.517 111.459V134.234L612.883 137.601H635.655L639.022 134.234M583.378 344.117L580.012 347.484V370.259L583.378 373.626H606.155L609.521 370.259V347.484L606.155 344.117M583.378 344.117H606.155M583.378 344.117L580.012 340.75V317.975L583.378 314.613H606.155L609.521 317.975V340.75L606.155 344.117M612.883 344.117L609.517 347.484V370.259L612.883 373.626H635.655L639.022 370.259M612.883 344.117H635.655M612.883 344.117L609.517 340.75V317.975L612.883 314.613H635.655L639.022 317.975M639.022 370.259V347.484M639.022 370.259L642.388 373.626H665.164L668.531 370.259V347.484L665.164 344.117M639.022 347.484L635.655 344.117M639.022 347.484L642.388 344.117M635.655 344.117L639.022 340.75M642.388 344.117H665.164M642.388 344.117L639.022 340.75M665.164 344.117L668.531 340.75V317.975L665.164 314.613H642.388L639.022 317.975M671.893 344.117L668.527 347.484V370.259L671.893 373.626H694.669L698.036 370.259V347.484L694.669 344.117M671.893 344.117H694.669M671.893 344.117L668.527 340.75V317.975L671.893 314.613H694.669L698.036 317.975V340.75L694.669 344.117M701.398 344.117L698.032 347.484V370.259L701.398 373.626H724.17L727.537 370.259V347.484L724.17 344.117M701.398 344.117H724.17M701.398 344.117L698.032 340.75V317.975L701.398 314.613H724.17L727.537 317.975V340.75L724.17 344.117M639.022 317.975V340.75M639.022 281.746L635.655 285.113H612.883L609.517 281.746V258.971L612.883 255.604H635.655L639.022 258.971M639.022 281.746V258.971M639.022 281.746L642.388 285.113H665.164L668.531 281.746V258.971L665.164 255.604H642.388L639.022 258.971M727.537 281.746L724.17 285.113H701.398L698.032 281.746V258.971L701.398 255.604H724.17L727.537 258.971M727.537 281.746V258.971M727.537 281.746L730.903 285.113H753.679L757.046 281.746V258.971L753.679 255.604H730.903L727.537 258.971M727.537 288.475L730.903 285.108H753.679L757.046 288.475V311.251L753.679 314.617H730.903L727.537 311.251M727.537 288.475V311.251M727.537 288.475L724.17 285.108H701.398L698.032 288.475V311.251L701.398 314.617H724.17L727.537 311.251M639.022 288.475L642.388 285.108H665.164L668.531 288.475V311.251L665.164 314.617H642.388L639.022 311.251M639.022 288.475V311.251M639.022 288.475L635.655 285.108H612.883L609.517 288.475V311.251L612.883 314.617H635.655L639.022 311.251M639.022 429.263L635.655 432.63H612.883L609.517 429.263V406.487L612.883 403.121H635.655L639.022 406.487M639.022 429.263V406.487M639.022 429.263L642.388 432.63H665.164L668.531 429.263V406.487L665.164 403.121H642.388L639.022 406.487M639.022 376.983L642.388 373.617H665.164L668.531 376.983V399.759L665.164 403.125H642.388L639.022 399.759M639.022 376.983V399.759M639.022 376.983L635.655 373.617H612.883L609.517 376.983V399.759L612.883 403.125H635.655L639.022 399.759M393.27 314.608H399.634L403 311.241V288.466L399.634 285.099H386.597H399.638L403.005 281.732V258.957L399.638 255.59H384.551M386.991 226.086H399.634L403 222.719V199.948L399.634 196.581H394.089M384.551 255.604H399.638L403.005 252.237V229.466L399.638 226.1H386.991M580.021 452.132V435.987L576.659 432.62H553.883L550.516 435.987M550.516 435.987V449.927M550.516 435.987L547.149 432.62H524.373L521.006 435.987V443.081M609.517 449.857V435.987L606.15 432.62H583.374L580.007 435.987V452.132M639.012 442.927V435.987L635.645 432.62H612.874L609.507 435.987V449.857M772.56 226.104H760.39L757.023 229.471V252.242L760.39 255.609H774.999M765.456 196.605H760.385L757.018 199.972V222.742L760.385 226.109H772.555M774.995 255.613H760.385L757.018 258.98V281.756L760.385 285.122M760.385 285.122H772.953M760.385 285.122L757.018 288.489V311.265L760.385 314.631H766.276M580.026 75.2211V61.6653M580.026 75.2211L583.392 78.5878H606.169L609.535 75.2211M609.535 75.2211V63.9456M609.535 75.2211L612.902 78.5878H635.674L639.04 75.2211V70.871M521.025 70.7212V75.2211L524.392 78.5878H547.168L550.535 75.2211V63.8707M639.045 70.871V75.2211L642.412 78.5878M642.412 78.5878H659.307M642.412 78.5878L639.045 81.9498V104.725L642.412 108.092H665.188L668.555 104.725M668.555 104.725V83.0033M668.555 104.725L671.921 108.092H694.698L698.064 104.725V101.551M706.193 108.092H701.426L698.06 111.459V134.234L701.426 137.601H724.198L727.565 134.234M727.565 134.234V129.29M727.565 134.234L730.931 137.601H734.354M698.06 101.555V104.73L701.426 108.097H706.193M757.07 175.07V193.238L760.436 196.605H765.508M734.359 137.601H730.936L727.569 140.968V163.743L730.936 167.11M730.936 167.11H753.174M730.936 167.11L727.569 170.477V193.252L730.936 196.619H753.712L757.079 193.252V175.084M766.336 314.631H760.446L757.079 317.993M757.079 317.993V338.755M757.079 317.993L753.712 314.631H730.936L727.569 317.993V340.769L730.936 344.136M730.936 344.136H753.712M730.936 344.136L727.569 347.502V370.278L730.936 373.645M753.712 344.136L755.257 342.59M753.712 344.136L754.232 344.655M730.936 373.645H736.326M730.936 373.645L727.569 377.011M727.569 377.011V384.545M727.569 377.011L724.203 373.645H701.431L698.064 377.011V399.787L701.431 403.154M701.431 403.154H709.185M701.431 403.154L698.064 406.52V412.284M665.197 432.658H642.421L639.054 436.025V442.964M698.06 412.284V406.52L694.693 403.154H671.917L668.55 406.52V429.296L669.566 430.312M450.43 403.158H458.658L462.024 399.792V377.016L458.658 373.649H435.886L432.519 377.016V385.098M521.03 443.114V436.02L517.663 432.653H494.892L494.835 432.709M462.024 412.64V406.516L458.658 403.149H450.43M490.349 430.466L491.529 429.286V406.511L488.163 403.144H465.391L462.024 406.511V412.636M432.519 385.089V377.007L429.153 373.64M429.153 373.64H423.29M429.153 373.64L432.519 370.273V347.498L429.153 344.131H406.367L405.529 344.969M403.899 341.668L406.363 344.136H429.139L432.505 340.769V317.993L429.139 314.631H406.367L403 317.993M403 317.993V339.776M403 317.993L399.634 314.631H393.27M500.281 78.5878H517.649L521.016 75.2211V70.7212M462.01 101.19V104.725L465.377 108.092H488.149L491.515 104.725M491.515 104.725V82.7598M491.515 104.725L494.882 108.092H517.654L521.02 104.725V81.9498L517.654 78.5878H500.286M432.505 128.737V134.23L435.872 137.596H458.644L462.01 134.23V111.454L458.644 108.087M458.644 108.087H453.404M458.644 108.087L462.01 104.721V101.185M425.247 137.587H429.143L432.51 134.22V128.728M403.005 174.035V193.224L406.372 196.591H429.148L432.515 193.224V170.449L429.148 167.082H406.367H429.143L432.51 163.715V140.94L429.143 137.573H425.247M394.094 196.596H399.638L403.005 193.229V174.04M553.887 373.617L550.521 376.983V399.759L553.887 403.125H576.664L580.026 399.759V376.983L576.664 373.617H553.887ZM553.887 403.121L550.521 406.487V429.263L553.887 432.63H576.664L580.026 429.263V406.487L576.664 403.121H553.887ZM406.367 285.108L403 288.475V311.251L406.367 314.617H429.143L432.51 311.251V288.475L429.143 285.108H406.367ZM553.892 285.108L550.525 288.475V311.251L553.892 314.617H576.668L580.03 311.251V288.475L576.668 285.108H553.892ZM553.892 255.604L550.525 258.971V281.746L553.892 285.113H576.668L580.03 281.746V258.971L576.668 255.604H553.892ZM406.367 255.604L403 258.971V281.746L406.367 285.113H429.143L432.51 281.746V258.971L429.143 255.604H406.367ZM553.887 167.096L550.521 170.463V193.238L553.887 196.605H576.664L580.026 193.238V170.463L576.664 167.096H553.887ZM553.887 137.592L550.521 140.958V163.734L553.887 167.101H576.664L580.026 163.734V140.958L576.664 137.592H553.887ZM583.383 137.592L580.016 140.958V163.734L583.383 167.101H606.159L609.526 163.734V140.958L606.159 137.592H583.383ZM671.898 137.592L668.531 140.958V163.734L671.898 167.101H694.674L698.041 163.734V140.958L694.674 137.592H671.898ZM701.403 137.592L698.036 140.958V163.734L701.403 167.101H724.174L727.541 163.734V140.958L724.174 137.592H701.403ZM701.403 167.096L698.036 170.463V193.238L701.403 196.605H724.174L727.541 193.238V170.463L724.174 167.096H701.403ZM671.898 167.096L668.531 170.463V193.238L671.898 196.605H694.674L698.041 193.238V170.463L694.674 167.096H671.898ZM583.383 167.096L580.016 170.463V193.238L583.383 196.605H606.159L609.526 193.238V170.463L606.159 167.096H583.383ZM583.383 78.5878L580.016 81.9498V104.725L583.383 108.092H606.159L609.526 104.725V81.9498L606.159 78.5878H583.383ZM612.888 78.5878L609.521 81.9498V104.725L612.888 108.092H635.659L639.026 104.725V81.9498L635.659 78.5878H612.888ZM671.893 108.092L668.527 111.459V134.234L671.893 137.601H694.669L698.036 134.234V111.459L694.669 108.092H671.893ZM583.378 108.092L580.012 111.459V134.234L583.378 137.601H606.155L609.521 134.234V111.459L606.155 108.092H583.378ZM583.378 255.604L580.012 258.971V281.746L583.378 285.113H606.155L609.521 281.746V258.971L606.155 255.604H583.378ZM671.893 255.604L668.527 258.971V281.746L671.893 285.113H694.669L698.036 281.746V258.971L694.669 255.604H671.893ZM671.893 285.108L668.527 288.475V311.251L671.893 314.617H694.669L698.036 311.251V288.475L694.669 285.108H671.893ZM583.378 285.108L580.012 288.475V311.251L583.378 314.617H606.155L609.521 311.251V288.475L606.155 285.108H583.378ZM583.378 403.121L580.012 406.487V429.263L583.378 432.63H606.155L609.521 429.263V406.487L606.155 403.121H583.378ZM671.893 373.617L668.527 376.983V399.759L671.893 403.125H694.669L698.036 399.759V376.983L694.669 373.617H671.893ZM583.378 373.617L580.012 376.983V399.759L583.378 403.125H606.155L609.521 399.759V376.983L606.155 373.617H583.378Z" stroke="#E3570D" stroke-linecap="round" stroke-linejoin="round"/>
<path d="M247.947 55.6701L302.332 116.479M302.332 116.479L95.4963 11.9905L110.913 169.151L384.5 504L538.716 597.811L180.714 582.823L360.143 659.905L302.332 116.479Z" stroke="#002DCA" stroke-dasharray="2 2"/>
<rect x="1" y="454.069" width="194.13" height="31.402" fill="white" stroke="#F46C00" stroke-width="2"/>
<rect x="1" y="84.9333" width="151.307" height="31.402" fill="white" stroke="#F46C00" stroke-width="2"/>
<path d="M32.5976 467.237C32.2376 465.317 30.8456 462.989 27.3416 462.989C23.1896 462.989 21.2696 466.517 21.2696 470.357C21.2696 474.197 23.2136 477.701 27.3176 477.701C30.9656 477.701 32.4776 475.205 32.6696 472.829H34.4936C34.0616 476.573 31.4216 479.237 27.3176 479.237C22.6616 479.237 19.4696 475.565 19.4696 470.357C19.4696 465.173 22.6616 461.453 27.3416 461.453C31.3496 461.453 33.9656 464.021 34.4216 467.237H32.5976ZM42.147 479.261C38.475 479.261 36.267 476.621 36.267 472.829C36.267 469.013 38.475 466.373 42.147 466.373C45.795 466.373 48.027 469.013 48.027 472.829C48.027 476.621 45.795 479.261 42.147 479.261ZM42.147 477.893C45.003 477.893 46.395 475.637 46.395 472.829C46.395 469.997 45.003 467.741 42.147 467.741C39.267 467.741 37.899 469.997 37.899 472.829C37.899 475.637 39.267 477.893 42.147 477.893ZM50.1789 478.925V466.685H51.7389V468.413H51.7869C52.4109 467.429 53.5629 466.397 55.4829 466.397C57.2109 466.397 58.3149 467.189 58.7949 468.653H58.8429C59.6349 467.429 60.9549 466.397 62.8749 466.397C65.2269 466.397 66.4989 467.789 66.4989 470.333V478.925H64.9389V470.669C64.9389 469.133 64.5549 467.765 62.5389 467.765C60.4029 467.765 59.1069 469.421 59.1069 471.197V478.925H57.5469V470.669C57.5469 469.133 57.1869 467.765 55.1469 467.765C53.0109 467.765 51.7389 469.421 51.7389 471.197V478.925H50.1789ZM69.2102 478.925V466.685H70.7702V468.413H70.8182C71.4422 467.429 72.5942 466.397 74.5142 466.397C76.2422 466.397 77.3462 467.189 77.8262 468.653H77.8742C78.6662 467.429 79.9862 466.397 81.9062 466.397C84.2582 466.397 85.5302 467.789 85.5302 470.333V478.925H83.9702V470.669C83.9702 469.133 83.5862 467.765 81.5702 467.765C79.4342 467.765 78.1382 469.421 78.1382 471.197V478.925H76.5782V470.669C76.5782 469.133 76.2182 467.765 74.1782 467.765C72.0422 467.765 70.7702 469.421 70.7702 471.197V478.925H69.2102ZM89.7986 474.941C89.7986 476.501 90.4946 477.845 92.6306 477.845C94.9346 477.845 96.4706 476.213 96.4706 474.413V466.685H98.0306V478.925H96.4706V477.197H96.4226C95.7506 478.205 94.4306 479.213 92.2466 479.213C90.0386 479.213 88.2386 477.989 88.2386 475.277V466.685H89.7986V474.941ZM100.874 478.925V466.685H102.434V468.437H102.482C103.154 467.429 104.474 466.397 106.658 466.397C108.842 466.397 110.666 467.621 110.666 470.333V478.925H109.106V470.669C109.106 469.109 108.386 467.765 106.274 467.765C103.946 467.765 102.434 469.397 102.434 471.197V478.925H100.874ZM113.15 462.221H115.166V464.237H113.15V462.221ZM113.39 466.685H114.95V478.925H113.39V466.685ZM126.56 470.981C126.464 469.613 125.48 467.765 122.936 467.765C119.936 467.765 118.712 470.309 118.712 472.805C118.712 475.325 119.936 477.893 122.936 477.893C125.504 477.893 126.464 476.045 126.56 474.557H128.192C128.024 477.197 125.912 479.237 122.936 479.237C119.432 479.237 117.08 476.645 117.08 472.805C117.08 468.989 119.432 466.397 122.936 466.397C125.912 466.397 127.904 468.389 128.192 470.981H126.56ZM133.696 479.237C131.272 479.237 129.688 477.869 129.688 475.829C129.688 473.189 131.56 472.373 134.728 471.797C136.744 471.437 138.04 471.293 138.04 469.829C138.04 468.581 137.248 467.741 135.256 467.741C132.904 467.741 132.04 468.581 131.92 470.381H130.288C130.408 468.221 131.752 466.373 135.328 466.373C137.584 466.373 139.576 467.333 139.576 470.261V476.381C139.576 477.365 139.72 477.821 140.248 477.821C140.368 477.821 140.44 477.821 140.584 477.797V478.925C140.32 478.973 140.056 479.021 139.768 479.021C138.76 479.021 138.136 478.613 138.064 477.077H138.016C137.152 478.469 135.712 479.237 133.696 479.237ZM133.888 477.869C136.408 477.869 138.04 476.549 138.04 474.341V472.061C137.68 472.565 136.384 472.853 134.92 473.093C132.544 473.525 131.32 474.125 131.32 475.685C131.32 477.101 132.112 477.869 133.888 477.869ZM141.025 466.685H142.825V462.605H144.385V466.685H146.881V468.053H144.385V475.781C144.385 477.293 144.745 477.653 145.945 477.653C146.329 477.653 146.521 477.629 146.881 477.605V478.925C146.401 478.997 146.113 479.021 145.729 479.021C143.929 479.021 142.825 478.421 142.825 475.757V468.053H141.025V466.685ZM148.892 462.221H150.908V464.237H148.892V462.221ZM149.132 466.685H150.692V478.925H149.132V466.685ZM158.702 479.261C155.03 479.261 152.822 476.621 152.822 472.829C152.822 469.013 155.03 466.373 158.702 466.373C162.35 466.373 164.582 469.013 164.582 472.829C164.582 476.621 162.35 479.261 158.702 479.261ZM158.702 477.893C161.558 477.893 162.95 475.637 162.95 472.829C162.95 469.997 161.558 467.741 158.702 467.741C155.822 467.741 154.454 469.997 154.454 472.829C154.454 475.637 155.822 477.893 158.702 477.893ZM166.734 478.925V466.685H168.294V468.437H168.342C169.014 467.429 170.334 466.397 172.518 466.397C174.702 466.397 176.526 467.621 176.526 470.333V478.925H174.966V470.669C174.966 469.109 174.246 467.765 172.134 467.765C169.806 467.765 168.294 469.397 168.294 471.197V478.925H166.734Z" fill="#E3570D"/>
<path d="M25.8074 105.038H18.0794L16.3514 109.79H14.5514L20.9594 92.6298H22.9274L29.4074 109.79H27.5114L25.8074 105.038ZM18.6554 103.478H25.2314L21.9674 94.2858H21.9194L18.6554 103.478ZM31.1453 97.5498H32.7053V100.046H32.7533C33.3533 98.4378 34.4813 97.2618 36.2333 97.2618C36.6653 97.2618 36.9773 97.2858 37.2893 97.3338V98.8698C37.0253 98.8218 36.7613 98.7978 36.5453 98.7978C34.3133 98.7978 32.7053 100.574 32.7053 102.95V109.79H31.1453V97.5498ZM47.2681 101.846C47.1721 100.478 46.1881 98.6298 43.6441 98.6298C40.6441 98.6298 39.4201 101.174 39.4201 103.67C39.4201 106.19 40.6441 108.758 43.6441 108.758C46.2121 108.758 47.1721 106.91 47.2681 105.422H48.9001C48.7321 108.062 46.6201 110.102 43.6441 110.102C40.1401 110.102 37.7881 107.51 37.7881 103.67C37.7881 99.8538 40.1401 97.2618 43.6441 97.2618C46.6201 97.2618 48.6121 99.2538 48.9001 101.846H47.2681ZM59.2289 101.534C59.2289 99.9738 58.5089 98.6298 56.3969 98.6298C54.0689 98.6298 52.5569 100.262 52.5569 102.062V109.79H50.9969V92.6298H52.5569V99.3018H52.6049C53.2769 98.2938 54.5969 97.2618 56.7809 97.2618C58.9649 97.2618 60.7889 98.4858 60.7889 101.198V109.79H59.2289V101.534ZM63.2725 93.0858H65.2885V95.1018H63.2725V93.0858ZM63.5125 97.5498H65.0725V109.79H63.5125V97.5498ZM66.8662 97.5498H68.6662V93.4698H70.2262V97.5498H72.7222V98.9178H70.2262V106.646C70.2262 108.158 70.5862 108.518 71.7862 108.518C72.1702 108.518 72.3622 108.494 72.7222 108.47V109.79C72.2422 109.862 71.9542 109.886 71.5702 109.886C69.7702 109.886 68.6662 109.286 68.6662 106.622V98.9178H66.8662V97.5498ZM79.5967 110.126C75.8527 110.126 73.7647 107.39 73.7647 103.67C73.7647 99.7578 76.0687 97.2378 79.5967 97.2378C83.1247 97.2378 85.1167 99.7098 85.1167 103.118C85.1167 103.454 85.1167 103.79 85.0927 103.982H75.3967C75.4207 106.478 76.7407 108.782 79.6207 108.782C82.1647 108.782 83.1247 107.054 83.3647 106.046H84.9487C84.3487 108.278 82.6687 110.126 79.5967 110.126ZM79.5247 98.5818C77.1487 98.5818 75.5167 100.334 75.3967 102.614H83.4607C83.4607 100.43 82.0447 98.5818 79.5247 98.5818ZM96.1822 101.846C96.0862 100.478 95.1022 98.6298 92.5582 98.6298C89.5582 98.6298 88.3342 101.174 88.3342 103.67C88.3342 106.19 89.5582 108.758 92.5582 108.758C95.1262 108.758 96.0862 106.91 96.1822 105.422H97.8142C97.6462 108.062 95.5342 110.102 92.5582 110.102C89.0542 110.102 86.7022 107.51 86.7022 103.67C86.7022 99.8538 89.0542 97.2618 92.5582 97.2618C95.5342 97.2618 97.5262 99.2538 97.8142 101.846H96.1822ZM98.7177 97.5498H100.518V93.4698H102.078V97.5498H104.574V98.9178H102.078V106.646C102.078 108.158 102.438 108.518 103.638 108.518C104.022 108.518 104.214 108.494 104.574 108.47V109.79C104.094 109.862 103.806 109.886 103.422 109.886C101.622 109.886 100.518 109.286 100.518 106.622V98.9178H98.7177V97.5498ZM107.937 105.806C107.937 107.366 108.633 108.71 110.769 108.71C113.073 108.71 114.609 107.078 114.609 105.278V97.5498H116.169V109.79H114.609V108.062H114.561C113.889 109.07 112.569 110.078 110.385 110.078C108.177 110.078 106.377 108.854 106.377 106.142V97.5498H107.937V105.806ZM119.013 97.5498H120.573V100.046H120.621C121.221 98.4378 122.349 97.2618 124.101 97.2618C124.533 97.2618 124.845 97.2858 125.157 97.3338V98.8698C124.893 98.8218 124.629 98.7978 124.413 98.7978C122.181 98.7978 120.573 100.574 120.573 102.95V109.79H119.013V97.5498ZM131.487 110.126C127.743 110.126 125.655 107.39 125.655 103.67C125.655 99.7578 127.959 97.2378 131.487 97.2378C135.015 97.2378 137.007 99.7098 137.007 103.118C137.007 103.454 137.007 103.79 136.983 103.982H127.287C127.311 106.478 128.631 108.782 131.511 108.782C134.055 108.782 135.015 107.054 135.255 106.046H136.839C136.239 108.278 134.559 110.126 131.487 110.126ZM131.415 98.5818C129.039 98.5818 127.407 100.334 127.287 102.614H135.351C135.351 100.43 133.935 98.5818 131.415 98.5818Z" fill="#E3570D"/>
<path d="M396.367 503.208H395.151C395.151 501.224 396.463 499.736 399.087 499.736C400.911 499.736 402.527 500.824 402.527 502.728C402.527 503.96 401.903 504.696 400.799 505.144V505.176C402.271 505.64 402.927 506.632 402.927 507.944C402.927 510.024 401.407 511.208 399.103 511.208C396.415 511.208 394.847 509.752 394.847 507.304H396.063C396.063 509 396.911 510.184 399.039 510.184C400.943 510.184 401.711 509.32 401.711 507.944C401.711 506.264 400.431 505.736 399.311 505.736H398.111V504.712H399.247C400.431 504.712 401.311 504.056 401.311 502.728C401.311 501.736 400.671 500.76 399.087 500.76C396.863 500.76 396.367 502.024 396.367 503.208ZM404.672 511V499.56H408.8C412 499.56 413.776 501.768 413.776 505.304C413.776 508.84 411.968 511 408.768 511H404.672ZM405.84 500.584V509.976H408.768C411.632 509.976 412.56 507.832 412.56 505.304C412.56 502.76 411.664 500.584 408.8 500.584H405.84ZM418.431 502.84H419.583L422.031 509.944H422.047L424.479 502.84H425.599L422.607 511H421.423L418.431 502.84ZM426.492 499.864H427.836V501.208H426.492V499.864ZM426.652 502.84H427.692V511H426.652V502.84ZM432.76 506.248C434.296 506.616 435.8 507.048 435.8 508.744C435.8 510.232 434.616 511.208 432.6 511.208C430.328 511.208 429.064 509.96 429.016 508.328H430.12C430.184 509.448 430.904 510.296 432.616 510.296C434.184 510.296 434.712 509.576 434.712 508.776C434.712 507.576 433.496 507.448 432.36 507.176C430.856 506.808 429.336 506.424 429.336 504.84C429.336 503.512 430.392 502.648 432.232 502.648C434.344 502.648 435.352 503.784 435.496 505.128H434.392C434.248 504.408 433.832 503.56 432.232 503.56C431.064 503.56 430.424 504.008 430.424 504.776C430.424 505.8 431.512 505.928 432.76 506.248ZM438.097 508.344C438.097 509.384 438.561 510.28 439.985 510.28C441.521 510.28 442.545 509.192 442.545 507.992V502.84H443.585V511H442.545V509.848H442.513C442.065 510.52 441.185 511.192 439.729 511.192C438.257 511.192 437.057 510.376 437.057 508.568V502.84H438.097V508.344ZM447.674 511.208C446.058 511.208 445.002 510.296 445.002 508.936C445.002 507.176 446.25 506.632 448.362 506.248C449.706 506.008 450.57 505.912 450.57 504.936C450.57 504.104 450.042 503.544 448.714 503.544C447.146 503.544 446.57 504.104 446.49 505.304H445.402C445.482 503.864 446.378 502.632 448.762 502.632C450.266 502.632 451.594 503.272 451.594 505.224V509.304C451.594 509.96 451.69 510.264 452.042 510.264C452.122 510.264 452.17 510.264 452.266 510.248V511C452.09 511.032 451.914 511.064 451.722 511.064C451.05 511.064 450.634 510.792 450.586 509.768H450.554C449.978 510.696 449.018 511.208 447.674 511.208ZM447.802 510.296C449.482 510.296 450.57 509.416 450.57 507.944V506.424C450.33 506.76 449.466 506.952 448.49 507.112C446.906 507.4 446.09 507.8 446.09 508.84C446.09 509.784 446.618 510.296 447.802 510.296ZM453.574 499.56H454.614V511H453.574V499.56ZM456.336 499.864H457.68V501.208H456.336V499.864ZM456.496 502.84H457.536V511H456.496V502.84ZM458.876 510.2L463.724 503.784V503.752H459.148V502.84H465.18V503.496L460.22 510.056V510.088H465.34V511H458.876V510.2ZM469.766 511.224C467.27 511.224 465.878 509.4 465.878 506.92C465.878 504.312 467.414 502.632 469.766 502.632C472.118 502.632 473.446 504.28 473.446 506.552C473.446 506.776 473.446 507 473.43 507.128H466.966C466.982 508.792 467.862 510.328 469.782 510.328C471.478 510.328 472.118 509.176 472.278 508.504H473.334C472.934 509.992 471.814 511.224 469.766 511.224ZM469.718 503.528C468.134 503.528 467.046 504.696 466.966 506.216H472.342C472.342 504.76 471.398 503.528 469.718 503.528ZM474.887 502.84H475.927V504.504H475.959C476.359 503.432 477.111 502.648 478.279 502.648C478.567 502.648 478.775 502.664 478.983 502.696V503.72C478.807 503.688 478.631 503.672 478.487 503.672C476.999 503.672 475.927 504.856 475.927 506.44V511H474.887V502.84Z" fill="#E3570D"/>
<path d="M259.74 52.3784H260.908V57.3224H267.372V52.3784H268.54V63.8184H267.372V58.3464H260.908V63.8184H259.74V52.3784ZM273.96 64.0424C271.512 64.0424 270.04 62.2824 270.04 59.7544C270.04 57.2104 271.512 55.4504 273.96 55.4504C276.392 55.4504 277.88 57.2104 277.88 59.7544C277.88 62.2824 276.392 64.0424 273.96 64.0424ZM273.96 63.1304C275.864 63.1304 276.792 61.6264 276.792 59.7544C276.792 57.8664 275.864 56.3624 273.96 56.3624C272.04 56.3624 271.128 57.8664 271.128 59.7544C271.128 61.6264 272.04 63.1304 273.96 63.1304ZM280.259 61.1624C280.259 62.2024 280.723 63.0984 282.147 63.0984C283.683 63.0984 284.707 62.0104 284.707 60.8104V55.6584H285.747V63.8184H284.707V62.6664H284.675C284.227 63.3384 283.347 64.0104 281.891 64.0104C280.419 64.0104 279.219 63.1944 279.219 61.3864V55.6584H280.259V61.1624ZM290.797 59.0664C292.333 59.4344 293.837 59.8664 293.837 61.5624C293.837 63.0504 292.653 64.0264 290.637 64.0264C288.365 64.0264 287.101 62.7784 287.053 61.1464H288.157C288.221 62.2664 288.941 63.1144 290.653 63.1144C292.221 63.1144 292.749 62.3944 292.749 61.5944C292.749 60.3944 291.533 60.2664 290.397 59.9944C288.893 59.6264 287.373 59.2424 287.373 57.6584C287.373 56.3304 288.429 55.4664 290.269 55.4664C292.381 55.4664 293.389 56.6024 293.533 57.9464H292.429C292.285 57.2264 291.869 56.3784 290.269 56.3784C289.101 56.3784 288.461 56.8264 288.461 57.5944C288.461 58.6184 289.549 58.7464 290.797 59.0664ZM295.014 52.6824H296.358V54.0264H295.014V52.6824ZM295.174 55.6584H296.214V63.8184H295.174V55.6584ZM298.096 63.8184V55.6584H299.136V56.8264H299.168C299.616 56.1544 300.496 55.4664 301.952 55.4664C303.408 55.4664 304.624 56.2824 304.624 58.0904V63.8184H303.584V58.3144C303.584 57.2744 303.104 56.3784 301.696 56.3784C300.144 56.3784 299.136 57.4664 299.136 58.6664V63.8184H298.096ZM312.345 63.4504V61.9304H312.313C311.833 62.7784 310.937 63.4344 309.561 63.4344C307.625 63.4344 305.977 62.1544 305.977 59.4344C305.977 56.7464 307.625 55.4664 309.561 55.4664C310.937 55.4664 311.833 56.1224 312.313 56.9384H312.345V55.6584H313.385V63.3064C313.385 65.6104 311.945 66.7464 309.705 66.7464C307.497 66.7464 306.329 65.6744 306.201 64.2504H307.289C307.449 65.1144 308.153 65.8344 309.721 65.8344C311.369 65.8344 312.345 65.1144 312.345 63.4504ZM309.705 56.3784C308.025 56.3784 307.065 57.5944 307.065 59.4344C307.065 61.3064 308.025 62.5224 309.705 62.5224C311.209 62.5224 312.345 61.5304 312.345 59.4344C312.345 57.3704 311.209 56.3784 309.705 56.3784Z" fill="#E3570D"/>
<path d="M426.75 12.9811H427.918V24.4211H426.75V12.9811ZM429.918 24.4211V16.2611H430.958V17.4291H430.99C431.438 16.7571 432.318 16.0691 433.774 16.0691C435.23 16.0691 436.446 16.8851 436.446 18.6931V24.4211H435.406V18.9171C435.406 17.8771 434.926 16.9811 433.518 16.9811C431.966 16.9811 430.958 18.0691 430.958 19.2691V24.4211H429.918ZM441.447 19.6691C442.983 20.0371 444.487 20.4691 444.487 22.1651C444.487 23.6531 443.303 24.6291 441.287 24.6291C439.015 24.6291 437.751 23.3811 437.703 21.7491H438.807C438.871 22.8691 439.591 23.7171 441.303 23.7171C442.871 23.7171 443.399 22.9971 443.399 22.1971C443.399 20.9971 442.183 20.8691 441.047 20.5971C439.543 20.2291 438.023 19.8451 438.023 18.2611C438.023 16.9331 439.079 16.0691 440.919 16.0691C443.031 16.0691 444.039 17.2051 444.183 18.5491H443.079C442.935 17.8291 442.519 16.9811 440.919 16.9811C439.751 16.9811 439.111 17.4291 439.111 18.1971C439.111 19.2211 440.199 19.3491 441.447 19.6691ZM445.028 16.2611H446.228V13.5411H447.268V16.2611H448.932V17.1731H447.268V22.3251C447.268 23.3331 447.508 23.5731 448.308 23.5731C448.564 23.5731 448.692 23.5571 448.932 23.5411V24.4211C448.612 24.4691 448.42 24.4851 448.164 24.4851C446.964 24.4851 446.228 24.0851 446.228 22.3091V17.1731H445.028V16.2611ZM452.393 24.6291C450.777 24.6291 449.721 23.7171 449.721 22.3571C449.721 20.5971 450.969 20.0531 453.081 19.6691C454.425 19.4291 455.289 19.3331 455.289 18.3571C455.289 17.5251 454.761 16.9651 453.433 16.9651C451.865 16.9651 451.289 17.5251 451.209 18.7251H450.121C450.201 17.2851 451.097 16.0531 453.481 16.0531C454.985 16.0531 456.313 16.6931 456.313 18.6451V22.7251C456.313 23.3811 456.409 23.6851 456.761 23.6851C456.841 23.6851 456.889 23.6851 456.985 23.6691V24.4211C456.809 24.4531 456.633 24.4851 456.441 24.4851C455.769 24.4851 455.353 24.2131 455.305 23.1891H455.273C454.697 24.1171 453.737 24.6291 452.393 24.6291ZM452.521 23.7171C454.201 23.7171 455.289 22.8371 455.289 21.3651V19.8451C455.049 20.1811 454.185 20.3731 453.209 20.5331C451.625 20.8211 450.809 21.2211 450.809 22.2611C450.809 23.2051 451.337 23.7171 452.521 23.7171ZM458.293 12.9811H459.333V24.4211H458.293V12.9811ZM461.215 12.9811H462.255V24.4211H461.215V12.9811ZM466.33 24.6291C464.714 24.6291 463.658 23.7171 463.658 22.3571C463.658 20.5971 464.906 20.0531 467.018 19.6691C468.362 19.4291 469.226 19.3331 469.226 18.3571C469.226 17.5251 468.698 16.9651 467.37 16.9651C465.802 16.9651 465.226 17.5251 465.146 18.7251H464.058C464.138 17.2851 465.034 16.0531 467.418 16.0531C468.922 16.0531 470.25 16.6931 470.25 18.6451V22.7251C470.25 23.3811 470.346 23.6851 470.698 23.6851C470.778 23.6851 470.826 23.6851 470.922 23.6691V24.4211C470.746 24.4531 470.57 24.4851 470.378 24.4851C469.706 24.4851 469.29 24.2131 469.242 23.1891H469.21C468.634 24.1171 467.674 24.6291 466.33 24.6291ZM466.458 23.7171C468.138 23.7171 469.226 22.8371 469.226 21.3651V19.8451C468.986 20.1811 468.122 20.3731 467.146 20.5331C465.562 20.8211 464.746 21.2211 464.746 22.2611C464.746 23.2051 465.274 23.7171 466.458 23.7171ZM471.216 16.2611H472.416V13.5411H473.456V16.2611H475.12V17.1731H473.456V22.3251C473.456 23.3331 473.696 23.5731 474.496 23.5731C474.752 23.5731 474.88 23.5571 475.12 23.5411V24.4211C474.8 24.4691 474.608 24.4851 474.352 24.4851C473.152 24.4851 472.416 24.0851 472.416 22.3091V17.1731H471.216V16.2611ZM476.461 13.2851H477.805V14.6291H476.461V13.2851ZM476.621 16.2611H477.661V24.4211H476.621V16.2611ZM483.001 24.6451C480.553 24.6451 479.081 22.8851 479.081 20.3571C479.081 17.8131 480.553 16.0531 483.001 16.0531C485.433 16.0531 486.921 17.8131 486.921 20.3571C486.921 22.8851 485.433 24.6451 483.001 24.6451ZM483.001 23.7331C484.905 23.7331 485.833 22.2291 485.833 20.3571C485.833 18.4691 484.905 16.9651 483.001 16.9651C481.081 16.9651 480.169 18.4691 480.169 20.3571C480.169 22.2291 481.081 23.7331 483.001 23.7331ZM488.355 24.4211V16.2611H489.395V17.4291H489.427C489.875 16.7571 490.755 16.0691 492.211 16.0691C493.667 16.0691 494.883 16.8851 494.883 18.6931V24.4211H493.843V18.9171C493.843 17.8771 493.363 16.9811 491.955 16.9811C490.403 16.9811 489.395 18.0691 489.395 19.2691V24.4211H488.355ZM499.885 19.6691C501.421 20.0371 502.925 20.4691 502.925 22.1651C502.925 23.6531 501.741 24.6291 499.725 24.6291C497.453 24.6291 496.189 23.3811 496.141 21.7491H497.245C497.309 22.8691 498.029 23.7171 499.741 23.7171C501.309 23.7171 501.837 22.9971 501.837 22.1971C501.837 20.9971 500.621 20.8691 499.485 20.5971C497.981 20.2291 496.461 19.8451 496.461 18.2611C496.461 16.9331 497.517 16.0691 499.357 16.0691C501.469 16.0691 502.477 17.2051 502.621 18.5491H501.517C501.373 17.8291 500.957 16.9811 499.357 16.9811C498.189 16.9811 497.549 17.4291 497.549 18.1971C497.549 19.2211 498.637 19.3491 499.885 19.6691Z" fill="#E3570D"/>
<path d="M129.554 176.223C126.258 176.223 124.066 173.727 124.066 170.287C124.066 166.847 126.258 164.367 129.554 164.367C132.85 164.367 135.058 166.847 135.058 170.287C135.058 173.727 132.85 176.223 129.554 176.223ZM129.554 175.199C132.386 175.199 133.842 172.991 133.842 170.287C133.842 167.583 132.386 165.391 129.554 165.391C126.738 165.391 125.282 167.583 125.282 170.287C125.282 172.991 126.738 175.199 129.554 175.199ZM136.104 168.767V167.855H137.256V166.655C137.256 164.879 137.96 164.479 139.128 164.479C139.368 164.479 139.56 164.495 139.912 164.543V165.423C139.624 165.407 139.496 165.391 139.272 165.391C138.488 165.391 138.296 165.631 138.296 166.639V167.855H141.064V166.655C141.064 164.879 141.768 164.479 142.936 164.479C143.16 164.479 143.352 164.495 143.72 164.543V165.423C143.432 165.407 143.304 165.391 143.08 165.391C142.296 165.391 142.104 165.631 142.104 166.639V167.855H143.72V168.767H142.104V176.015H141.064V168.767H138.296V176.015H137.256V168.767H136.104ZM144.632 164.879H145.976V166.223H144.632V164.879ZM144.808 167.855H145.848V176.015H144.808V167.855ZM153.584 170.719C153.52 169.807 152.864 168.575 151.168 168.575C149.168 168.575 148.352 170.271 148.352 171.935C148.352 173.615 149.168 175.327 151.168 175.327C152.88 175.327 153.52 174.095 153.584 173.103H154.672C154.56 174.863 153.152 176.223 151.168 176.223C148.832 176.223 147.264 174.495 147.264 171.935C147.264 169.391 148.832 167.663 151.168 167.663C153.152 167.663 154.48 168.991 154.672 170.719H153.584ZM159.574 176.239C157.078 176.239 155.686 174.415 155.686 171.935C155.686 169.327 157.222 167.647 159.574 167.647C161.926 167.647 163.254 169.295 163.254 171.567C163.254 171.791 163.254 172.015 163.238 172.143H156.774C156.79 173.807 157.67 175.343 159.59 175.343C161.286 175.343 161.926 174.191 162.086 173.519H163.142C162.742 175.007 161.622 176.239 159.574 176.239ZM159.526 168.543C157.942 168.543 156.854 169.711 156.774 171.231H162.15C162.15 169.775 161.206 168.543 159.526 168.543Z" fill="#E3570D"/>
<path d="M107.602 11.9458H113.474V12.9698H107.602V17.4018H114.37V18.4258H106.434V6.98578H114.194V8.00978H107.602V11.9458ZM114.396 10.2658H115.548L117.996 17.3698H118.012L120.444 10.2658H121.564L118.572 18.4258H117.388L114.396 10.2658ZM125.809 18.6498C123.313 18.6498 121.921 16.8258 121.921 14.3458C121.921 11.7378 123.457 10.0578 125.809 10.0578C128.161 10.0578 129.489 11.7058 129.489 13.9778C129.489 14.2018 129.489 14.4258 129.473 14.5538H123.009C123.025 16.2178 123.905 17.7538 125.825 17.7538C127.521 17.7538 128.161 16.6018 128.321 15.9298H129.377C128.977 17.4178 127.857 18.6498 125.809 18.6498ZM125.761 10.9538C124.177 10.9538 123.089 12.1218 123.009 13.6418H128.385C128.385 12.1858 127.441 10.9538 125.761 10.9538ZM130.93 18.4258V10.2658H131.97V11.4338H132.002C132.45 10.7618 133.33 10.0738 134.786 10.0738C136.242 10.0738 137.458 10.8898 137.458 12.6978V18.4258H136.418V12.9218C136.418 11.8818 135.938 10.9858 134.53 10.9858C132.978 10.9858 131.97 12.0738 131.97 13.2738V18.4258H130.93ZM138.431 10.2658H139.631V7.54578H140.671V10.2658H142.335V11.1778H140.671V16.3298C140.671 17.3378 140.911 17.5778 141.711 17.5778C141.967 17.5778 142.095 17.5618 142.335 17.5458V18.4258C142.015 18.4738 141.823 18.4898 141.567 18.4898C140.367 18.4898 139.631 18.0898 139.631 16.3138V11.1778H138.431V10.2658ZM146.85 13.6738C148.386 14.0418 149.89 14.4738 149.89 16.1698C149.89 17.6578 148.706 18.6338 146.69 18.6338C144.418 18.6338 143.154 17.3858 143.106 15.7538H144.21C144.274 16.8738 144.994 17.7218 146.706 17.7218C148.274 17.7218 148.802 17.0018 148.802 16.2018C148.802 15.0018 147.586 14.8738 146.45 14.6018C144.946 14.2338 143.426 13.8498 143.426 12.2658C143.426 10.9378 144.482 10.0738 146.322 10.0738C148.434 10.0738 149.442 11.2098 149.586 12.5538H148.482C148.338 11.8338 147.922 10.9858 146.322 10.9858C145.154 10.9858 144.514 11.4338 144.514 12.2018C144.514 13.2258 145.602 13.3538 146.85 13.6738Z" fill="#E3570D"/>
<path d="M312.84 123.771V112.331H317.24C319.336 112.331 320.92 113.227 320.92 115.627C320.92 118.027 319.336 118.939 317.24 118.939H314.008V123.771H312.84ZM314.008 117.915H317.352C318.888 117.915 319.704 117.195 319.704 115.627C319.704 114.075 318.888 113.355 317.352 113.355H314.008V117.915ZM322.273 112.331H323.313V123.771H322.273V112.331ZM327.389 123.979C325.773 123.979 324.717 123.067 324.717 121.707C324.717 119.947 325.965 119.403 328.077 119.019C329.421 118.779 330.285 118.683 330.285 117.707C330.285 116.875 329.757 116.315 328.429 116.315C326.861 116.315 326.285 116.875 326.205 118.075H325.117C325.197 116.635 326.093 115.403 328.477 115.403C329.981 115.403 331.309 116.043 331.309 117.995V122.075C331.309 122.731 331.405 123.035 331.757 123.035C331.837 123.035 331.885 123.035 331.981 123.019V123.771C331.805 123.803 331.629 123.835 331.437 123.835C330.765 123.835 330.349 123.563 330.301 122.539H330.269C329.693 123.467 328.733 123.979 327.389 123.979ZM327.517 123.067C329.197 123.067 330.285 122.187 330.285 120.715V119.195C330.045 119.531 329.181 119.723 328.205 119.883C326.621 120.171 325.805 120.571 325.805 121.611C325.805 122.555 326.333 123.067 327.517 123.067ZM335.317 123.723L332.021 115.611H333.189L335.829 122.411H335.861L338.405 115.611H339.525L336.245 124.011C335.445 126.043 334.741 126.635 333.637 126.635C333.381 126.635 333.189 126.619 332.853 126.571V125.675C333.093 125.707 333.221 125.723 333.493 125.723C334.245 125.723 334.885 125.227 335.317 123.723ZM346.226 123.403V121.883H346.194C345.714 122.731 344.818 123.387 343.442 123.387C341.506 123.387 339.858 122.107 339.858 119.387C339.858 116.699 341.506 115.419 343.442 115.419C344.818 115.419 345.714 116.075 346.194 116.891H346.226V115.611H347.266V123.259C347.266 125.563 345.826 126.699 343.586 126.699C341.378 126.699 340.21 125.627 340.082 124.203H341.17C341.33 125.067 342.034 125.787 343.602 125.787C345.25 125.787 346.226 125.067 346.226 123.403ZM343.586 116.331C341.906 116.331 340.946 117.547 340.946 119.387C340.946 121.259 341.906 122.475 343.586 122.475C345.09 122.475 346.226 121.483 346.226 119.387C346.226 117.323 345.09 116.331 343.586 116.331ZM349.148 115.611H350.188V117.275H350.22C350.62 116.203 351.372 115.419 352.54 115.419C352.828 115.419 353.036 115.435 353.244 115.467V116.491C353.068 116.459 352.892 116.443 352.748 116.443C351.26 116.443 350.188 117.627 350.188 119.211V123.771H349.148V115.611ZM357.497 123.995C355.049 123.995 353.577 122.235 353.577 119.707C353.577 117.163 355.049 115.403 357.497 115.403C359.929 115.403 361.417 117.163 361.417 119.707C361.417 122.235 359.929 123.995 357.497 123.995ZM357.497 123.083C359.401 123.083 360.329 121.579 360.329 119.707C360.329 117.819 359.401 116.315 357.497 116.315C355.577 116.315 354.665 117.819 354.665 119.707C354.665 121.579 355.577 123.083 357.497 123.083ZM363.796 121.115C363.796 122.155 364.26 123.051 365.684 123.051C367.22 123.051 368.244 121.963 368.244 120.763V115.611H369.284V123.771H368.244V122.619H368.212C367.764 123.291 366.884 123.963 365.428 123.963C363.956 123.963 362.756 123.147 362.756 121.339V115.611H363.796V121.115ZM371.18 123.771V115.611H372.22V116.779H372.252C372.7 116.107 373.58 115.419 375.036 115.419C376.492 115.419 377.708 116.235 377.708 118.043V123.771H376.668V118.267C376.668 117.227 376.188 116.331 374.78 116.331C373.228 116.331 372.22 117.419 372.22 118.619V123.771H371.18ZM385.413 116.987H385.445V112.331H386.485V123.771H385.445V122.443H385.413C384.933 123.243 384.069 123.979 382.645 123.979C380.661 123.979 379.061 122.379 379.061 119.691C379.061 117.019 380.661 115.419 382.661 115.419C384.069 115.419 384.933 116.123 385.413 116.987ZM382.773 123.067C384.341 123.067 385.445 121.755 385.445 119.691C385.445 117.643 384.341 116.331 382.773 116.331C381.077 116.331 380.149 117.867 380.149 119.691C380.149 121.531 381.077 123.067 382.773 123.067Z" fill="#E3570D"/>
<path d="M376.064 659.384C378.4 659.896 380.224 660.472 380.224 662.792C380.224 664.648 378.944 666.12 376.224 666.12C373.456 666.12 371.488 664.696 371.328 662.12H372.544C372.704 663.896 373.792 665.096 376.176 665.096C378.288 665.096 379.008 664.088 379.008 662.824C379.024 661.128 377.824 660.84 375.488 660.312C373.616 659.88 371.808 659.304 371.808 657.208C371.808 655.384 373.264 654.264 375.6 654.264C378.096 654.264 379.664 655.528 379.84 657.768H378.624C378.432 656.184 377.552 655.288 375.616 655.288C373.936 655.288 373.024 655.976 373.024 657.16C373.024 658.696 374.384 659.016 376.064 659.384ZM387.185 660.408C387.185 659.368 386.705 658.472 385.297 658.472C383.745 658.472 382.737 659.56 382.737 660.76V665.912H381.697V654.472H382.737V658.92H382.769C383.217 658.248 384.097 657.56 385.553 657.56C387.009 657.56 388.225 658.376 388.225 660.184V665.912H387.185V660.408ZM393.499 666.136C391.051 666.136 389.579 664.376 389.579 661.848C389.579 659.304 391.051 657.544 393.499 657.544C395.931 657.544 397.419 659.304 397.419 661.848C397.419 664.376 395.931 666.136 393.499 666.136ZM393.499 665.224C395.403 665.224 396.331 663.72 396.331 661.848C396.331 659.96 395.403 658.456 393.499 658.456C391.579 658.456 390.667 659.96 390.667 661.848C390.667 663.72 391.579 665.224 393.499 665.224ZM398.853 657.752H399.893V659.416H399.925C400.325 658.344 401.077 657.56 402.245 657.56C402.533 657.56 402.741 657.576 402.949 657.608V658.632C402.773 658.6 402.597 658.584 402.453 658.584C400.965 658.584 399.893 659.768 399.893 661.352V665.912H398.853V657.752ZM403.683 657.752H404.883V655.032H405.923V657.752H407.587V658.664H405.923V663.816C405.923 664.824 406.163 665.064 406.963 665.064C407.219 665.064 407.347 665.048 407.587 665.032V665.912C407.267 665.96 407.075 665.976 406.819 665.976C405.619 665.976 404.883 665.576 404.883 663.8V658.664H403.683V657.752ZM410.369 659.544H415.697V660.568H410.369V665.912H409.201V654.472H416.849V655.496H410.369V659.544ZM417.678 654.776H419.022V656.12H417.678V654.776ZM417.838 657.752H418.878V665.912H417.838V657.752ZM420.76 654.472H421.8V665.912H420.76V654.472ZM423.682 665.912V657.752H424.722V658.904H424.754C425.17 658.248 425.938 657.56 427.218 657.56C428.37 657.56 429.106 658.088 429.426 659.064H429.458C429.986 658.248 430.866 657.56 432.146 657.56C433.714 657.56 434.562 658.488 434.562 660.184V665.912H433.522V660.408C433.522 659.384 433.266 658.472 431.922 658.472C430.498 658.472 429.634 659.576 429.634 660.76V665.912H428.594V660.408C428.594 659.384 428.354 658.472 426.994 658.472C425.57 658.472 424.722 659.576 424.722 660.76V665.912H423.682Z" fill="#E3570D"/>
<path d="M201.305 586.519H196.153L195.001 589.687H193.801L198.073 578.247H199.385L203.705 589.687H202.441L201.305 586.519ZM196.537 585.479H200.921L198.745 579.351H198.713L196.537 585.479ZM204.863 581.527H205.903V583.191H205.935C206.335 582.119 207.087 581.335 208.255 581.335C208.543 581.335 208.751 581.351 208.959 581.383V582.407C208.783 582.375 208.607 582.359 208.463 582.359C206.975 582.359 205.903 583.543 205.903 585.127V589.687H204.863V581.527ZM209.693 581.527H210.893V578.807H211.933V581.527H213.597V582.439H211.933V587.591C211.933 588.599 212.173 588.839 212.973 588.839C213.229 588.839 213.357 588.823 213.597 588.807V589.687C213.277 589.735 213.085 589.751 212.829 589.751C211.629 589.751 210.893 589.351 210.893 587.575V582.439H209.693V581.527ZM218.992 589.687V578.247H223.12C226.32 578.247 228.096 580.455 228.096 583.991C228.096 587.527 226.288 589.687 223.088 589.687H218.992ZM220.16 579.271V588.663H223.088C225.952 588.663 226.88 586.519 226.88 583.991C226.88 581.447 225.984 579.271 223.12 579.271H220.16ZM229.563 578.551H230.907V579.895H229.563V578.551ZM229.723 581.527H230.763V589.687H229.723V581.527ZM232.644 581.527H233.684V583.191H233.716C234.116 582.119 234.868 581.335 236.036 581.335C236.324 581.335 236.532 581.351 236.74 581.383V582.407C236.564 582.375 236.388 582.359 236.244 582.359C234.756 582.359 233.684 583.543 233.684 585.127V589.687H232.644V581.527ZM240.961 589.911C238.465 589.911 237.073 588.087 237.073 585.607C237.073 582.999 238.609 581.319 240.961 581.319C243.313 581.319 244.641 582.967 244.641 585.239C244.641 585.463 244.641 585.687 244.625 585.815H238.161C238.177 587.479 239.057 589.015 240.977 589.015C242.673 589.015 243.313 587.863 243.473 587.191H244.529C244.129 588.679 243.009 589.911 240.961 589.911ZM240.913 582.215C239.329 582.215 238.241 583.383 238.161 584.903H243.537C243.537 583.447 242.593 582.215 240.913 582.215ZM252.018 584.391C251.954 583.479 251.298 582.247 249.602 582.247C247.602 582.247 246.786 583.943 246.786 585.607C246.786 587.287 247.602 588.999 249.602 588.999C251.314 588.999 251.954 587.767 252.018 586.775H253.106C252.994 588.535 251.586 589.895 249.602 589.895C247.266 589.895 245.698 588.167 245.698 585.607C245.698 583.063 247.266 581.335 249.602 581.335C251.586 581.335 252.914 582.663 253.106 584.391H252.018ZM253.708 581.527H254.908V578.807H255.948V581.527H257.612V582.439H255.948V587.591C255.948 588.599 256.188 588.839 256.988 588.839C257.244 588.839 257.372 588.823 257.612 588.807V589.687C257.292 589.735 257.1 589.751 256.844 589.751C255.644 589.751 254.908 589.351 254.908 587.575V582.439H253.708V581.527ZM258.953 578.551H260.297V579.895H258.953V578.551ZM259.113 581.527H260.153V589.687H259.113V581.527ZM265.493 589.911C263.045 589.911 261.573 588.151 261.573 585.623C261.573 583.079 263.045 581.319 265.493 581.319C267.925 581.319 269.413 583.079 269.413 585.623C269.413 588.151 267.925 589.911 265.493 589.911ZM265.493 588.999C267.397 588.999 268.325 587.495 268.325 585.623C268.325 583.735 267.397 582.231 265.493 582.231C263.573 582.231 262.661 583.735 262.661 585.623C262.661 587.495 263.573 588.999 265.493 588.999ZM270.848 589.687V581.527H271.888V582.695H271.92C272.368 582.023 273.248 581.335 274.704 581.335C276.16 581.335 277.376 582.151 277.376 583.959V589.687H276.336V584.183C276.336 583.143 275.856 582.247 274.448 582.247C272.896 582.247 271.888 583.335 271.888 584.535V589.687H270.848Z" fill="#E3570D"/>
<path d="M547.663 594.519H548.879L551.231 604.295H551.263L553.935 594.519H555.247L557.935 604.295H557.967L560.303 594.519H561.535L558.655 605.959H557.375L554.607 595.895H554.575L551.823 605.959H550.527L547.663 594.519ZM565.258 606.183C562.762 606.183 561.37 604.359 561.37 601.879C561.37 599.271 562.906 597.591 565.258 597.591C567.61 597.591 568.938 599.239 568.938 601.511C568.938 601.735 568.938 601.959 568.922 602.087H562.458C562.474 603.751 563.354 605.287 565.274 605.287C566.97 605.287 567.61 604.135 567.77 603.463H568.826C568.426 604.951 567.306 606.183 565.258 606.183ZM565.21 598.487C563.626 598.487 562.538 599.655 562.458 601.175H567.834C567.834 599.719 566.89 598.487 565.21 598.487ZM571.451 604.567H571.419V605.959H570.379V594.519H571.419V599.111H571.451C571.915 598.327 572.779 597.591 574.203 597.591C576.187 597.591 577.787 599.191 577.787 601.879C577.787 604.551 576.187 606.151 574.203 606.151C572.779 606.151 571.931 605.447 571.451 604.567ZM574.075 598.487C572.507 598.487 571.419 599.815 571.419 601.879C571.419 603.927 572.507 605.239 574.075 605.239C575.771 605.239 576.699 603.703 576.699 601.879C576.699 600.039 575.771 598.487 574.075 598.487Z" fill="#E3570D"/>
<rect x="378" y="504.625" width="8.56463" height="8.56463" transform="rotate(-45 378 504.625)" fill="#F46C00"/>
<rect x="242.379" y="57.4438" width="8.56463" height="8.56463" transform="rotate(-45 242.379 57.4438)" fill="#F46C00"/>
<rect x="409.389" y="18.0466" width="8.56463" height="8.56463" transform="rotate(-45 409.389 18.0466)" fill="#F46C00"/>
<rect x="107.059" y="169.64" width="8.56463" height="8.56463" transform="rotate(-45 107.059 169.64)" fill="#F46C00"/>
<rect x="89.0721" y="12.0513" width="8.56463" height="8.56463" transform="rotate(-45 89.0721 12.0513)" fill="#F46C00"/>
<rect x="295.48" y="117.396" width="8.56463" height="8.56463" transform="rotate(-45 295.48 117.396)" fill="#F46C00"/>
<rect x="354.576" y="659.537" width="8.56463" height="8.56463" transform="rotate(-45 354.576 659.537)" fill="#F46C00"/>
<rect x="177.287" y="583.312" width="8.56463" height="8.56463" transform="rotate(-45 177.287 583.312)" fill="#F46C00"/>
<rect x="531.008" y="599.585" width="8.56463" height="8.56463" transform="rotate(-45 531.008 599.585)" fill="#F46C00"/>
<path d="M183.712 581.11L384 503.5L360.143 659.905L537.859 600.38L301.904 116.051L112.197 169.58L247.518 57.8112L95.4961 11.9905L414.957 16.701L183.712 581.11Z" stroke="#002DCA" stroke-dasharray="2 2"/>
</svg>
