<svg width="966" height="966" viewBox="0 0 966 966" fill="none" xmlns="http://www.w3.org/2000/svg">
<path d="M265.066 835.698L256.754 844.01H200.535L192.223 835.698V779.469L200.535 771.157H256.754L265.066 779.469M265.066 835.698V779.469M265.066 835.698L273.378 844.01H329.597L337.909 835.698M265.066 779.469L273.378 771.157H329.597L337.909 779.469M337.909 835.698V779.469M337.909 835.698L346.221 844.01H402.452L410.764 835.698V779.469L402.452 771.157H346.221L337.909 779.469M337.909 852.31L346.221 843.998H402.452L410.764 852.31V908.54L402.452 916.851H346.221L337.909 908.54M337.909 852.31V908.54M337.909 852.31L329.597 843.998H273.378L265.066 852.31V908.54L273.378 916.851H329.597L337.909 908.54M192.235 617.186L183.923 625.498H127.704L119.392 617.186V560.957L127.704 552.645H183.923L192.235 560.957M192.235 617.186V560.957M192.235 617.186L200.547 625.498H256.766L265.078 617.186M192.235 560.957L200.547 552.645H256.766L265.078 560.957M265.078 617.186V560.957M265.078 617.186L273.39 625.498H329.609L337.921 617.186M265.078 560.957L273.39 552.645H329.609L337.921 560.957M337.921 617.186V560.957M337.921 617.186L346.233 625.498H402.463L410.775 617.186V560.957L402.463 552.645H346.233L337.921 560.957M337.921 488.115L346.233 479.804H402.463L410.775 488.115V544.345L402.463 552.656H346.233L337.921 544.345M337.921 488.115V544.345M337.921 488.115L329.609 479.804H273.39L265.078 488.115M337.921 544.345L329.609 552.656H273.39L265.078 544.345M265.078 488.115V544.345M265.078 488.115L256.766 479.804H200.547L192.235 488.115M265.078 544.345L256.766 552.656H200.547L192.235 544.345M192.235 488.115V544.345M192.235 488.115L183.923 479.804H127.704L119.392 488.115V544.345L127.704 552.656H183.923L192.235 544.345M127.704 698.328L119.392 690.016V633.786L127.704 625.486H183.923L192.235 633.786M127.704 698.328H183.923M127.704 698.328L119.392 706.639V762.868L127.704 771.18H183.923L192.235 762.868M183.923 698.328L192.235 690.016M183.923 698.328L192.235 706.639M192.235 690.016V633.786M192.235 690.016L200.547 698.328M192.235 633.786L200.547 625.486H256.766L265.078 633.786M200.547 698.328H256.766M200.547 698.328L192.235 706.639M256.766 698.328L265.078 690.016M256.766 698.328L265.078 706.639M265.078 690.016V633.786M265.078 690.016L273.39 698.328M265.078 633.786L273.39 625.486H329.609L337.921 633.786M273.39 698.328H329.609M273.39 698.328L265.078 706.639M329.609 698.328L337.921 690.016M329.609 698.328L337.921 706.639M337.921 690.016V633.786M337.921 690.016L346.233 698.328M337.921 633.786L346.233 625.486H402.463L410.775 633.786V690.016L402.463 698.328M346.233 698.328H402.463M346.233 698.328L337.921 706.639M402.463 698.328L410.775 706.639V762.868L402.463 771.18H346.233L337.921 762.868M419.076 698.328L410.764 690.016V633.786L419.076 625.486H475.306L483.607 633.786V690.016L475.306 698.328M419.076 698.328H475.306M419.076 698.328L410.764 706.639V762.868L419.076 771.18H475.306L483.607 762.868V706.639L475.306 698.328M337.921 706.639V762.868M337.921 762.868L329.609 771.18H273.39L265.078 762.868M265.078 706.639V762.868M265.078 762.868L256.766 771.18H200.547L192.235 762.868M192.235 706.639V762.868M265.066 180.15L256.754 188.461H200.535L192.223 180.15V123.92L200.535 115.609H256.754L265.066 123.92M265.066 180.15V123.92M265.066 180.15L273.378 188.461H329.597L337.909 180.15M265.066 123.92L273.378 115.609H329.597L337.909 123.92M337.909 180.15V123.92M337.909 180.15L346.221 188.461H402.452L410.764 180.15V123.92L402.452 115.609M337.909 123.92L346.221 115.609M346.221 115.609H402.452M346.221 115.609L337.909 107.297V51.0676L346.221 42.7673V42.7788H402.452L410.764 51.0791V107.297L402.452 115.609M419.064 115.609L410.752 123.92V180.15L419.064 188.461H475.295L483.595 180.15V123.92L475.295 115.609M419.064 115.609H475.295M419.064 115.609L410.752 107.297V51.0676L419.064 42.7673V42.7788M475.295 115.609L483.595 107.297V51.0791L475.295 42.7788M475.295 42.7788H419.064M475.295 42.7788L483.595 34.467M419.064 42.7788L410.752 34.467V6.44489M192.223 325.832L183.911 334.144H127.692L119.38 325.832V269.603L127.692 261.291H183.911L192.223 269.603M192.223 325.832V269.603M192.223 325.832L200.535 334.144H256.754L265.066 325.832M192.223 269.603L200.535 261.291H256.754L265.066 269.603M265.066 325.832V269.603M265.066 325.832L273.378 334.144H329.597L337.909 325.832M265.066 269.603L273.378 261.291H329.597L337.909 269.603M337.909 325.832V269.603M337.909 325.832L346.221 334.144H402.452L410.764 325.832V269.603L402.452 261.291H346.221L337.909 269.603M337.909 196.762L346.221 188.45H402.452L410.764 196.762V252.991L402.452 261.303H346.221L337.909 252.991M337.909 196.762V252.991M337.909 196.762L329.597 188.45H273.378L265.066 196.762M337.909 252.991L329.597 261.303H273.378L265.066 252.991M265.066 196.762V252.991M265.066 196.762L256.754 188.45H200.535L192.223 196.762M265.066 252.991L256.754 261.303H200.535L192.223 252.991M192.223 196.762V252.991M192.223 196.762L183.911 188.45H127.692L119.38 196.762V252.991L127.692 261.303H183.911L192.223 252.991M54.8491 406.962L46.537 398.65V342.433L54.8491 334.121H54.8606H111.08L119.392 342.433V398.65L111.08 406.962M54.8491 406.962H111.08M54.8491 406.962L46.537 415.274V471.492L54.8491 479.804H111.08L119.392 471.492V415.274L111.08 406.962M54.8491 406.962H54.8606H111.08M127.692 406.962L119.38 398.65V342.433L127.692 334.121H183.911L192.223 342.433M127.692 406.962H183.911M127.692 406.962L119.38 415.274V471.492L127.692 479.804H183.911L192.223 471.492M183.911 406.962L192.223 398.65M183.911 406.962L192.223 415.274M192.223 398.65V342.433M192.223 398.65L200.535 406.962M192.223 342.433L200.535 334.121H256.754L265.066 342.433M200.535 406.962H256.754M200.535 406.962L192.223 415.274M256.754 406.962L265.066 398.65M256.754 406.962L265.066 415.274M265.066 398.65V342.433M265.066 398.65L273.378 406.962M265.066 342.433L273.378 334.121H329.597L337.909 342.433M273.378 406.962H329.597M273.378 406.962L265.066 415.274M329.597 406.962L337.909 398.65M329.597 406.962L337.909 415.274M337.909 398.65V342.433M337.909 398.65L346.221 406.962M337.909 342.433L346.221 334.121H402.452L410.764 342.433V398.65L402.452 406.962M346.221 406.962H402.452M346.221 406.962L337.909 415.274M402.452 406.962L410.764 415.274V471.492L402.452 479.804H346.221L337.909 471.492M419.064 406.962L410.752 398.65V342.433L419.064 334.121H475.295L483.595 342.433V398.65L475.295 406.962M419.064 406.962H475.295M419.064 406.962L410.752 415.274V471.492L419.064 479.804H475.295L483.595 471.492V415.274L475.295 406.962M337.909 415.274V471.492M337.909 471.492L329.597 479.804H273.378L265.066 471.492M265.066 415.274V471.492M265.066 471.492L256.754 479.804H200.535L192.223 471.492M192.223 415.274V471.492M491.884 406.962L483.572 415.274V471.492L491.884 479.804H548.115L556.427 471.492V415.274L548.115 406.962M491.884 406.962H548.115M491.884 406.962L483.572 398.65V342.433L491.884 334.121H548.115L556.427 342.433V398.65L548.115 406.962M564.727 406.962L556.415 415.274V471.492L564.727 479.804H620.946L629.258 471.492M564.727 406.962H620.946M564.727 406.962L556.415 398.65V342.433L564.727 334.121H620.946L629.258 342.433M629.258 471.492V415.274M629.258 471.492L637.57 479.804H693.801L702.113 471.492V415.274L693.801 406.962M629.258 415.274L620.946 406.962M629.258 415.274L637.57 406.962M620.946 406.962L629.258 398.65M637.57 406.962H693.801M637.57 406.962L629.258 398.65M693.801 406.962L702.113 398.65V342.433L693.801 334.121H637.57L629.258 342.433M710.414 406.962L702.102 415.274V471.492L710.414 479.804H766.644L774.956 471.492V415.274L766.644 406.962M710.414 406.962H766.644M710.414 406.962L702.102 398.65V342.433L710.414 334.121H766.644L774.956 342.433V398.65L766.644 406.962M783.257 406.962L774.944 415.274V471.492L783.257 479.804H839.476L847.788 471.492M783.257 406.962H839.476M783.257 406.962L774.944 398.65V342.433L783.257 334.121H839.476L847.788 342.433M847.788 471.492V415.274M847.788 471.492L856.1 479.804H912.33L920.642 471.492V415.274L912.33 406.962M847.788 415.274L839.476 406.962M847.788 415.274L856.1 406.962M839.476 406.962L847.788 398.65M856.1 406.962H912.33M856.1 406.962L847.788 398.65M912.33 406.962L920.642 398.65V342.433L912.33 334.121H856.1L847.788 342.433M847.788 342.433V398.65M629.258 342.433V398.65M629.258 252.991L620.946 261.303H564.727L556.415 252.991V196.762L564.727 188.45H620.946L629.258 196.762M629.258 252.991V196.762M629.258 252.991L637.57 261.303H693.801L702.113 252.991V196.762L693.801 188.45H637.57L629.258 196.762M629.258 269.603L637.57 261.291H693.801L702.113 269.603V325.832L693.801 334.144H637.57L629.258 325.832M629.258 269.603V325.832M629.258 269.603L620.946 261.291H564.727L556.415 269.603V325.832L564.727 334.144H620.946L629.258 325.832M629.247 123.932L637.559 115.62H693.789L702.102 123.932V180.161L693.789 188.473H637.559L629.247 180.161M629.247 123.932V180.161M629.247 123.932L620.935 115.62H564.716L556.404 123.932V180.161L564.716 188.473H620.935L629.247 180.161M491.873 698.328L483.561 706.639V762.868L491.873 771.18H548.103L556.415 762.868V706.639L548.103 698.328M491.873 698.328H548.103M491.873 698.328L483.561 690.016V633.786L491.873 625.486H548.103L556.415 633.786V690.016L548.103 698.328M564.716 698.328L556.404 706.639V762.868L564.716 771.18H620.935L629.247 762.868M564.716 698.328H620.935M564.716 698.328L556.404 690.016V633.786L564.716 625.486H620.935L629.247 633.786M629.247 762.868V706.639M629.247 762.868L637.559 771.18H693.789L702.102 762.868V706.639L693.789 698.328M629.247 706.639L620.935 698.328M629.247 706.639L637.559 698.328M620.935 698.328L629.247 690.016M637.559 698.328H693.789M637.559 698.328L629.247 690.016M693.789 698.328L702.102 690.016V633.786L693.789 625.486H637.559L629.247 633.786M710.402 698.328L702.09 706.639V762.868L710.402 771.18H766.633L774.944 762.868V706.639L766.633 698.328M710.402 698.328H766.633M710.402 698.328L702.09 690.016V633.786L710.402 625.486H766.633L774.944 633.786V690.016L766.633 698.328M783.245 698.328L774.933 706.639V762.868L783.245 771.18H839.464L847.776 762.868V706.639L839.464 698.328M783.245 698.328H839.464M783.245 698.328L774.933 690.016V633.786L783.245 625.486H839.464L847.776 633.786V690.016L839.464 698.328M629.247 633.786V690.016M629.247 544.345L620.935 552.656H564.716L556.404 544.345V488.115L564.716 479.804H620.935L629.247 488.115M629.247 544.345V488.115M629.247 544.345L637.559 552.656H693.789L702.102 544.345V488.115L693.789 479.804H637.559L629.247 488.115M847.776 544.345L839.464 552.656H783.245L774.933 544.345V488.115L783.245 479.804H839.464L847.776 488.115M847.776 544.345V488.115M847.776 544.345L856.088 552.656H912.319L920.631 544.345V488.115L912.319 479.804H856.088L847.776 488.115M847.776 560.957L856.088 552.645H912.319L920.631 560.957V617.186L912.319 625.498H856.088L847.776 617.186M847.776 560.957V617.186M847.776 560.957L839.464 552.645H783.245L774.933 560.957V617.186L783.245 625.498H839.464L847.776 617.186M629.247 560.957L637.559 552.645H693.789L702.102 560.957V617.186L693.789 625.498H637.559L629.247 617.186M629.247 560.957V617.186M629.247 560.957L620.935 552.645H564.716L556.404 560.957V617.186L564.716 625.498H620.935L629.247 617.186M629.247 908.54L620.935 916.851H564.716L556.404 908.54V852.31L564.716 843.998H620.935L629.247 852.31M629.247 908.54V852.31M629.247 908.54L637.559 916.851H693.789L702.102 908.54V852.31L693.789 843.998H637.559L629.247 852.31M629.247 779.469L637.559 771.157H693.789L702.102 779.469V835.698L693.789 844.01H637.559L629.247 835.698M629.247 779.469V835.698M629.247 779.469L620.935 771.157H564.716L556.404 779.469V835.698L564.716 844.01H620.935L629.247 835.698M22.5258 625.475H38.2365L46.5486 617.163V560.934L38.2365 552.622H6.05196H38.2481L46.5602 544.31V488.081L38.2481 479.769H1M7.02305 406.928H38.2365L46.5486 398.616V342.398L38.2365 334.086H24.5489M1 479.804H38.2481L46.5602 471.492V415.274L38.2481 406.962H7.02305M483.584 965V925.14L475.283 916.828H419.053L410.741 925.14M410.741 925.14V959.555M410.741 925.14L402.429 916.828H346.198L337.886 925.14V942.654M556.404 959.382V925.14L548.092 916.828H491.861L483.549 925.14V965M629.224 942.272V925.14L620.912 916.828H564.693L556.381 925.14V959.382M958.931 406.974H928.885L920.573 415.286V471.503L928.885 479.815H964.954M941.393 334.144H928.873L920.561 342.456V398.674L928.873 406.985H958.919M964.942 479.827H928.873L920.561 488.139V544.368L928.873 552.68M928.873 552.68H959.902M928.873 552.68L920.561 560.991V617.221L928.873 625.532H943.417M483.595 34.467V1M483.595 34.467L491.907 42.7788H548.138L556.45 34.467M556.45 34.467V6.62985M556.45 34.467L564.762 42.7788H620.981L629.293 34.467V23.7275M337.932 23.3576V34.467L346.244 42.7788H402.475L410.787 34.467V6.44489M629.305 23.7275V34.467L637.617 42.7788M637.617 42.7788H679.327M637.617 42.7788L629.305 51.0791V107.308L637.617 115.62H693.847L702.159 107.308M702.159 107.308V53.6802M702.159 107.308L710.471 115.62H766.702L775.014 107.308V99.4704M795.083 115.62H783.314L775.002 123.932V180.161L783.314 188.473H839.533L847.845 180.161M847.845 180.161V167.954M847.845 180.161L856.157 188.473H864.608M775.002 99.482V107.32L783.314 115.632H795.083M920.688 280.978V325.832L929 334.144H941.521M864.62 188.473H856.169L847.857 196.785V253.014L856.169 261.326M856.169 261.326H911.07M856.169 261.326L847.857 269.638V325.867L856.169 334.179H912.4L920.712 325.867V281.013M943.567 625.532H929.024L920.712 633.833M920.712 633.833V685.091M920.712 633.833L912.4 625.532H856.169L847.857 633.833V690.062L856.169 698.374M856.169 698.374H912.4M856.169 698.374L847.857 706.686V762.915L856.169 771.227M912.4 698.374L916.214 694.559M912.4 698.374L913.683 699.657M856.169 771.227H869.475M856.169 771.227L847.857 779.538M847.857 779.538V798.139M847.857 779.538L839.545 771.227H783.326L775.014 779.538V835.768L783.326 844.079M783.326 844.079H802.47M783.326 844.079L775.014 852.391V866.622M693.87 916.921H637.64L629.328 925.233V942.365M775.002 866.622V852.391L766.69 844.079H710.46L702.148 852.391V908.62L704.656 911.129M163.645 844.091H183.957L192.269 835.779V779.55L183.957 771.238H127.738L119.426 779.55V799.503M337.944 942.735V925.221L329.632 916.909H273.413L273.274 917.048M192.269 867.501V852.38L183.957 844.068H163.645M262.199 911.511L265.112 908.597V852.368L256.8 844.056H200.581L192.269 852.368V867.489M119.426 799.48V779.527L111.114 771.215M111.114 771.215H96.6405M111.114 771.215L119.426 762.903V706.674L111.114 698.362H54.8606L52.7913 700.431M48.7682 692.281L54.8491 698.374H111.08L119.392 690.062V633.833L111.08 625.532H54.8606L46.5486 633.833M46.5486 633.833V687.611M46.5486 633.833L38.2365 625.532H22.5258M286.719 42.7788H329.597L337.909 34.467V23.3576M192.235 98.5803V107.308L200.547 115.62H256.766L265.078 107.308M265.078 107.308V53.079M265.078 107.308L273.39 115.62H329.609L337.921 107.308V51.0791L329.609 42.7788H286.731M119.392 166.589V180.15L127.704 188.461H183.923L192.235 180.15V123.92L183.923 115.609M183.923 115.609H170.986M183.923 115.609L192.235 107.297V98.5687M101.473 188.438H111.091L119.403 180.126V166.566M46.5602 278.424V325.798L54.8722 334.109H111.103L119.415 325.798V269.568L111.103 261.257H54.8606H111.091L119.403 252.945V196.716L111.091 188.404H101.473M24.5604 334.121H38.2481L46.5602 325.809V278.435M419.064 771.157L410.752 779.469V835.698L419.064 844.01H475.295L483.595 835.698V779.469L475.295 771.157H419.064ZM419.064 843.998L410.752 852.31V908.54L419.064 916.851H475.295L483.595 908.54V852.31L475.295 843.998H419.064ZM54.8606 552.645L46.5486 560.957V617.186L54.8606 625.498H111.091L119.403 617.186V560.957L111.091 552.645H54.8606ZM419.076 552.645L410.764 560.957V617.186L419.076 625.498H475.306L483.607 617.186V560.957L475.306 552.645H419.076ZM419.076 479.804L410.764 488.115V544.345L419.076 552.656H475.306L483.607 544.345V488.115L475.306 479.804H419.076ZM54.8606 479.804L46.5486 488.115V544.345L54.8606 552.656H111.091L119.403 544.345V488.115L111.091 479.804H54.8606ZM419.064 261.291L410.752 269.603V325.832L419.064 334.144H475.295L483.595 325.832V269.603L475.295 261.291H419.064ZM419.064 188.45L410.752 196.762V252.991L419.064 261.303H475.295L483.595 252.991V196.762L475.295 188.45H419.064ZM491.884 188.45L483.572 196.762V252.991L491.884 261.303H548.115L556.427 252.991V196.762L548.115 188.45H491.884ZM710.414 188.45L702.102 196.762V252.991L710.414 261.303H766.644L774.956 252.991V196.762L766.644 188.45H710.414ZM783.257 188.45L774.944 196.762V252.991L783.257 261.303H839.476L847.788 252.991V196.762L839.476 188.45H783.257ZM783.257 261.291L774.944 269.603V325.832L783.257 334.144H839.476L847.788 325.832V269.603L839.476 261.291H783.257ZM710.414 261.291L702.102 269.603V325.832L710.414 334.144H766.644L774.956 325.832V269.603L766.644 261.291H710.414ZM491.884 261.291L483.572 269.603V325.832L491.884 334.144H548.115L556.427 325.832V269.603L548.115 261.291H491.884ZM491.884 42.7788L483.572 51.0791V107.308L491.884 115.62H548.115L556.427 107.308V51.0791L548.115 42.7788H491.884ZM564.727 42.7788L556.415 51.0791V107.308L564.727 115.62H620.946L629.258 107.308V51.0791L620.946 42.7788H564.727ZM710.402 115.62L702.09 123.932V180.161L710.402 188.473H766.633L774.944 180.161V123.932L766.633 115.62H710.402ZM491.873 115.62L483.561 123.932V180.161L491.873 188.473H548.103L556.415 180.161V123.932L548.103 115.62H491.873ZM491.873 479.804L483.561 488.115V544.345L491.873 552.656H548.103L556.415 544.345V488.115L548.103 479.804H491.873ZM710.402 479.804L702.09 488.115V544.345L710.402 552.656H766.633L774.944 544.345V488.115L766.633 479.804H710.402ZM710.402 552.645L702.09 560.957V617.186L710.402 625.498H766.633L774.944 617.186V560.957L766.633 552.645H710.402ZM491.873 552.645L483.561 560.957V617.186L491.873 625.498H548.103L556.415 617.186V560.957L548.103 552.645H491.873ZM491.873 843.998L483.561 852.31V908.54L491.873 916.851H548.103L556.415 908.54V852.31L548.103 843.998H491.873ZM710.402 771.157L702.09 779.469V835.698L710.402 844.01H766.633L774.944 835.698V779.469L766.633 771.157H710.402ZM491.873 771.157L483.561 779.469V835.698L491.873 844.01H548.103L556.415 835.698V779.469L548.103 771.157H491.873Z" stroke="#E3570D" stroke-linecap="round" stroke-linejoin="round"/>
</svg>
