<?xml version="1.0" encoding="UTF-8" standalone="no" ?>
<!DOCTYPE svg PUBLIC "-//W3C//DTD SVG 1.1//EN" "http://www.w3.org/Graphics/SVG/1.1/DTD/svg11.dtd">
<svg xmlns="http://www.w3.org/2000/svg" xmlns:xlink="http://www.w3.org/1999/xlink" version="1.1" width="500" height="500" viewBox="0 0 500 500" xml:space="preserve">
<desc>Created with Fabric.js 5.3.0</desc>
<defs>
</defs>
<g transform="matrix(0.6151379861 0 0 0.6151379861 250 239.6578913898)" id="CQ8YqSBWpFslIK4eoz4n5"  >
<g style=""   >
		<g transform="matrix(1 0 0 1 -29.3555 -268.19615)" id="1Zn6wJ1BdelwQmE4fuboT"  >
<path style="stroke: rgb(0,45,202); stroke-width: 1; stroke-dasharray: 2 2; stroke-linecap: butt; stroke-dashoffset: 0; stroke-linejoin: miter; stroke-miterlimit: 4; fill: none; fill-rule: nonzero; opacity: 1;"  transform=" translate(-358.6445, -66.80385)" d="M 300.619 117.335 L 416.67 16.2727" stroke-linecap="round" />
</g>
		<g transform="matrix(1 0 0 1 -55.9065 -75.3277)" id="i6yFGJBSOVh_l2uwX6xla"  >
<path style="stroke: rgb(0,45,202); stroke-width: 1; stroke-dasharray: 2 2; stroke-linecap: butt; stroke-dashoffset: 0; stroke-linejoin: miter; stroke-miterlimit: 4; fill: none; fill-rule: nonzero; opacity: 1;"  transform=" translate(-332.0935, -259.6723)" d="M 249.231 57.8112 L 414.956 15.8446 L 383 503.5 L 249.231 57.8112 Z" stroke-linecap="round" />
</g>
		<g transform="matrix(1 0 0 1 -132.346 -136.729)" id="sljDWcNaU984xcWyhMsPA"  >
<path style="stroke: rgb(227,87,13); stroke-width: 2; stroke-dasharray: none; stroke-linecap: butt; stroke-dashoffset: 0; stroke-linejoin: miter; stroke-miterlimit: 4; fill: none; fill-rule: nonzero; opacity: 1;"  transform=" translate(-197.271, -197.271)" d="M 0 197.271 C 0 88.32123999999999 88.32124 0 197.271 0 C 306.22076 0 394.542 88.32124 394.542 197.271 C 394.542 306.22076 306.22076 394.542 197.271 394.542 C 88.32123999999999 394.542 0 306.22076 0 197.271 z" stroke-linecap="round" />
</g>
		<g transform="matrix(1 0 0 1 -55.264 51.693)" id="OUCwysGG6g8fd1GDayuay"  >
<path style="stroke: rgb(227,87,13); stroke-width: 2; stroke-dasharray: none; stroke-linecap: butt; stroke-dashoffset: 0; stroke-linejoin: miter; stroke-miterlimit: 4; fill: none; fill-rule: nonzero; opacity: 1;"  transform=" translate(-197.271, -197.271)" d="M 0 197.271 C 0 88.32123999999999 88.32124 0 197.271 0 C 306.22076 0 394.542 88.32124 394.542 197.271 C 394.542 306.22076 306.22076 394.542 197.271 394.542 C 88.32123999999999 394.542 0 306.22076 0 197.271 z" stroke-linecap="round" />
</g>
		<g transform="matrix(1 0 0 1 191.775 -78.10135)" id="GCVWPIdtsG4AkvdpZaZAB"  >
<path style="stroke: rgb(227,87,13); stroke-width: 1; stroke-dasharray: none; stroke-linecap: round; stroke-dashoffset: 0; stroke-linejoin: round; stroke-miterlimit: 4; fill: none; fill-rule: nonzero; opacity: 1;"  transform=" translate(-579.775, -256.89865)" d="M 491.511 399.759 L 488.144 403.125 L 465.372 403.125 L 462.006 399.759 L 462.006 376.983 L 465.372 373.617 L 488.144 373.617 L 491.511 376.983 M 491.511 399.759 L 491.511 376.983 M 491.511 399.759 L 494.877 403.125 L 517.649 403.125 L 521.016 399.759 M 491.511 376.983 L 494.877 373.617 L 517.649 373.617 L 521.016 376.983 M 521.016 399.759 L 521.016 376.983 M 521.016 399.759 L 524.382 403.125 L 547.159 403.125 L 550.525 399.759 L 550.525 376.983 L 547.159 373.617 L 524.382 373.617 L 521.016 376.983 M 521.016 406.487 L 524.382 403.121 L 547.159 403.121 L 550.525 406.487 L 550.525 429.263 L 547.159 432.63 L 524.382 432.63 L 521.016 429.263 M 521.016 406.487 L 521.016 429.263 M 521.016 406.487 L 517.649 403.121 L 494.877 403.121 L 491.511 406.487 L 491.511 429.263 L 494.877 432.63 L 517.649 432.63 L 521.016 429.263 M 462.01 311.251 L 458.644 314.617 L 435.872 314.617 L 432.505 311.251 L 432.505 288.475 L 435.872 285.108 L 458.644 285.108 L 462.01 288.475 M 462.01 311.251 L 462.01 288.475 M 462.01 311.251 L 465.377 314.617 L 488.149 314.617 L 491.515 311.251 M 462.01 288.475 L 465.377 285.108 L 488.149 285.108 L 491.515 288.475 M 491.515 311.251 L 491.515 288.475 M 491.515 311.251 L 494.882 314.617 L 517.654 314.617 L 521.02 311.251 M 491.515 288.475 L 494.882 285.108 L 517.654 285.108 L 521.02 288.475 M 521.02 311.251 L 521.02 288.475 M 521.02 311.251 L 524.387 314.617 L 547.163 314.617 L 550.53 311.251 L 550.53 288.475 L 547.163 285.108 L 524.387 285.108 L 521.02 288.475 M 521.02 258.971 L 524.387 255.604 L 547.163 255.604 L 550.53 258.971 L 550.53 281.746 L 547.163 285.113 L 524.387 285.113 L 521.02 281.746 M 521.02 258.971 L 521.02 281.746 M 521.02 258.971 L 517.654 255.604 L 494.882 255.604 L 491.515 258.971 M 521.02 281.746 L 517.654 285.113 L 494.882 285.113 L 491.515 281.746 M 491.515 258.971 L 491.515 281.746 M 491.515 258.971 L 488.149 255.604 L 465.377 255.604 L 462.01 258.971 M 491.515 281.746 L 488.149 285.113 L 465.377 285.113 L 462.01 281.746 M 462.01 258.971 L 462.01 281.746 M 462.01 258.971 L 458.644 255.604 L 435.872 255.604 L 432.505 258.971 L 432.505 281.746 L 435.872 285.113 L 458.644 285.113 L 462.01 281.746 M 435.872 344.117 L 432.505 340.75 L 432.505 317.975 L 435.872 314.613 L 458.644 314.613 L 462.01 317.975 M 435.872 344.117 L 458.644 344.117 M 435.872 344.117 L 432.505 347.484 L 432.505 370.259 L 435.872 373.626 L 458.644 373.626 L 462.01 370.259 M 458.644 344.117 L 462.01 340.75 M 458.644 344.117 L 462.01 347.484 M 462.01 340.75 L 462.01 317.975 M 462.01 340.75 L 465.377 344.117 M 462.01 317.975 L 465.377 314.613 L 488.149 314.613 L 491.515 317.975 M 465.377 344.117 L 488.149 344.117 M 465.377 344.117 L 462.01 347.484 M 488.149 344.117 L 491.515 340.75 M 488.149 344.117 L 491.515 347.484 M 491.515 340.75 L 491.515 317.975 M 491.515 340.75 L 494.882 344.117 M 491.515 317.975 L 494.882 314.613 L 517.654 314.613 L 521.02 317.975 M 494.882 344.117 L 517.654 344.117 M 494.882 344.117 L 491.515 347.484 M 517.654 344.117 L 521.02 340.75 M 517.654 344.117 L 521.02 347.484 M 521.02 340.75 L 521.02 317.975 M 521.02 340.75 L 524.387 344.117 M 521.02 317.975 L 524.387 314.613 L 547.163 314.613 L 550.53 317.975 L 550.53 340.75 L 547.163 344.117 M 524.387 344.117 L 547.163 344.117 M 524.387 344.117 L 521.02 347.484 M 547.163 344.117 L 550.53 347.484 L 550.53 370.259 L 547.163 373.626 L 524.387 373.626 L 521.02 370.259 M 553.892 344.117 L 550.525 340.75 L 550.525 317.975 L 553.892 314.613 L 576.668 314.613 L 580.03 317.975 L 580.03 340.75 L 576.668 344.117 M 553.892 344.117 L 576.668 344.117 M 553.892 344.117 L 550.525 347.484 L 550.525 370.259 L 553.892 373.626 L 576.668 373.626 L 580.03 370.259 L 580.03 347.484 L 576.668 344.117 M 521.02 347.484 L 521.02 370.259 M 521.02 370.259 L 517.654 373.626 L 494.882 373.626 L 491.515 370.259 M 491.515 347.484 L 491.515 370.259 M 491.515 370.259 L 488.149 373.626 L 465.377 373.626 L 462.01 370.259 M 462.01 347.484 L 462.01 370.259 M 491.511 134.23 L 488.144 137.596 L 465.372 137.596 L 462.006 134.23 L 462.006 111.454 L 465.372 108.087 L 488.144 108.087 L 491.511 111.454 M 491.511 134.23 L 491.511 111.454 M 491.511 134.23 L 494.877 137.596 L 517.649 137.596 L 521.016 134.23 M 491.511 111.454 L 494.877 108.087 L 517.649 108.087 L 521.016 111.454 M 521.016 134.23 L 521.016 111.454 M 521.016 134.23 L 524.382 137.596 L 547.159 137.596 L 550.525 134.23 L 550.525 111.454 L 547.159 108.087 M 521.016 111.454 L 524.382 108.087 M 524.382 108.087 L 547.159 108.087 M 524.382 108.087 L 521.016 104.721 L 521.016 81.9451 L 524.382 78.5831 L 524.382 78.5878 L 547.159 78.5878 L 550.525 81.9498 L 550.525 104.721 L 547.159 108.087 M 553.887 108.087 L 550.521 111.454 L 550.521 134.23 L 553.887 137.596 L 576.664 137.596 L 580.026 134.23 L 580.026 111.454 L 576.664 108.087 M 553.887 108.087 L 576.664 108.087 M 553.887 108.087 L 550.521 104.721 L 550.521 81.9451 L 553.887 78.5831 L 553.887 78.5878 M 576.664 108.087 L 580.026 104.721 L 580.026 81.9498 L 576.664 78.5878 M 576.664 78.5878 L 553.887 78.5878 M 576.664 78.5878 L 580.026 75.2211 M 553.887 78.5878 L 550.521 75.2211 L 550.521 63.8707 M 462.006 193.238 L 458.639 196.605 L 435.868 196.605 L 432.501 193.238 L 432.501 170.463 L 435.868 167.096 L 458.639 167.096 L 462.006 170.463 M 462.006 193.238 L 462.006 170.463 M 462.006 193.238 L 465.372 196.605 L 488.144 196.605 L 491.511 193.238 M 462.006 170.463 L 465.372 167.096 L 488.144 167.096 L 491.511 170.463 M 491.511 193.238 L 491.511 170.463 M 491.511 193.238 L 494.877 196.605 L 517.649 196.605 L 521.016 193.238 M 491.511 170.463 L 494.877 167.096 L 517.649 167.096 L 521.016 170.463 M 521.016 193.238 L 521.016 170.463 M 521.016 193.238 L 524.382 196.605 L 547.159 196.605 L 550.525 193.238 L 550.525 170.463 L 547.159 167.096 L 524.382 167.096 L 521.016 170.463 M 521.016 140.958 L 524.382 137.592 L 547.159 137.592 L 550.525 140.958 L 550.525 163.734 L 547.159 167.101 L 524.382 167.101 L 521.016 163.734 M 521.016 140.958 L 521.016 163.734 M 521.016 140.958 L 517.649 137.592 L 494.877 137.592 L 491.511 140.958 M 521.016 163.734 L 517.649 167.101 L 494.877 167.101 L 491.511 163.734 M 491.511 140.958 L 491.511 163.734 M 491.511 140.958 L 488.144 137.592 L 465.372 137.592 L 462.006 140.958 M 491.511 163.734 L 488.144 167.101 L 465.372 167.101 L 462.006 163.734 M 462.006 140.958 L 462.006 163.734 M 462.006 140.958 L 458.639 137.592 L 435.868 137.592 L 432.501 140.958 L 432.501 163.734 L 435.868 167.101 L 458.639 167.101 L 462.006 163.734 M 406.363 226.1 L 402.996 222.733 L 402.996 199.962 L 406.363 196.596 L 406.367 196.596 L 429.139 196.596 L 432.505 199.962 L 432.505 222.733 L 429.139 226.1 M 406.363 226.1 L 429.139 226.1 M 406.363 226.1 L 402.996 229.466 L 402.996 252.237 L 406.363 255.604 L 429.139 255.604 L 432.505 252.237 L 432.505 229.466 L 429.139 226.1 M 406.363 226.1 L 406.367 226.1 L 429.139 226.1 M 435.868 226.1 L 432.501 222.733 L 432.501 199.962 L 435.868 196.596 L 458.639 196.596 L 462.006 199.962 M 435.868 226.1 L 458.639 226.1 M 435.868 226.1 L 432.501 229.466 L 432.501 252.237 L 435.868 255.604 L 458.639 255.604 L 462.006 252.237 M 458.639 226.1 L 462.006 222.733 M 458.639 226.1 L 462.006 229.466 M 462.006 222.733 L 462.006 199.962 M 462.006 222.733 L 465.372 226.1 M 462.006 199.962 L 465.372 196.596 L 488.144 196.596 L 491.511 199.962 M 465.372 226.1 L 488.144 226.1 M 465.372 226.1 L 462.006 229.466 M 488.144 226.1 L 491.511 222.733 M 488.144 226.1 L 491.511 229.466 M 491.511 222.733 L 491.511 199.962 M 491.511 222.733 L 494.877 226.1 M 491.511 199.962 L 494.877 196.596 L 517.649 196.596 L 521.016 199.962 M 494.877 226.1 L 517.649 226.1 M 494.877 226.1 L 491.511 229.466 M 517.649 226.1 L 521.016 222.733 M 517.649 226.1 L 521.016 229.466 M 521.016 222.733 L 521.016 199.962 M 521.016 222.733 L 524.382 226.1 M 521.016 199.962 L 524.382 196.596 L 547.159 196.596 L 550.525 199.962 L 550.525 222.733 L 547.159 226.1 M 524.382 226.1 L 547.159 226.1 M 524.382 226.1 L 521.016 229.466 M 547.159 226.1 L 550.525 229.466 L 550.525 252.237 L 547.159 255.604 L 524.382 255.604 L 521.016 252.237 M 553.887 226.1 L 550.521 222.733 L 550.521 199.962 L 553.887 196.596 L 576.664 196.596 L 580.026 199.962 L 580.026 222.733 L 576.664 226.1 M 553.887 226.1 L 576.664 226.1 M 553.887 226.1 L 550.521 229.466 L 550.521 252.237 L 553.887 255.604 L 576.664 255.604 L 580.026 252.237 L 580.026 229.466 L 576.664 226.1 M 521.016 229.466 L 521.016 252.237 M 521.016 252.237 L 517.649 255.604 L 494.877 255.604 L 491.511 252.237 M 491.511 229.466 L 491.511 252.237 M 491.511 252.237 L 488.144 255.604 L 465.372 255.604 L 462.006 252.237 M 462.006 229.466 L 462.006 252.237 M 583.383 226.1 L 580.016 229.466 L 580.016 252.237 L 583.383 255.604 L 606.159 255.604 L 609.526 252.237 L 609.526 229.466 L 606.159 226.1 M 583.383 226.1 L 606.159 226.1 M 583.383 226.1 L 580.016 222.733 L 580.016 199.962 L 583.383 196.596 L 606.159 196.596 L 609.526 199.962 L 609.526 222.733 L 606.159 226.1 M 612.888 226.1 L 609.521 229.466 L 609.521 252.237 L 612.888 255.604 L 635.659 255.604 L 639.026 252.237 M 612.888 226.1 L 635.659 226.1 M 612.888 226.1 L 609.521 222.733 L 609.521 199.962 L 612.888 196.596 L 635.659 196.596 L 639.026 199.962 M 639.026 252.237 L 639.026 229.466 M 639.026 252.237 L 642.393 255.604 L 665.169 255.604 L 668.536 252.237 L 668.536 229.466 L 665.169 226.1 M 639.026 229.466 L 635.659 226.1 M 639.026 229.466 L 642.393 226.1 M 635.659 226.1 L 639.026 222.733 M 642.393 226.1 L 665.169 226.1 M 642.393 226.1 L 639.026 222.733 M 665.169 226.1 L 668.536 222.733 L 668.536 199.962 L 665.169 196.596 L 642.393 196.596 L 639.026 199.962 M 671.898 226.1 L 668.531 229.466 L 668.531 252.237 L 671.898 255.604 L 694.674 255.604 L 698.041 252.237 L 698.041 229.466 L 694.674 226.1 M 671.898 226.1 L 694.674 226.1 M 671.898 226.1 L 668.531 222.733 L 668.531 199.962 L 671.898 196.596 L 694.674 196.596 L 698.041 199.962 L 698.041 222.733 L 694.674 226.1 M 701.403 226.1 L 698.036 229.466 L 698.036 252.237 L 701.403 255.604 L 724.174 255.604 L 727.541 252.237 M 701.403 226.1 L 724.174 226.1 M 701.403 226.1 L 698.036 222.733 L 698.036 199.962 L 701.403 196.596 L 724.174 196.596 L 727.541 199.962 M 727.541 252.237 L 727.541 229.466 M 727.541 252.237 L 730.908 255.604 L 753.684 255.604 L 757.051 252.237 L 757.051 229.466 L 753.684 226.1 M 727.541 229.466 L 724.174 226.1 M 727.541 229.466 L 730.908 226.1 M 724.174 226.1 L 727.541 222.733 M 730.908 226.1 L 753.684 226.1 M 730.908 226.1 L 727.541 222.733 M 753.684 226.1 L 757.051 222.733 L 757.051 199.962 L 753.684 196.596 L 730.908 196.596 L 727.541 199.962 M 727.541 199.962 L 727.541 222.733 M 639.026 199.962 L 639.026 222.733 M 639.026 163.734 L 635.659 167.101 L 612.888 167.101 L 609.521 163.734 L 609.521 140.958 L 612.888 137.592 L 635.659 137.592 L 639.026 140.958 M 639.026 163.734 L 639.026 140.958 M 639.026 163.734 L 642.393 167.101 L 665.169 167.101 L 668.536 163.734 L 668.536 140.958 L 665.169 137.592 L 642.393 137.592 L 639.026 140.958 M 639.026 170.463 L 642.393 167.096 L 665.169 167.096 L 668.536 170.463 L 668.536 193.238 L 665.169 196.605 L 642.393 196.605 L 639.026 193.238 M 639.026 170.463 L 639.026 193.238 M 639.026 170.463 L 635.659 167.096 L 612.888 167.096 L 609.521 170.463 L 609.521 193.238 L 612.888 196.605 L 635.659 196.605 L 639.026 193.238 M 639.022 111.459 L 642.388 108.092 L 665.164 108.092 L 668.531 111.459 L 668.531 134.234 L 665.164 137.601 L 642.388 137.601 L 639.022 134.234 M 639.022 111.459 L 639.022 134.234 M 639.022 111.459 L 635.655 108.092 L 612.883 108.092 L 609.517 111.459 L 609.517 134.234 L 612.883 137.601 L 635.655 137.601 L 639.022 134.234 M 583.378 344.117 L 580.012 347.484 L 580.012 370.259 L 583.378 373.626 L 606.155 373.626 L 609.521 370.259 L 609.521 347.484 L 606.155 344.117 M 583.378 344.117 L 606.155 344.117 M 583.378 344.117 L 580.012 340.75 L 580.012 317.975 L 583.378 314.613 L 606.155 314.613 L 609.521 317.975 L 609.521 340.75 L 606.155 344.117 M 612.883 344.117 L 609.517 347.484 L 609.517 370.259 L 612.883 373.626 L 635.655 373.626 L 639.022 370.259 M 612.883 344.117 L 635.655 344.117 M 612.883 344.117 L 609.517 340.75 L 609.517 317.975 L 612.883 314.613 L 635.655 314.613 L 639.022 317.975 M 639.022 370.259 L 639.022 347.484 M 639.022 370.259 L 642.388 373.626 L 665.164 373.626 L 668.531 370.259 L 668.531 347.484 L 665.164 344.117 M 639.022 347.484 L 635.655 344.117 M 639.022 347.484 L 642.388 344.117 M 635.655 344.117 L 639.022 340.75 M 642.388 344.117 L 665.164 344.117 M 642.388 344.117 L 639.022 340.75 M 665.164 344.117 L 668.531 340.75 L 668.531 317.975 L 665.164 314.613 L 642.388 314.613 L 639.022 317.975 M 671.893 344.117 L 668.527 347.484 L 668.527 370.259 L 671.893 373.626 L 694.669 373.626 L 698.036 370.259 L 698.036 347.484 L 694.669 344.117 M 671.893 344.117 L 694.669 344.117 M 671.893 344.117 L 668.527 340.75 L 668.527 317.975 L 671.893 314.613 L 694.669 314.613 L 698.036 317.975 L 698.036 340.75 L 694.669 344.117 M 701.398 344.117 L 698.032 347.484 L 698.032 370.259 L 701.398 373.626 L 724.17 373.626 L 727.537 370.259 L 727.537 347.484 L 724.17 344.117 M 701.398 344.117 L 724.17 344.117 M 701.398 344.117 L 698.032 340.75 L 698.032 317.975 L 701.398 314.613 L 724.17 314.613 L 727.537 317.975 L 727.537 340.75 L 724.17 344.117 M 639.022 317.975 L 639.022 340.75 M 639.022 281.746 L 635.655 285.113 L 612.883 285.113 L 609.517 281.746 L 609.517 258.971 L 612.883 255.604 L 635.655 255.604 L 639.022 258.971 M 639.022 281.746 L 639.022 258.971 M 639.022 281.746 L 642.388 285.113 L 665.164 285.113 L 668.531 281.746 L 668.531 258.971 L 665.164 255.604 L 642.388 255.604 L 639.022 258.971 M 727.537 281.746 L 724.17 285.113 L 701.398 285.113 L 698.032 281.746 L 698.032 258.971 L 701.398 255.604 L 724.17 255.604 L 727.537 258.971 M 727.537 281.746 L 727.537 258.971 M 727.537 281.746 L 730.903 285.113 L 753.679 285.113 L 757.046 281.746 L 757.046 258.971 L 753.679 255.604 L 730.903 255.604 L 727.537 258.971 M 727.537 288.475 L 730.903 285.108 L 753.679 285.108 L 757.046 288.475 L 757.046 311.251 L 753.679 314.617 L 730.903 314.617 L 727.537 311.251 M 727.537 288.475 L 727.537 311.251 M 727.537 288.475 L 724.17 285.108 L 701.398 285.108 L 698.032 288.475 L 698.032 311.251 L 701.398 314.617 L 724.17 314.617 L 727.537 311.251 M 639.022 288.475 L 642.388 285.108 L 665.164 285.108 L 668.531 288.475 L 668.531 311.251 L 665.164 314.617 L 642.388 314.617 L 639.022 311.251 M 639.022 288.475 L 639.022 311.251 M 639.022 288.475 L 635.655 285.108 L 612.883 285.108 L 609.517 288.475 L 609.517 311.251 L 612.883 314.617 L 635.655 314.617 L 639.022 311.251 M 639.022 429.263 L 635.655 432.63 L 612.883 432.63 L 609.517 429.263 L 609.517 406.487 L 612.883 403.121 L 635.655 403.121 L 639.022 406.487 M 639.022 429.263 L 639.022 406.487 M 639.022 429.263 L 642.388 432.63 L 665.164 432.63 L 668.531 429.263 L 668.531 406.487 L 665.164 403.121 L 642.388 403.121 L 639.022 406.487 M 639.022 376.983 L 642.388 373.617 L 665.164 373.617 L 668.531 376.983 L 668.531 399.759 L 665.164 403.125 L 642.388 403.125 L 639.022 399.759 M 639.022 376.983 L 639.022 399.759 M 639.022 376.983 L 635.655 373.617 L 612.883 373.617 L 609.517 376.983 L 609.517 399.759 L 612.883 403.125 L 635.655 403.125 L 639.022 399.759 M 393.27 314.608 L 399.634 314.608 L 403 311.241 L 403 288.466 L 399.634 285.099 L 386.597 285.099 L 399.638 285.099 L 403.005 281.732 L 403.005 258.957 L 399.638 255.59 L 384.551 255.59 M 386.991 226.086 L 399.634 226.086 L 403 222.719 L 403 199.948 L 399.634 196.581 L 394.089 196.581 M 384.551 255.604 L 399.638 255.604 L 403.005 252.237 L 403.005 229.466 L 399.638 226.1 L 386.991 226.1 M 580.021 452.132 L 580.021 435.987 L 576.659 432.62 L 553.883 432.62 L 550.516 435.987 M 550.516 435.987 L 550.516 449.927 M 550.516 435.987 L 547.149 432.62 L 524.373 432.62 L 521.006 435.987 L 521.006 443.081 M 609.517 449.857 L 609.517 435.987 L 606.15 432.62 L 583.374 432.62 L 580.007 435.987 L 580.007 452.132 M 639.012 442.927 L 639.012 435.987 L 635.645 432.62 L 612.874 432.62 L 609.507 435.987 L 609.507 449.857 M 772.56 226.104 L 760.39 226.104 L 757.023 229.471 L 757.023 252.242 L 760.39 255.609 L 774.999 255.609 M 765.456 196.605 L 760.385 196.605 L 757.018 199.972 L 757.018 222.742 L 760.385 226.109 L 772.555 226.109 M 774.995 255.613 L 760.385 255.613 L 757.018 258.98 L 757.018 281.756 L 760.385 285.122 M 760.385 285.122 L 772.953 285.122 M 760.385 285.122 L 757.018 288.489 L 757.018 311.265 L 760.385 314.631 L 766.276 314.631 M 580.026 75.2211 L 580.026 61.6653 M 580.026 75.2211 L 583.392 78.5878 L 606.169 78.5878 L 609.535 75.2211 M 609.535 75.2211 L 609.535 63.9456 M 609.535 75.2211 L 612.902 78.5878 L 635.674 78.5878 L 639.04 75.2211 L 639.04 70.871 M 521.025 70.7212 L 521.025 75.2211 L 524.392 78.5878 L 547.168 78.5878 L 550.535 75.2211 L 550.535 63.8707 M 639.045 70.871 L 639.045 75.2211 L 642.412 78.5878 M 642.412 78.5878 L 659.307 78.5878 M 642.412 78.5878 L 639.045 81.9498 L 639.045 104.725 L 642.412 108.092 L 665.188 108.092 L 668.555 104.725 M 668.555 104.725 L 668.555 83.0033 M 668.555 104.725 L 671.921 108.092 L 694.698 108.092 L 698.064 104.725 L 698.064 101.551 M 706.193 108.092 L 701.426 108.092 L 698.06 111.459 L 698.06 134.234 L 701.426 137.601 L 724.198 137.601 L 727.565 134.234 M 727.565 134.234 L 727.565 129.29 M 727.565 134.234 L 730.931 137.601 L 734.354 137.601 M 698.06 101.555 L 698.06 104.73 L 701.426 108.097 L 706.193 108.097 M 757.07 175.07 L 757.07 193.238 L 760.436 196.605 L 765.508 196.605 M 734.359 137.601 L 730.936 137.601 L 727.569 140.968 L 727.569 163.743 L 730.936 167.11 M 730.936 167.11 L 753.174 167.11 M 730.936 167.11 L 727.569 170.477 L 727.569 193.252 L 730.936 196.619 L 753.712 196.619 L 757.079 193.252 L 757.079 175.084 M 766.336 314.631 L 760.446 314.631 L 757.079 317.993 M 757.079 317.993 L 757.079 338.755 M 757.079 317.993 L 753.712 314.631 L 730.936 314.631 L 727.569 317.993 L 727.569 340.769 L 730.936 344.136 M 730.936 344.136 L 753.712 344.136 M 730.936 344.136 L 727.569 347.502 L 727.569 370.278 L 730.936 373.645 M 753.712 344.136 L 755.257 342.59 M 753.712 344.136 L 754.232 344.655 M 730.936 373.645 L 736.326 373.645 M 730.936 373.645 L 727.569 377.011 M 727.569 377.011 L 727.569 384.545 M 727.569 377.011 L 724.203 373.645 L 701.431 373.645 L 698.064 377.011 L 698.064 399.787 L 701.431 403.154 M 701.431 403.154 L 709.185 403.154 M 701.431 403.154 L 698.064 406.52 L 698.064 412.284 M 665.197 432.658 L 642.421 432.658 L 639.054 436.025 L 639.054 442.964 M 698.06 412.284 L 698.06 406.52 L 694.693 403.154 L 671.917 403.154 L 668.55 406.52 L 668.55 429.296 L 669.566 430.312 M 450.43 403.158 L 458.658 403.158 L 462.024 399.792 L 462.024 377.016 L 458.658 373.649 L 435.886 373.649 L 432.519 377.016 L 432.519 385.098 M 521.03 443.114 L 521.03 436.02 L 517.663 432.653 L 494.892 432.653 L 494.835 432.709 M 462.024 412.64 L 462.024 406.516 L 458.658 403.149 L 450.43 403.149 M 490.349 430.466 L 491.529 429.286 L 491.529 406.511 L 488.163 403.144 L 465.391 403.144 L 462.024 406.511 L 462.024 412.636 M 432.519 385.089 L 432.519 377.007 L 429.153 373.64 M 429.153 373.64 L 423.29 373.64 M 429.153 373.64 L 432.519 370.273 L 432.519 347.498 L 429.153 344.131 L 406.367 344.131 L 405.529 344.969 M 403.899 341.668 L 406.363 344.136 L 429.139 344.136 L 432.505 340.769 L 432.505 317.993 L 429.139 314.631 L 406.367 314.631 L 403 317.993 M 403 317.993 L 403 339.776 M 403 317.993 L 399.634 314.631 L 393.27 314.631 M 500.281 78.5878 L 517.649 78.5878 L 521.016 75.2211 L 521.016 70.7212 M 462.01 101.19 L 462.01 104.725 L 465.377 108.092 L 488.149 108.092 L 491.515 104.725 M 491.515 104.725 L 491.515 82.7598 M 491.515 104.725 L 494.882 108.092 L 517.654 108.092 L 521.02 104.725 L 521.02 81.9498 L 517.654 78.5878 L 500.286 78.5878 M 432.505 128.737 L 432.505 134.23 L 435.872 137.596 L 458.644 137.596 L 462.01 134.23 L 462.01 111.454 L 458.644 108.087 M 458.644 108.087 L 453.404 108.087 M 458.644 108.087 L 462.01 104.721 L 462.01 101.185 M 425.247 137.587 L 429.143 137.587 L 432.51 134.22 L 432.51 128.728 M 403.005 174.035 L 403.005 193.224 L 406.372 196.591 L 429.148 196.591 L 432.515 193.224 L 432.515 170.449 L 429.148 167.082 L 406.367 167.082 L 429.143 167.082 L 432.51 163.715 L 432.51 140.94 L 429.143 137.573 L 425.247 137.573 M 394.094 196.596 L 399.638 196.596 L 403.005 193.229 L 403.005 174.04 M 553.887 373.617 L 550.521 376.983 L 550.521 399.759 L 553.887 403.125 L 576.664 403.125 L 580.026 399.759 L 580.026 376.983 L 576.664 373.617 L 553.887 373.617 Z M 553.887 403.121 L 550.521 406.487 L 550.521 429.263 L 553.887 432.63 L 576.664 432.63 L 580.026 429.263 L 580.026 406.487 L 576.664 403.121 L 553.887 403.121 Z M 406.367 285.108 L 403 288.475 L 403 311.251 L 406.367 314.617 L 429.143 314.617 L 432.51 311.251 L 432.51 288.475 L 429.143 285.108 L 406.367 285.108 Z M 553.892 285.108 L 550.525 288.475 L 550.525 311.251 L 553.892 314.617 L 576.668 314.617 L 580.03 311.251 L 580.03 288.475 L 576.668 285.108 L 553.892 285.108 Z M 553.892 255.604 L 550.525 258.971 L 550.525 281.746 L 553.892 285.113 L 576.668 285.113 L 580.03 281.746 L 580.03 258.971 L 576.668 255.604 L 553.892 255.604 Z M 406.367 255.604 L 403 258.971 L 403 281.746 L 406.367 285.113 L 429.143 285.113 L 432.51 281.746 L 432.51 258.971 L 429.143 255.604 L 406.367 255.604 Z M 553.887 167.096 L 550.521 170.463 L 550.521 193.238 L 553.887 196.605 L 576.664 196.605 L 580.026 193.238 L 580.026 170.463 L 576.664 167.096 L 553.887 167.096 Z M 553.887 137.592 L 550.521 140.958 L 550.521 163.734 L 553.887 167.101 L 576.664 167.101 L 580.026 163.734 L 580.026 140.958 L 576.664 137.592 L 553.887 137.592 Z M 583.383 137.592 L 580.016 140.958 L 580.016 163.734 L 583.383 167.101 L 606.159 167.101 L 609.526 163.734 L 609.526 140.958 L 606.159 137.592 L 583.383 137.592 Z M 671.898 137.592 L 668.531 140.958 L 668.531 163.734 L 671.898 167.101 L 694.674 167.101 L 698.041 163.734 L 698.041 140.958 L 694.674 137.592 L 671.898 137.592 Z M 701.403 137.592 L 698.036 140.958 L 698.036 163.734 L 701.403 167.101 L 724.174 167.101 L 727.541 163.734 L 727.541 140.958 L 724.174 137.592 L 701.403 137.592 Z M 701.403 167.096 L 698.036 170.463 L 698.036 193.238 L 701.403 196.605 L 724.174 196.605 L 727.541 193.238 L 727.541 170.463 L 724.174 167.096 L 701.403 167.096 Z M 671.898 167.096 L 668.531 170.463 L 668.531 193.238 L 671.898 196.605 L 694.674 196.605 L 698.041 193.238 L 698.041 170.463 L 694.674 167.096 L 671.898 167.096 Z M 583.383 167.096 L 580.016 170.463 L 580.016 193.238 L 583.383 196.605 L 606.159 196.605 L 609.526 193.238 L 609.526 170.463 L 606.159 167.096 L 583.383 167.096 Z M 583.383 78.5878 L 580.016 81.9498 L 580.016 104.725 L 583.383 108.092 L 606.159 108.092 L 609.526 104.725 L 609.526 81.9498 L 606.159 78.5878 L 583.383 78.5878 Z M 612.888 78.5878 L 609.521 81.9498 L 609.521 104.725 L 612.888 108.092 L 635.659 108.092 L 639.026 104.725 L 639.026 81.9498 L 635.659 78.5878 L 612.888 78.5878 Z M 671.893 108.092 L 668.527 111.459 L 668.527 134.234 L 671.893 137.601 L 694.669 137.601 L 698.036 134.234 L 698.036 111.459 L 694.669 108.092 L 671.893 108.092 Z M 583.378 108.092 L 580.012 111.459 L 580.012 134.234 L 583.378 137.601 L 606.155 137.601 L 609.521 134.234 L 609.521 111.459 L 606.155 108.092 L 583.378 108.092 Z M 583.378 255.604 L 580.012 258.971 L 580.012 281.746 L 583.378 285.113 L 606.155 285.113 L 609.521 281.746 L 609.521 258.971 L 606.155 255.604 L 583.378 255.604 Z M 671.893 255.604 L 668.527 258.971 L 668.527 281.746 L 671.893 285.113 L 694.669 285.113 L 698.036 281.746 L 698.036 258.971 L 694.669 255.604 L 671.893 255.604 Z M 671.893 285.108 L 668.527 288.475 L 668.527 311.251 L 671.893 314.617 L 694.669 314.617 L 698.036 311.251 L 698.036 288.475 L 694.669 285.108 L 671.893 285.108 Z M 583.378 285.108 L 580.012 288.475 L 580.012 311.251 L 583.378 314.617 L 606.155 314.617 L 609.521 311.251 L 609.521 288.475 L 606.155 285.108 L 583.378 285.108 Z M 583.378 403.121 L 580.012 406.487 L 580.012 429.263 L 583.378 432.63 L 606.155 432.63 L 609.521 429.263 L 609.521 406.487 L 606.155 403.121 L 583.378 403.121 Z M 671.893 373.617 L 668.527 376.983 L 668.527 399.759 L 671.893 403.125 L 694.669 403.125 L 698.036 399.759 L 698.036 376.983 L 694.669 373.617 L 671.893 373.617 Z M 583.378 373.617 L 580.012 376.983 L 580.012 399.759 L 583.378 403.125 L 606.155 403.125 L 609.521 399.759 L 609.521 376.983 L 606.155 373.617 L 583.378 373.617 Z" stroke-linecap="round" />
</g>
		<g transform="matrix(1 0 0 1 -70.89385 0.94775)" id="I9hpvUSBDxjlBOR9RYUlh"  >
<path style="stroke: rgb(0,45,202); stroke-width: 1; stroke-dasharray: 2 2; stroke-linecap: butt; stroke-dashoffset: 0; stroke-linejoin: miter; stroke-miterlimit: 4; fill: none; fill-rule: nonzero; opacity: 1;"  transform=" translate(-317.10615, -335.94775)" d="M 247.947 55.6701 L 302.332 116.479 M 302.332 116.479 L 95.4963 11.9905 L 110.913 169.151 L 384.5 504 L 538.716 597.811 L 180.714 582.823 L 360.143 659.905 L 302.332 116.479 Z" stroke-linecap="round" />
</g>
		<g transform="matrix(1 0 0 1 -289.935 134.77)" id="tk0E1eQtBh1v-dCIy-gQi"  >
<path style="stroke: rgb(244,108,0); stroke-width: 2; stroke-dasharray: none; stroke-linecap: butt; stroke-dashoffset: 0; stroke-linejoin: miter; stroke-miterlimit: 4; fill: rgb(255,255,255); fill-rule: nonzero; opacity: 1;"  transform=" translate(-97.065, -15.701)" d="M 0 31.402 L 0 0 L 194.13 0 L 194.13 31.402 z" stroke-linecap="round" />
</g>
		<g transform="matrix(1 0 0 1 -311.3465 -234.3657)" id="1rIVCqo3BK2HrXtal9uwq"  >
<path style="stroke: rgb(244,108,0); stroke-width: 2; stroke-dasharray: none; stroke-linecap: butt; stroke-dashoffset: 0; stroke-linejoin: miter; stroke-miterlimit: 4; fill: rgb(255,255,255); fill-rule: nonzero; opacity: 1;"  transform=" translate(-75.6535, -15.701)" d="M 0 31.402 L 0 0 L 151.307 0 L 151.307 31.402 z" stroke-linecap="round" />
</g>
		<g transform="matrix(1 0 0 1 -290.0022 135.357)" id="_Xtv6GscKqZN0HFkwhV2T"  >
<path style="stroke: none; stroke-width: 1; stroke-dasharray: none; stroke-linecap: butt; stroke-dashoffset: 0; stroke-linejoin: miter; stroke-miterlimit: 4; fill: rgb(227,87,13); fill-rule: nonzero; opacity: 1;"  transform=" translate(-97.9978, -470.357)" d="M 32.5976 467.237 C 32.2376 465.317 30.8456 462.989 27.3416 462.989 C 23.1896 462.989 21.2696 466.517 21.2696 470.357 C 21.2696 474.197 23.2136 477.701 27.3176 477.701 C 30.9656 477.701 32.4776 475.205 32.6696 472.829 L 34.4936 472.829 C 34.0616 476.573 31.4216 479.237 27.3176 479.237 C 22.6616 479.237 19.4696 475.565 19.4696 470.357 C 19.4696 465.173 22.6616 461.453 27.3416 461.453 C 31.3496 461.453 33.9656 464.021 34.4216 467.237 L 32.5976 467.237 Z M 42.147 479.261 C 38.475 479.261 36.267 476.621 36.267 472.829 C 36.267 469.013 38.475 466.373 42.147 466.373 C 45.795 466.373 48.027 469.013 48.027 472.829 C 48.027 476.621 45.795 479.261 42.147 479.261 Z M 42.147 477.893 C 45.003 477.893 46.395 475.637 46.395 472.829 C 46.395 469.997 45.003 467.741 42.147 467.741 C 39.267 467.741 37.899 469.997 37.899 472.829 C 37.899 475.637 39.267 477.893 42.147 477.893 Z M 50.1789 478.925 L 50.1789 466.685 L 51.7389 466.685 L 51.7389 468.413 L 51.7869 468.413 C 52.4109 467.429 53.5629 466.397 55.4829 466.397 C 57.2109 466.397 58.3149 467.189 58.7949 468.653 L 58.8429 468.653 C 59.6349 467.429 60.9549 466.397 62.8749 466.397 C 65.2269 466.397 66.4989 467.789 66.4989 470.333 L 66.4989 478.925 L 64.9389 478.925 L 64.9389 470.669 C 64.9389 469.133 64.5549 467.765 62.5389 467.765 C 60.4029 467.765 59.1069 469.421 59.1069 471.197 L 59.1069 478.925 L 57.5469 478.925 L 57.5469 470.669 C 57.5469 469.133 57.1869 467.765 55.1469 467.765 C 53.0109 467.765 51.7389 469.421 51.7389 471.197 L 51.7389 478.925 L 50.1789 478.925 Z M 69.2102 478.925 L 69.2102 466.685 L 70.7702 466.685 L 70.7702 468.413 L 70.8182 468.413 C 71.4422 467.429 72.5942 466.397 74.5142 466.397 C 76.2422 466.397 77.3462 467.189 77.8262 468.653 L 77.8742 468.653 C 78.6662 467.429 79.9862 466.397 81.9062 466.397 C 84.2582 466.397 85.5302 467.789 85.5302 470.333 L 85.5302 478.925 L 83.9702 478.925 L 83.9702 470.669 C 83.9702 469.133 83.5862 467.765 81.5702 467.765 C 79.4342 467.765 78.1382 469.421 78.1382 471.197 L 78.1382 478.925 L 76.5782 478.925 L 76.5782 470.669 C 76.5782 469.133 76.2182 467.765 74.1782 467.765 C 72.0422 467.765 70.7702 469.421 70.7702 471.197 L 70.7702 478.925 L 69.2102 478.925 Z M 89.7986 474.941 C 89.7986 476.501 90.4946 477.845 92.6306 477.845 C 94.9346 477.845 96.4706 476.213 96.4706 474.413 L 96.4706 466.685 L 98.0306 466.685 L 98.0306 478.925 L 96.4706 478.925 L 96.4706 477.197 L 96.4226 477.197 C 95.7506 478.205 94.4306 479.213 92.2466 479.213 C 90.0386 479.213 88.2386 477.989 88.2386 475.277 L 88.2386 466.685 L 89.7986 466.685 L 89.7986 474.941 Z M 100.874 478.925 L 100.874 466.685 L 102.434 466.685 L 102.434 468.437 L 102.482 468.437 C 103.154 467.429 104.474 466.397 106.658 466.397 C 108.842 466.397 110.666 467.621 110.666 470.333 L 110.666 478.925 L 109.106 478.925 L 109.106 470.669 C 109.106 469.109 108.386 467.765 106.274 467.765 C 103.946 467.765 102.434 469.397 102.434 471.197 L 102.434 478.925 L 100.874 478.925 Z M 113.15 462.221 L 115.166 462.221 L 115.166 464.237 L 113.15 464.237 L 113.15 462.221 Z M 113.39 466.685 L 114.95 466.685 L 114.95 478.925 L 113.39 478.925 L 113.39 466.685 Z M 126.56 470.981 C 126.464 469.613 125.48 467.765 122.936 467.765 C 119.936 467.765 118.712 470.309 118.712 472.805 C 118.712 475.325 119.936 477.893 122.936 477.893 C 125.504 477.893 126.464 476.045 126.56 474.557 L 128.192 474.557 C 128.024 477.197 125.912 479.237 122.936 479.237 C 119.432 479.237 117.08 476.645 117.08 472.805 C 117.08 468.989 119.432 466.397 122.936 466.397 C 125.912 466.397 127.904 468.389 128.192 470.981 L 126.56 470.981 Z M 133.696 479.237 C 131.272 479.237 129.688 477.869 129.688 475.829 C 129.688 473.189 131.56 472.373 134.728 471.797 C 136.744 471.437 138.04 471.293 138.04 469.829 C 138.04 468.581 137.248 467.741 135.256 467.741 C 132.904 467.741 132.04 468.581 131.92 470.381 L 130.288 470.381 C 130.408 468.221 131.752 466.373 135.328 466.373 C 137.584 466.373 139.576 467.333 139.576 470.261 L 139.576 476.381 C 139.576 477.365 139.72 477.821 140.248 477.821 C 140.368 477.821 140.44 477.821 140.584 477.797 L 140.584 478.925 C 140.32 478.973 140.056 479.021 139.768 479.021 C 138.76 479.021 138.136 478.613 138.064 477.077 L 138.016 477.077 C 137.152 478.469 135.712 479.237 133.696 479.237 Z M 133.888 477.869 C 136.408 477.869 138.04 476.549 138.04 474.341 L 138.04 472.061 C 137.68 472.565 136.384 472.853 134.92 473.093 C 132.544 473.525 131.32 474.125 131.32 475.685 C 131.32 477.101 132.112 477.869 133.888 477.869 Z M 141.025 466.685 L 142.825 466.685 L 142.825 462.605 L 144.385 462.605 L 144.385 466.685 L 146.881 466.685 L 146.881 468.053 L 144.385 468.053 L 144.385 475.781 C 144.385 477.293 144.745 477.653 145.945 477.653 C 146.329 477.653 146.521 477.629 146.881 477.605 L 146.881 478.925 C 146.401 478.997 146.113 479.021 145.729 479.021 C 143.929 479.021 142.825 478.421 142.825 475.757 L 142.825 468.053 L 141.025 468.053 L 141.025 466.685 Z M 148.892 462.221 L 150.908 462.221 L 150.908 464.237 L 148.892 464.237 L 148.892 462.221 Z M 149.132 466.685 L 150.692 466.685 L 150.692 478.925 L 149.132 478.925 L 149.132 466.685 Z M 158.702 479.261 C 155.03 479.261 152.822 476.621 152.822 472.829 C 152.822 469.013 155.03 466.373 158.702 466.373 C 162.35 466.373 164.582 469.013 164.582 472.829 C 164.582 476.621 162.35 479.261 158.702 479.261 Z M 158.702 477.893 C 161.558 477.893 162.95 475.637 162.95 472.829 C 162.95 469.997 161.558 467.741 158.702 467.741 C 155.822 467.741 154.454 469.997 154.454 472.829 C 154.454 475.637 155.822 477.893 158.702 477.893 Z M 166.734 478.925 L 166.734 466.685 L 168.294 466.685 L 168.294 468.437 L 168.342 468.437 C 169.014 467.429 170.334 466.397 172.518 466.397 C 174.702 466.397 176.526 467.621 176.526 470.333 L 176.526 478.925 L 174.966 478.925 L 174.966 470.669 C 174.966 469.109 174.246 467.765 172.134 467.765 C 169.806 467.765 168.294 469.397 168.294 471.197 L 168.294 478.925 L 166.734 478.925 Z" stroke-linecap="round" />
</g>
		<g transform="matrix(1 0 0 1 -312.2208 -233.6221)" id="W_TGG8dtd5L6qvbTlP1V6"  >
<path style="stroke: none; stroke-width: 1; stroke-dasharray: none; stroke-linecap: butt; stroke-dashoffset: 0; stroke-linejoin: miter; stroke-miterlimit: 4; fill: rgb(227,87,13); fill-rule: nonzero; opacity: 1;"  transform=" translate(-75.7792, -101.3779)" d="M 25.8074 105.038 L 18.0794 105.038 L 16.3514 109.79 L 14.5514 109.79 L 20.9594 92.6298 L 22.9274 92.6298 L 29.4074 109.79 L 27.5114 109.79 L 25.8074 105.038 Z M 18.6554 103.478 L 25.2314 103.478 L 21.9674 94.2858 L 21.9194 94.2858 L 18.6554 103.478 Z M 31.1453 97.5498 L 32.7053 97.5498 L 32.7053 100.046 L 32.7533 100.046 C 33.3533 98.4378 34.4813 97.2618 36.2333 97.2618 C 36.6653 97.2618 36.9773 97.2858 37.2893 97.3338 L 37.2893 98.8698 C 37.0253 98.8218 36.7613 98.7978 36.5453 98.7978 C 34.3133 98.7978 32.7053 100.574 32.7053 102.95 L 32.7053 109.79 L 31.1453 109.79 L 31.1453 97.5498 Z M 47.2681 101.846 C 47.1721 100.478 46.1881 98.6298 43.6441 98.6298 C 40.6441 98.6298 39.4201 101.174 39.4201 103.67 C 39.4201 106.19 40.6441 108.758 43.6441 108.758 C 46.2121 108.758 47.1721 106.91 47.2681 105.422 L 48.9001 105.422 C 48.7321 108.062 46.6201 110.102 43.6441 110.102 C 40.1401 110.102 37.7881 107.51 37.7881 103.67 C 37.7881 99.8538 40.1401 97.2618 43.6441 97.2618 C 46.6201 97.2618 48.6121 99.2538 48.9001 101.846 L 47.2681 101.846 Z M 59.2289 101.534 C 59.2289 99.9738 58.5089 98.6298 56.3969 98.6298 C 54.0689 98.6298 52.5569 100.262 52.5569 102.062 L 52.5569 109.79 L 50.9969 109.79 L 50.9969 92.6298 L 52.5569 92.6298 L 52.5569 99.3018 L 52.6049 99.3018 C 53.2769 98.2938 54.5969 97.2618 56.7809 97.2618 C 58.9649 97.2618 60.7889 98.4858 60.7889 101.198 L 60.7889 109.79 L 59.2289 109.79 L 59.2289 101.534 Z M 63.2725 93.0858 L 65.2885 93.0858 L 65.2885 95.1018 L 63.2725 95.1018 L 63.2725 93.0858 Z M 63.5125 97.5498 L 65.0725 97.5498 L 65.0725 109.79 L 63.5125 109.79 L 63.5125 97.5498 Z M 66.8662 97.5498 L 68.6662 97.5498 L 68.6662 93.4698 L 70.2262 93.4698 L 70.2262 97.5498 L 72.7222 97.5498 L 72.7222 98.9178 L 70.2262 98.9178 L 70.2262 106.646 C 70.2262 108.158 70.5862 108.518 71.7862 108.518 C 72.1702 108.518 72.3622 108.494 72.7222 108.47 L 72.7222 109.79 C 72.2422 109.862 71.9542 109.886 71.5702 109.886 C 69.7702 109.886 68.6662 109.286 68.6662 106.622 L 68.6662 98.9178 L 66.8662 98.9178 L 66.8662 97.5498 Z M 79.5967 110.126 C 75.8527 110.126 73.7647 107.39 73.7647 103.67 C 73.7647 99.7578 76.0687 97.2378 79.5967 97.2378 C 83.1247 97.2378 85.1167 99.7098 85.1167 103.118 C 85.1167 103.454 85.1167 103.79 85.0927 103.982 L 75.3967 103.982 C 75.4207 106.478 76.7407 108.782 79.6207 108.782 C 82.1647 108.782 83.1247 107.054 83.3647 106.046 L 84.9487 106.046 C 84.3487 108.278 82.6687 110.126 79.5967 110.126 Z M 79.5247 98.5818 C 77.1487 98.5818 75.5167 100.334 75.3967 102.614 L 83.4607 102.614 C 83.4607 100.43 82.0447 98.5818 79.5247 98.5818 Z M 96.1822 101.846 C 96.0862 100.478 95.1022 98.6298 92.5582 98.6298 C 89.5582 98.6298 88.3342 101.174 88.3342 103.67 C 88.3342 106.19 89.5582 108.758 92.5582 108.758 C 95.1262 108.758 96.0862 106.91 96.1822 105.422 L 97.8142 105.422 C 97.6462 108.062 95.5342 110.102 92.5582 110.102 C 89.0542 110.102 86.7022 107.51 86.7022 103.67 C 86.7022 99.8538 89.0542 97.2618 92.5582 97.2618 C 95.5342 97.2618 97.5262 99.2538 97.8142 101.846 L 96.1822 101.846 Z M 98.7177 97.5498 L 100.518 97.5498 L 100.518 93.4698 L 102.078 93.4698 L 102.078 97.5498 L 104.574 97.5498 L 104.574 98.9178 L 102.078 98.9178 L 102.078 106.646 C 102.078 108.158 102.438 108.518 103.638 108.518 C 104.022 108.518 104.214 108.494 104.574 108.47 L 104.574 109.79 C 104.094 109.862 103.806 109.886 103.422 109.886 C 101.622 109.886 100.518 109.286 100.518 106.622 L 100.518 98.9178 L 98.7177 98.9178 L 98.7177 97.5498 Z M 107.937 105.806 C 107.937 107.366 108.633 108.71 110.769 108.71 C 113.073 108.71 114.609 107.078 114.609 105.278 L 114.609 97.5498 L 116.169 97.5498 L 116.169 109.79 L 114.609 109.79 L 114.609 108.062 L 114.561 108.062 C 113.889 109.07 112.569 110.078 110.385 110.078 C 108.177 110.078 106.377 108.854 106.377 106.142 L 106.377 97.5498 L 107.937 97.5498 L 107.937 105.806 Z M 119.013 97.5498 L 120.573 97.5498 L 120.573 100.046 L 120.621 100.046 C 121.221 98.4378 122.349 97.2618 124.101 97.2618 C 124.533 97.2618 124.845 97.2858 125.157 97.3338 L 125.157 98.8698 C 124.893 98.8218 124.629 98.7978 124.413 98.7978 C 122.181 98.7978 120.573 100.574 120.573 102.95 L 120.573 109.79 L 119.013 109.79 L 119.013 97.5498 Z M 131.487 110.126 C 127.743 110.126 125.655 107.39 125.655 103.67 C 125.655 99.7578 127.959 97.2378 131.487 97.2378 C 135.015 97.2378 137.007 99.7098 137.007 103.118 C 137.007 103.454 137.007 103.79 136.983 103.982 L 127.287 103.982 C 127.311 106.478 128.631 108.782 131.511 108.782 C 134.055 108.782 135.015 107.054 135.255 106.046 L 136.839 106.046 C 136.239 108.278 134.559 110.126 131.487 110.126 Z M 131.415 98.5818 C 129.039 98.5818 127.407 100.334 127.287 102.614 L 135.351 102.614 C 135.351 100.43 133.935 98.5818 131.415 98.5818 Z" stroke-linecap="round" />
</g>
		<g transform="matrix(1 0 0 1 48.915 170.392)" id="BT0GPj6XhiyD5rHdz-c8x"  >
<path style="stroke: none; stroke-width: 1; stroke-dasharray: none; stroke-linecap: butt; stroke-dashoffset: 0; stroke-linejoin: miter; stroke-miterlimit: 4; fill: rgb(227,87,13); fill-rule: nonzero; opacity: 1;"  transform=" translate(-436.915, -505.392)" d="M 396.367 503.208 L 395.151 503.208 C 395.151 501.224 396.463 499.736 399.087 499.736 C 400.911 499.736 402.527 500.824 402.527 502.728 C 402.527 503.96 401.903 504.696 400.799 505.144 L 400.799 505.176 C 402.271 505.64 402.927 506.632 402.927 507.944 C 402.927 510.024 401.407 511.208 399.103 511.208 C 396.415 511.208 394.847 509.752 394.847 507.304 L 396.063 507.304 C 396.063 509 396.911 510.184 399.039 510.184 C 400.943 510.184 401.711 509.32 401.711 507.944 C 401.711 506.264 400.431 505.736 399.311 505.736 L 398.111 505.736 L 398.111 504.712 L 399.247 504.712 C 400.431 504.712 401.311 504.056 401.311 502.728 C 401.311 501.736 400.671 500.76 399.087 500.76 C 396.863 500.76 396.367 502.024 396.367 503.208 Z M 404.672 511 L 404.672 499.56 L 408.8 499.56 C 412 499.56 413.776 501.768 413.776 505.304 C 413.776 508.84 411.968 511 408.768 511 L 404.672 511 Z M 405.84 500.584 L 405.84 509.976 L 408.768 509.976 C 411.632 509.976 412.56 507.832 412.56 505.304 C 412.56 502.76 411.664 500.584 408.8 500.584 L 405.84 500.584 Z M 418.431 502.84 L 419.583 502.84 L 422.031 509.944 L 422.047 509.944 L 424.479 502.84 L 425.599 502.84 L 422.607 511 L 421.423 511 L 418.431 502.84 Z M 426.492 499.864 L 427.836 499.864 L 427.836 501.208 L 426.492 501.208 L 426.492 499.864 Z M 426.652 502.84 L 427.692 502.84 L 427.692 511 L 426.652 511 L 426.652 502.84 Z M 432.76 506.248 C 434.296 506.616 435.8 507.048 435.8 508.744 C 435.8 510.232 434.616 511.208 432.6 511.208 C 430.328 511.208 429.064 509.96 429.016 508.328 L 430.12 508.328 C 430.184 509.448 430.904 510.296 432.616 510.296 C 434.184 510.296 434.712 509.576 434.712 508.776 C 434.712 507.576 433.496 507.448 432.36 507.176 C 430.856 506.808 429.336 506.424 429.336 504.84 C 429.336 503.512 430.392 502.648 432.232 502.648 C 434.344 502.648 435.352 503.784 435.496 505.128 L 434.392 505.128 C 434.248 504.408 433.832 503.56 432.232 503.56 C 431.064 503.56 430.424 504.008 430.424 504.776 C 430.424 505.8 431.512 505.928 432.76 506.248 Z M 438.097 508.344 C 438.097 509.384 438.561 510.28 439.985 510.28 C 441.521 510.28 442.545 509.192 442.545 507.992 L 442.545 502.84 L 443.585 502.84 L 443.585 511 L 442.545 511 L 442.545 509.848 L 442.513 509.848 C 442.065 510.52 441.185 511.192 439.729 511.192 C 438.257 511.192 437.057 510.376 437.057 508.568 L 437.057 502.84 L 438.097 502.84 L 438.097 508.344 Z M 447.674 511.208 C 446.058 511.208 445.002 510.296 445.002 508.936 C 445.002 507.176 446.25 506.632 448.362 506.248 C 449.706 506.008 450.57 505.912 450.57 504.936 C 450.57 504.104 450.042 503.544 448.714 503.544 C 447.146 503.544 446.57 504.104 446.49 505.304 L 445.402 505.304 C 445.482 503.864 446.378 502.632 448.762 502.632 C 450.266 502.632 451.594 503.272 451.594 505.224 L 451.594 509.304 C 451.594 509.96 451.69 510.264 452.042 510.264 C 452.122 510.264 452.17 510.264 452.266 510.248 L 452.266 511 C 452.09 511.032 451.914 511.064 451.722 511.064 C 451.05 511.064 450.634 510.792 450.586 509.768 L 450.554 509.768 C 449.978 510.696 449.018 511.208 447.674 511.208 Z M 447.802 510.296 C 449.482 510.296 450.57 509.416 450.57 507.944 L 450.57 506.424 C 450.33 506.76 449.466 506.952 448.49 507.112 C 446.906 507.4 446.09 507.8 446.09 508.84 C 446.09 509.784 446.618 510.296 447.802 510.296 Z M 453.574 499.56 L 454.614 499.56 L 454.614 511 L 453.574 511 L 453.574 499.56 Z M 456.336 499.864 L 457.68 499.864 L 457.68 501.208 L 456.336 501.208 L 456.336 499.864 Z M 456.496 502.84 L 457.536 502.84 L 457.536 511 L 456.496 511 L 456.496 502.84 Z M 458.876 510.2 L 463.724 503.784 L 463.724 503.752 L 459.148 503.752 L 459.148 502.84 L 465.18 502.84 L 465.18 503.496 L 460.22 510.056 L 460.22 510.088 L 465.34 510.088 L 465.34 511 L 458.876 511 L 458.876 510.2 Z M 469.766 511.224 C 467.27 511.224 465.878 509.4 465.878 506.92 C 465.878 504.312 467.414 502.632 469.766 502.632 C 472.118 502.632 473.446 504.28 473.446 506.552 C 473.446 506.776 473.446 507 473.43 507.128 L 466.966 507.128 C 466.982 508.792 467.862 510.328 469.782 510.328 C 471.478 510.328 472.118 509.176 472.278 508.504 L 473.334 508.504 C 472.934 509.992 471.814 511.224 469.766 511.224 Z M 469.718 503.528 C 468.134 503.528 467.046 504.696 466.966 506.216 L 472.342 506.216 C 472.342 504.76 471.398 503.528 469.718 503.528 Z M 474.887 502.84 L 475.927 502.84 L 475.927 504.504 L 475.959 504.504 C 476.359 503.432 477.111 502.648 478.279 502.648 C 478.567 502.648 478.775 502.664 478.983 502.696 L 478.983 503.72 C 478.807 503.688 478.631 503.672 478.487 503.672 C 476.999 503.672 475.927 504.856 475.927 506.44 L 475.927 511 L 474.887 511 L 474.887 502.84 Z" stroke-linecap="round" />
</g>
		<g transform="matrix(1 0 0 1 -101.4375 -275.4376)" id="RHIbpRYfdCh20ppayXI6M"  >
<path style="stroke: none; stroke-width: 1; stroke-dasharray: none; stroke-linecap: butt; stroke-dashoffset: 0; stroke-linejoin: miter; stroke-miterlimit: 4; fill: rgb(227,87,13); fill-rule: nonzero; opacity: 1;"  transform=" translate(-286.5625, -59.5624)" d="M 259.74 52.3784 L 260.908 52.3784 L 260.908 57.3224 L 267.372 57.3224 L 267.372 52.3784 L 268.54 52.3784 L 268.54 63.8184 L 267.372 63.8184 L 267.372 58.3464 L 260.908 58.3464 L 260.908 63.8184 L 259.74 63.8184 L 259.74 52.3784 Z M 273.96 64.0424 C 271.512 64.0424 270.04 62.2824 270.04 59.7544 C 270.04 57.2104 271.512 55.4504 273.96 55.4504 C 276.392 55.4504 277.88 57.2104 277.88 59.7544 C 277.88 62.2824 276.392 64.0424 273.96 64.0424 Z M 273.96 63.1304 C 275.864 63.1304 276.792 61.6264 276.792 59.7544 C 276.792 57.8664 275.864 56.3624 273.96 56.3624 C 272.04 56.3624 271.128 57.8664 271.128 59.7544 C 271.128 61.6264 272.04 63.1304 273.96 63.1304 Z M 280.259 61.1624 C 280.259 62.2024 280.723 63.0984 282.147 63.0984 C 283.683 63.0984 284.707 62.0104 284.707 60.8104 L 284.707 55.6584 L 285.747 55.6584 L 285.747 63.8184 L 284.707 63.8184 L 284.707 62.6664 L 284.675 62.6664 C 284.227 63.3384 283.347 64.0104 281.891 64.0104 C 280.419 64.0104 279.219 63.1944 279.219 61.3864 L 279.219 55.6584 L 280.259 55.6584 L 280.259 61.1624 Z M 290.797 59.0664 C 292.333 59.4344 293.837 59.8664 293.837 61.5624 C 293.837 63.0504 292.653 64.0264 290.637 64.0264 C 288.365 64.0264 287.101 62.7784 287.053 61.1464 L 288.157 61.1464 C 288.221 62.2664 288.941 63.1144 290.653 63.1144 C 292.221 63.1144 292.749 62.3944 292.749 61.5944 C 292.749 60.3944 291.533 60.2664 290.397 59.9944 C 288.893 59.6264 287.373 59.2424 287.373 57.6584 C 287.373 56.3304 288.429 55.4664 290.269 55.4664 C 292.381 55.4664 293.389 56.6024 293.533 57.9464 L 292.429 57.9464 C 292.285 57.2264 291.869 56.3784 290.269 56.3784 C 289.101 56.3784 288.461 56.8264 288.461 57.5944 C 288.461 58.6184 289.549 58.7464 290.797 59.0664 Z M 295.014 52.6824 L 296.358 52.6824 L 296.358 54.0264 L 295.014 54.0264 L 295.014 52.6824 Z M 295.174 55.6584 L 296.214 55.6584 L 296.214 63.8184 L 295.174 63.8184 L 295.174 55.6584 Z M 298.096 63.8184 L 298.096 55.6584 L 299.136 55.6584 L 299.136 56.8264 L 299.168 56.8264 C 299.616 56.1544 300.496 55.4664 301.952 55.4664 C 303.408 55.4664 304.624 56.2824 304.624 58.0904 L 304.624 63.8184 L 303.584 63.8184 L 303.584 58.3144 C 303.584 57.2744 303.104 56.3784 301.696 56.3784 C 300.144 56.3784 299.136 57.4664 299.136 58.6664 L 299.136 63.8184 L 298.096 63.8184 Z M 312.345 63.4504 L 312.345 61.9304 L 312.313 61.9304 C 311.833 62.7784 310.937 63.4344 309.561 63.4344 C 307.625 63.4344 305.977 62.1544 305.977 59.4344 C 305.977 56.7464 307.625 55.4664 309.561 55.4664 C 310.937 55.4664 311.833 56.1224 312.313 56.9384 L 312.345 56.9384 L 312.345 55.6584 L 313.385 55.6584 L 313.385 63.3064 C 313.385 65.6104 311.945 66.7464 309.705 66.7464 C 307.497 66.7464 306.329 65.6744 306.201 64.2504 L 307.289 64.2504 C 307.449 65.1144 308.153 65.8344 309.721 65.8344 C 311.369 65.8344 312.345 65.1144 312.345 63.4504 Z M 309.705 56.3784 C 308.025 56.3784 307.065 57.5944 307.065 59.4344 C 307.065 61.3064 308.025 62.5224 309.705 62.5224 C 311.209 62.5224 312.345 61.5304 312.345 59.4344 C 312.345 57.3704 311.209 56.3784 309.705 56.3784 Z" stroke-linecap="round" />
</g>
		<g transform="matrix(1 0 0 1 76.8375 -316.1869)" id="UAmWb3MOk_dSaud3FPwg7"  >
<path style="stroke: none; stroke-width: 1; stroke-dasharray: none; stroke-linecap: butt; stroke-dashoffset: 0; stroke-linejoin: miter; stroke-miterlimit: 4; fill: rgb(227,87,13); fill-rule: nonzero; opacity: 1;"  transform=" translate(-464.8375, -18.8131)" d="M 426.75 12.9811 L 427.918 12.9811 L 427.918 24.4211 L 426.75 24.4211 L 426.75 12.9811 Z M 429.918 24.4211 L 429.918 16.2611 L 430.958 16.2611 L 430.958 17.4291 L 430.99 17.4291 C 431.438 16.7571 432.318 16.0691 433.774 16.0691 C 435.23 16.0691 436.446 16.8851 436.446 18.6931 L 436.446 24.4211 L 435.406 24.4211 L 435.406 18.9171 C 435.406 17.8771 434.926 16.9811 433.518 16.9811 C 431.966 16.9811 430.958 18.0691 430.958 19.2691 L 430.958 24.4211 L 429.918 24.4211 Z M 441.447 19.6691 C 442.983 20.0371 444.487 20.4691 444.487 22.1651 C 444.487 23.6531 443.303 24.6291 441.287 24.6291 C 439.015 24.6291 437.751 23.3811 437.703 21.7491 L 438.807 21.7491 C 438.871 22.8691 439.591 23.7171 441.303 23.7171 C 442.871 23.7171 443.399 22.9971 443.399 22.1971 C 443.399 20.9971 442.183 20.8691 441.047 20.5971 C 439.543 20.2291 438.023 19.8451 438.023 18.2611 C 438.023 16.9331 439.079 16.0691 440.919 16.0691 C 443.031 16.0691 444.039 17.2051 444.183 18.5491 L 443.079 18.5491 C 442.935 17.8291 442.519 16.9811 440.919 16.9811 C 439.751 16.9811 439.111 17.4291 439.111 18.1971 C 439.111 19.2211 440.199 19.3491 441.447 19.6691 Z M 445.028 16.2611 L 446.228 16.2611 L 446.228 13.5411 L 447.268 13.5411 L 447.268 16.2611 L 448.932 16.2611 L 448.932 17.1731 L 447.268 17.1731 L 447.268 22.3251 C 447.268 23.3331 447.508 23.5731 448.308 23.5731 C 448.564 23.5731 448.692 23.5571 448.932 23.5411 L 448.932 24.4211 C 448.612 24.4691 448.42 24.4851 448.164 24.4851 C 446.964 24.4851 446.228 24.0851 446.228 22.3091 L 446.228 17.1731 L 445.028 17.1731 L 445.028 16.2611 Z M 452.393 24.6291 C 450.777 24.6291 449.721 23.7171 449.721 22.3571 C 449.721 20.5971 450.969 20.0531 453.081 19.6691 C 454.425 19.4291 455.289 19.3331 455.289 18.3571 C 455.289 17.5251 454.761 16.9651 453.433 16.9651 C 451.865 16.9651 451.289 17.5251 451.209 18.7251 L 450.121 18.7251 C 450.201 17.2851 451.097 16.0531 453.481 16.0531 C 454.985 16.0531 456.313 16.6931 456.313 18.6451 L 456.313 22.7251 C 456.313 23.3811 456.409 23.6851 456.761 23.6851 C 456.841 23.6851 456.889 23.6851 456.985 23.6691 L 456.985 24.4211 C 456.809 24.4531 456.633 24.4851 456.441 24.4851 C 455.769 24.4851 455.353 24.2131 455.305 23.1891 L 455.273 23.1891 C 454.697 24.1171 453.737 24.6291 452.393 24.6291 Z M 452.521 23.7171 C 454.201 23.7171 455.289 22.8371 455.289 21.3651 L 455.289 19.8451 C 455.049 20.1811 454.185 20.3731 453.209 20.5331 C 451.625 20.8211 450.809 21.2211 450.809 22.2611 C 450.809 23.2051 451.337 23.7171 452.521 23.7171 Z M 458.293 12.9811 L 459.333 12.9811 L 459.333 24.4211 L 458.293 24.4211 L 458.293 12.9811 Z M 461.215 12.9811 L 462.255 12.9811 L 462.255 24.4211 L 461.215 24.4211 L 461.215 12.9811 Z M 466.33 24.6291 C 464.714 24.6291 463.658 23.7171 463.658 22.3571 C 463.658 20.5971 464.906 20.0531 467.018 19.6691 C 468.362 19.4291 469.226 19.3331 469.226 18.3571 C 469.226 17.5251 468.698 16.9651 467.37 16.9651 C 465.802 16.9651 465.226 17.5251 465.146 18.7251 L 464.058 18.7251 C 464.138 17.2851 465.034 16.0531 467.418 16.0531 C 468.922 16.0531 470.25 16.6931 470.25 18.6451 L 470.25 22.7251 C 470.25 23.3811 470.346 23.6851 470.698 23.6851 C 470.778 23.6851 470.826 23.6851 470.922 23.6691 L 470.922 24.4211 C 470.746 24.4531 470.57 24.4851 470.378 24.4851 C 469.706 24.4851 469.29 24.2131 469.242 23.1891 L 469.21 23.1891 C 468.634 24.1171 467.674 24.6291 466.33 24.6291 Z M 466.458 23.7171 C 468.138 23.7171 469.226 22.8371 469.226 21.3651 L 469.226 19.8451 C 468.986 20.1811 468.122 20.3731 467.146 20.5331 C 465.562 20.8211 464.746 21.2211 464.746 22.2611 C 464.746 23.2051 465.274 23.7171 466.458 23.7171 Z M 471.216 16.2611 L 472.416 16.2611 L 472.416 13.5411 L 473.456 13.5411 L 473.456 16.2611 L 475.12 16.2611 L 475.12 17.1731 L 473.456 17.1731 L 473.456 22.3251 C 473.456 23.3331 473.696 23.5731 474.496 23.5731 C 474.752 23.5731 474.88 23.5571 475.12 23.5411 L 475.12 24.4211 C 474.8 24.4691 474.608 24.4851 474.352 24.4851 C 473.152 24.4851 472.416 24.0851 472.416 22.3091 L 472.416 17.1731 L 471.216 17.1731 L 471.216 16.2611 Z M 476.461 13.2851 L 477.805 13.2851 L 477.805 14.6291 L 476.461 14.6291 L 476.461 13.2851 Z M 476.621 16.2611 L 477.661 16.2611 L 477.661 24.4211 L 476.621 24.4211 L 476.621 16.2611 Z M 483.001 24.6451 C 480.553 24.6451 479.081 22.8851 479.081 20.3571 C 479.081 17.8131 480.553 16.0531 483.001 16.0531 C 485.433 16.0531 486.921 17.8131 486.921 20.3571 C 486.921 22.8851 485.433 24.6451 483.001 24.6451 Z M 483.001 23.7331 C 484.905 23.7331 485.833 22.2291 485.833 20.3571 C 485.833 18.4691 484.905 16.9651 483.001 16.9651 C 481.081 16.9651 480.169 18.4691 480.169 20.3571 C 480.169 22.2291 481.081 23.7331 483.001 23.7331 Z M 488.355 24.4211 L 488.355 16.2611 L 489.395 16.2611 L 489.395 17.4291 L 489.427 17.4291 C 489.875 16.7571 490.755 16.0691 492.211 16.0691 C 493.667 16.0691 494.883 16.8851 494.883 18.6931 L 494.883 24.4211 L 493.843 24.4211 L 493.843 18.9171 C 493.843 17.8771 493.363 16.9811 491.955 16.9811 C 490.403 16.9811 489.395 18.0691 489.395 19.2691 L 489.395 24.4211 L 488.355 24.4211 Z M 499.885 19.6691 C 501.421 20.0371 502.925 20.4691 502.925 22.1651 C 502.925 23.6531 501.741 24.6291 499.725 24.6291 C 497.453 24.6291 496.189 23.3811 496.141 21.7491 L 497.245 21.7491 C 497.309 22.8691 498.029 23.7171 499.741 23.7171 C 501.309 23.7171 501.837 22.9971 501.837 22.1971 C 501.837 20.9971 500.621 20.8691 499.485 20.5971 C 497.981 20.2291 496.461 19.8451 496.461 18.2611 C 496.461 16.9331 497.517 16.0691 499.357 16.0691 C 501.469 16.0691 502.477 17.2051 502.621 18.5491 L 501.517 18.5491 C 501.373 17.8291 500.957 16.9811 499.357 16.9811 C 498.189 16.9811 497.549 17.4291 497.549 18.1971 C 497.549 19.2211 498.637 19.3491 499.885 19.6691 Z" stroke-linecap="round" />
</g>
		<g transform="matrix(1 0 0 1 -244.34 -164.697)" id="d8cXmTla0GTNnM7S-y1qj"  >
<path style="stroke: none; stroke-width: 1; stroke-dasharray: none; stroke-linecap: butt; stroke-dashoffset: 0; stroke-linejoin: miter; stroke-miterlimit: 4; fill: rgb(227,87,13); fill-rule: nonzero; opacity: 1;"  transform=" translate(-143.66, -170.303)" d="M 129.554 176.223 C 126.258 176.223 124.066 173.727 124.066 170.287 C 124.066 166.847 126.258 164.367 129.554 164.367 C 132.85 164.367 135.058 166.847 135.058 170.287 C 135.058 173.727 132.85 176.223 129.554 176.223 Z M 129.554 175.199 C 132.386 175.199 133.842 172.991 133.842 170.287 C 133.842 167.583 132.386 165.391 129.554 165.391 C 126.738 165.391 125.282 167.583 125.282 170.287 C 125.282 172.991 126.738 175.199 129.554 175.199 Z M 136.104 168.767 L 136.104 167.855 L 137.256 167.855 L 137.256 166.655 C 137.256 164.879 137.96 164.479 139.128 164.479 C 139.368 164.479 139.56 164.495 139.912 164.543 L 139.912 165.423 C 139.624 165.407 139.496 165.391 139.272 165.391 C 138.488 165.391 138.296 165.631 138.296 166.639 L 138.296 167.855 L 141.064 167.855 L 141.064 166.655 C 141.064 164.879 141.768 164.479 142.936 164.479 C 143.16 164.479 143.352 164.495 143.72 164.543 L 143.72 165.423 C 143.432 165.407 143.304 165.391 143.08 165.391 C 142.296 165.391 142.104 165.631 142.104 166.639 L 142.104 167.855 L 143.72 167.855 L 143.72 168.767 L 142.104 168.767 L 142.104 176.015 L 141.064 176.015 L 141.064 168.767 L 138.296 168.767 L 138.296 176.015 L 137.256 176.015 L 137.256 168.767 L 136.104 168.767 Z M 144.632 164.879 L 145.976 164.879 L 145.976 166.223 L 144.632 166.223 L 144.632 164.879 Z M 144.808 167.855 L 145.848 167.855 L 145.848 176.015 L 144.808 176.015 L 144.808 167.855 Z M 153.584 170.719 C 153.52 169.807 152.864 168.575 151.168 168.575 C 149.168 168.575 148.352 170.271 148.352 171.935 C 148.352 173.615 149.168 175.327 151.168 175.327 C 152.88 175.327 153.52 174.095 153.584 173.103 L 154.672 173.103 C 154.56 174.863 153.152 176.223 151.168 176.223 C 148.832 176.223 147.264 174.495 147.264 171.935 C 147.264 169.391 148.832 167.663 151.168 167.663 C 153.152 167.663 154.48 168.991 154.672 170.719 L 153.584 170.719 Z M 159.574 176.239 C 157.078 176.239 155.686 174.415 155.686 171.935 C 155.686 169.327 157.222 167.647 159.574 167.647 C 161.926 167.647 163.254 169.295 163.254 171.567 C 163.254 171.791 163.254 172.015 163.238 172.143 L 156.774 172.143 C 156.79 173.807 157.67 175.343 159.59 175.343 C 161.286 175.343 161.926 174.191 162.086 173.519 L 163.142 173.519 C 162.742 175.007 161.622 176.239 159.574 176.239 Z M 159.526 168.543 C 157.942 168.543 156.854 169.711 156.774 171.231 L 162.15 171.231 C 162.15 169.775 161.206 168.543 159.526 168.543 Z" stroke-linecap="round" />
</g>
		<g transform="matrix(1 0 0 1 -259.838 -322.18221)" id="dMnuWYK-GGdd5azOUixqq"  >
<path style="stroke: none; stroke-width: 1; stroke-dasharray: none; stroke-linecap: butt; stroke-dashoffset: 0; stroke-linejoin: miter; stroke-miterlimit: 4; fill: rgb(227,87,13); fill-rule: nonzero; opacity: 1;"  transform=" translate(-128.162, -12.81779)" d="M 107.602 11.9458 L 113.474 11.9458 L 113.474 12.9698 L 107.602 12.9698 L 107.602 17.4018 L 114.37 17.4018 L 114.37 18.4258 L 106.434 18.4258 L 106.434 6.98578 L 114.194 6.98578 L 114.194 8.00978 L 107.602 8.00978 L 107.602 11.9458 Z M 114.396 10.2658 L 115.548 10.2658 L 117.996 17.3698 L 118.012 17.3698 L 120.444 10.2658 L 121.564 10.2658 L 118.572 18.4258 L 117.388 18.4258 L 114.396 10.2658 Z M 125.809 18.6498 C 123.313 18.6498 121.921 16.8258 121.921 14.3458 C 121.921 11.7378 123.457 10.0578 125.809 10.0578 C 128.161 10.0578 129.489 11.7058 129.489 13.9778 C 129.489 14.2018 129.489 14.4258 129.473 14.5538 L 123.009 14.5538 C 123.025 16.2178 123.905 17.7538 125.825 17.7538 C 127.521 17.7538 128.161 16.6018 128.321 15.9298 L 129.377 15.9298 C 128.977 17.4178 127.857 18.6498 125.809 18.6498 Z M 125.761 10.9538 C 124.177 10.9538 123.089 12.1218 123.009 13.6418 L 128.385 13.6418 C 128.385 12.1858 127.441 10.9538 125.761 10.9538 Z M 130.93 18.4258 L 130.93 10.2658 L 131.97 10.2658 L 131.97 11.4338 L 132.002 11.4338 C 132.45 10.7618 133.33 10.0738 134.786 10.0738 C 136.242 10.0738 137.458 10.8898 137.458 12.6978 L 137.458 18.4258 L 136.418 18.4258 L 136.418 12.9218 C 136.418 11.8818 135.938 10.9858 134.53 10.9858 C 132.978 10.9858 131.97 12.0738 131.97 13.2738 L 131.97 18.4258 L 130.93 18.4258 Z M 138.431 10.2658 L 139.631 10.2658 L 139.631 7.54578 L 140.671 7.54578 L 140.671 10.2658 L 142.335 10.2658 L 142.335 11.1778 L 140.671 11.1778 L 140.671 16.3298 C 140.671 17.3378 140.911 17.5778 141.711 17.5778 C 141.967 17.5778 142.095 17.5618 142.335 17.5458 L 142.335 18.4258 C 142.015 18.4738 141.823 18.4898 141.567 18.4898 C 140.367 18.4898 139.631 18.0898 139.631 16.3138 L 139.631 11.1778 L 138.431 11.1778 L 138.431 10.2658 Z M 146.85 13.6738 C 148.386 14.0418 149.89 14.4738 149.89 16.1698 C 149.89 17.6578 148.706 18.6338 146.69 18.6338 C 144.418 18.6338 143.154 17.3858 143.106 15.7538 L 144.21 15.7538 C 144.274 16.8738 144.994 17.7218 146.706 17.7218 C 148.274 17.7218 148.802 17.0018 148.802 16.2018 C 148.802 15.0018 147.586 14.8738 146.45 14.6018 C 144.946 14.2338 143.426 13.8498 143.426 12.2658 C 143.426 10.9378 144.482 10.0738 146.322 10.0738 C 148.434 10.0738 149.442 11.2098 149.586 12.5538 L 148.482 12.5538 C 148.338 11.8338 147.922 10.9858 146.322 10.9858 C 145.154 10.9858 144.514 11.4338 144.514 12.2018 C 144.514 13.2258 145.602 13.3538 146.85 13.6738 Z" stroke-linecap="round" />
</g>
		<g transform="matrix(1 0 0 1 -38.3375 -215.485)" id="WSF107d9BjdH8XvMXusUO"  >
<path style="stroke: none; stroke-width: 1; stroke-dasharray: none; stroke-linecap: butt; stroke-dashoffset: 0; stroke-linejoin: miter; stroke-miterlimit: 4; fill: rgb(227,87,13); fill-rule: nonzero; opacity: 1;"  transform=" translate(-349.6625, -119.515)" d="M 312.84 123.771 L 312.84 112.331 L 317.24 112.331 C 319.336 112.331 320.92 113.227 320.92 115.627 C 320.92 118.027 319.336 118.939 317.24 118.939 L 314.008 118.939 L 314.008 123.771 L 312.84 123.771 Z M 314.008 117.915 L 317.352 117.915 C 318.888 117.915 319.704 117.195 319.704 115.627 C 319.704 114.075 318.888 113.355 317.352 113.355 L 314.008 113.355 L 314.008 117.915 Z M 322.273 112.331 L 323.313 112.331 L 323.313 123.771 L 322.273 123.771 L 322.273 112.331 Z M 327.389 123.979 C 325.773 123.979 324.717 123.067 324.717 121.707 C 324.717 119.947 325.965 119.403 328.077 119.019 C 329.421 118.779 330.285 118.683 330.285 117.707 C 330.285 116.875 329.757 116.315 328.429 116.315 C 326.861 116.315 326.285 116.875 326.205 118.075 L 325.117 118.075 C 325.197 116.635 326.093 115.403 328.477 115.403 C 329.981 115.403 331.309 116.043 331.309 117.995 L 331.309 122.075 C 331.309 122.731 331.405 123.035 331.757 123.035 C 331.837 123.035 331.885 123.035 331.981 123.019 L 331.981 123.771 C 331.805 123.803 331.629 123.835 331.437 123.835 C 330.765 123.835 330.349 123.563 330.301 122.539 L 330.269 122.539 C 329.693 123.467 328.733 123.979 327.389 123.979 Z M 327.517 123.067 C 329.197 123.067 330.285 122.187 330.285 120.715 L 330.285 119.195 C 330.045 119.531 329.181 119.723 328.205 119.883 C 326.621 120.171 325.805 120.571 325.805 121.611 C 325.805 122.555 326.333 123.067 327.517 123.067 Z M 335.317 123.723 L 332.021 115.611 L 333.189 115.611 L 335.829 122.411 L 335.861 122.411 L 338.405 115.611 L 339.525 115.611 L 336.245 124.011 C 335.445 126.043 334.741 126.635 333.637 126.635 C 333.381 126.635 333.189 126.619 332.853 126.571 L 332.853 125.675 C 333.093 125.707 333.221 125.723 333.493 125.723 C 334.245 125.723 334.885 125.227 335.317 123.723 Z M 346.226 123.403 L 346.226 121.883 L 346.194 121.883 C 345.714 122.731 344.818 123.387 343.442 123.387 C 341.506 123.387 339.858 122.107 339.858 119.387 C 339.858 116.699 341.506 115.419 343.442 115.419 C 344.818 115.419 345.714 116.075 346.194 116.891 L 346.226 116.891 L 346.226 115.611 L 347.266 115.611 L 347.266 123.259 C 347.266 125.563 345.826 126.699 343.586 126.699 C 341.378 126.699 340.21 125.627 340.082 124.203 L 341.17 124.203 C 341.33 125.067 342.034 125.787 343.602 125.787 C 345.25 125.787 346.226 125.067 346.226 123.403 Z M 343.586 116.331 C 341.906 116.331 340.946 117.547 340.946 119.387 C 340.946 121.259 341.906 122.475 343.586 122.475 C 345.09 122.475 346.226 121.483 346.226 119.387 C 346.226 117.323 345.09 116.331 343.586 116.331 Z M 349.148 115.611 L 350.188 115.611 L 350.188 117.275 L 350.22 117.275 C 350.62 116.203 351.372 115.419 352.54 115.419 C 352.828 115.419 353.036 115.435 353.244 115.467 L 353.244 116.491 C 353.068 116.459 352.892 116.443 352.748 116.443 C 351.26 116.443 350.188 117.627 350.188 119.211 L 350.188 123.771 L 349.148 123.771 L 349.148 115.611 Z M 357.497 123.995 C 355.049 123.995 353.577 122.235 353.577 119.707 C 353.577 117.163 355.049 115.403 357.497 115.403 C 359.929 115.403 361.417 117.163 361.417 119.707 C 361.417 122.235 359.929 123.995 357.497 123.995 Z M 357.497 123.083 C 359.401 123.083 360.329 121.579 360.329 119.707 C 360.329 117.819 359.401 116.315 357.497 116.315 C 355.577 116.315 354.665 117.819 354.665 119.707 C 354.665 121.579 355.577 123.083 357.497 123.083 Z M 363.796 121.115 C 363.796 122.155 364.26 123.051 365.684 123.051 C 367.22 123.051 368.244 121.963 368.244 120.763 L 368.244 115.611 L 369.284 115.611 L 369.284 123.771 L 368.244 123.771 L 368.244 122.619 L 368.212 122.619 C 367.764 123.291 366.884 123.963 365.428 123.963 C 363.956 123.963 362.756 123.147 362.756 121.339 L 362.756 115.611 L 363.796 115.611 L 363.796 121.115 Z M 371.18 123.771 L 371.18 115.611 L 372.22 115.611 L 372.22 116.779 L 372.252 116.779 C 372.7 116.107 373.58 115.419 375.036 115.419 C 376.492 115.419 377.708 116.235 377.708 118.043 L 377.708 123.771 L 376.668 123.771 L 376.668 118.267 C 376.668 117.227 376.188 116.331 374.78 116.331 C 373.228 116.331 372.22 117.419 372.22 118.619 L 372.22 123.771 L 371.18 123.771 Z M 385.413 116.987 L 385.445 116.987 L 385.445 112.331 L 386.485 112.331 L 386.485 123.771 L 385.445 123.771 L 385.445 122.443 L 385.413 122.443 C 384.933 123.243 384.069 123.979 382.645 123.979 C 380.661 123.979 379.061 122.379 379.061 119.691 C 379.061 117.019 380.661 115.419 382.661 115.419 C 384.069 115.419 384.933 116.123 385.413 116.987 Z M 382.773 123.067 C 384.341 123.067 385.445 121.755 385.445 119.691 C 385.445 117.643 384.341 116.331 382.773 116.331 C 381.077 116.331 380.149 117.867 380.149 119.691 C 380.149 121.531 381.077 123.067 382.773 123.067 Z" stroke-linecap="round" />
</g>
		<g transform="matrix(1 0 0 1 14.945 325.2)" id="gQERw-YLuwQ_hgK-cEYZZ"  >
<path style="stroke: none; stroke-width: 1; stroke-dasharray: none; stroke-linecap: butt; stroke-dashoffset: 0; stroke-linejoin: miter; stroke-miterlimit: 4; fill: rgb(227,87,13); fill-rule: nonzero; opacity: 1;"  transform=" translate(-402.945, -660.2)" d="M 376.064 659.384 C 378.4 659.896 380.224 660.472 380.224 662.792 C 380.224 664.648 378.944 666.12 376.224 666.12 C 373.456 666.12 371.488 664.696 371.328 662.12 L 372.544 662.12 C 372.704 663.896 373.792 665.096 376.176 665.096 C 378.288 665.096 379.008 664.088 379.008 662.824 C 379.024 661.128 377.824 660.84 375.488 660.312 C 373.616 659.88 371.808 659.304 371.808 657.208 C 371.808 655.384 373.264 654.264 375.6 654.264 C 378.096 654.264 379.664 655.528 379.84 657.768 L 378.624 657.768 C 378.432 656.184 377.552 655.288 375.616 655.288 C 373.936 655.288 373.024 655.976 373.024 657.16 C 373.024 658.696 374.384 659.016 376.064 659.384 Z M 387.185 660.408 C 387.185 659.368 386.705 658.472 385.297 658.472 C 383.745 658.472 382.737 659.56 382.737 660.76 L 382.737 665.912 L 381.697 665.912 L 381.697 654.472 L 382.737 654.472 L 382.737 658.92 L 382.769 658.92 C 383.217 658.248 384.097 657.56 385.553 657.56 C 387.009 657.56 388.225 658.376 388.225 660.184 L 388.225 665.912 L 387.185 665.912 L 387.185 660.408 Z M 393.499 666.136 C 391.051 666.136 389.579 664.376 389.579 661.848 C 389.579 659.304 391.051 657.544 393.499 657.544 C 395.931 657.544 397.419 659.304 397.419 661.848 C 397.419 664.376 395.931 666.136 393.499 666.136 Z M 393.499 665.224 C 395.403 665.224 396.331 663.72 396.331 661.848 C 396.331 659.96 395.403 658.456 393.499 658.456 C 391.579 658.456 390.667 659.96 390.667 661.848 C 390.667 663.72 391.579 665.224 393.499 665.224 Z M 398.853 657.752 L 399.893 657.752 L 399.893 659.416 L 399.925 659.416 C 400.325 658.344 401.077 657.56 402.245 657.56 C 402.533 657.56 402.741 657.576 402.949 657.608 L 402.949 658.632 C 402.773 658.6 402.597 658.584 402.453 658.584 C 400.965 658.584 399.893 659.768 399.893 661.352 L 399.893 665.912 L 398.853 665.912 L 398.853 657.752 Z M 403.683 657.752 L 404.883 657.752 L 404.883 655.032 L 405.923 655.032 L 405.923 657.752 L 407.587 657.752 L 407.587 658.664 L 405.923 658.664 L 405.923 663.816 C 405.923 664.824 406.163 665.064 406.963 665.064 C 407.219 665.064 407.347 665.048 407.587 665.032 L 407.587 665.912 C 407.267 665.96 407.075 665.976 406.819 665.976 C 405.619 665.976 404.883 665.576 404.883 663.8 L 404.883 658.664 L 403.683 658.664 L 403.683 657.752 Z M 410.369 659.544 L 415.697 659.544 L 415.697 660.568 L 410.369 660.568 L 410.369 665.912 L 409.201 665.912 L 409.201 654.472 L 416.849 654.472 L 416.849 655.496 L 410.369 655.496 L 410.369 659.544 Z M 417.678 654.776 L 419.022 654.776 L 419.022 656.12 L 417.678 656.12 L 417.678 654.776 Z M 417.838 657.752 L 418.878 657.752 L 418.878 665.912 L 417.838 665.912 L 417.838 657.752 Z M 420.76 654.472 L 421.8 654.472 L 421.8 665.912 L 420.76 665.912 L 420.76 654.472 Z M 423.682 665.912 L 423.682 657.752 L 424.722 657.752 L 424.722 658.904 L 424.754 658.904 C 425.17 658.248 425.938 657.56 427.218 657.56 C 428.37 657.56 429.106 658.088 429.426 659.064 L 429.458 659.064 C 429.986 658.248 430.866 657.56 432.146 657.56 C 433.714 657.56 434.562 658.488 434.562 660.184 L 434.562 665.912 L 433.522 665.912 L 433.522 660.408 C 433.522 659.384 433.266 658.472 431.922 658.472 C 430.498 658.472 429.634 659.576 429.634 660.76 L 429.634 665.912 L 428.594 665.912 L 428.594 660.408 C 428.594 659.384 428.354 658.472 426.994 658.472 C 425.57 658.472 424.722 659.576 424.722 660.76 L 424.722 665.912 L 423.682 665.912 Z" stroke-linecap="round" />
</g>
		<g transform="matrix(1 0 0 1 -152.4115 249.079)" id="VADHrY2vlGlK3dsz9o-Hk"  >
<path style="stroke: none; stroke-width: 1; stroke-dasharray: none; stroke-linecap: butt; stroke-dashoffset: 0; stroke-linejoin: miter; stroke-miterlimit: 4; fill: rgb(227,87,13); fill-rule: nonzero; opacity: 1;"  transform=" translate(-235.5885, -584.079)" d="M 201.305 586.519 L 196.153 586.519 L 195.001 589.687 L 193.801 589.687 L 198.073 578.247 L 199.385 578.247 L 203.705 589.687 L 202.441 589.687 L 201.305 586.519 Z M 196.537 585.479 L 200.921 585.479 L 198.745 579.351 L 198.713 579.351 L 196.537 585.479 Z M 204.863 581.527 L 205.903 581.527 L 205.903 583.191 L 205.935 583.191 C 206.335 582.119 207.087 581.335 208.255 581.335 C 208.543 581.335 208.751 581.351 208.959 581.383 L 208.959 582.407 C 208.783 582.375 208.607 582.359 208.463 582.359 C 206.975 582.359 205.903 583.543 205.903 585.127 L 205.903 589.687 L 204.863 589.687 L 204.863 581.527 Z M 209.693 581.527 L 210.893 581.527 L 210.893 578.807 L 211.933 578.807 L 211.933 581.527 L 213.597 581.527 L 213.597 582.439 L 211.933 582.439 L 211.933 587.591 C 211.933 588.599 212.173 588.839 212.973 588.839 C 213.229 588.839 213.357 588.823 213.597 588.807 L 213.597 589.687 C 213.277 589.735 213.085 589.751 212.829 589.751 C 211.629 589.751 210.893 589.351 210.893 587.575 L 210.893 582.439 L 209.693 582.439 L 209.693 581.527 Z M 218.992 589.687 L 218.992 578.247 L 223.12 578.247 C 226.32 578.247 228.096 580.455 228.096 583.991 C 228.096 587.527 226.288 589.687 223.088 589.687 L 218.992 589.687 Z M 220.16 579.271 L 220.16 588.663 L 223.088 588.663 C 225.952 588.663 226.88 586.519 226.88 583.991 C 226.88 581.447 225.984 579.271 223.12 579.271 L 220.16 579.271 Z M 229.563 578.551 L 230.907 578.551 L 230.907 579.895 L 229.563 579.895 L 229.563 578.551 Z M 229.723 581.527 L 230.763 581.527 L 230.763 589.687 L 229.723 589.687 L 229.723 581.527 Z M 232.644 581.527 L 233.684 581.527 L 233.684 583.191 L 233.716 583.191 C 234.116 582.119 234.868 581.335 236.036 581.335 C 236.324 581.335 236.532 581.351 236.74 581.383 L 236.74 582.407 C 236.564 582.375 236.388 582.359 236.244 582.359 C 234.756 582.359 233.684 583.543 233.684 585.127 L 233.684 589.687 L 232.644 589.687 L 232.644 581.527 Z M 240.961 589.911 C 238.465 589.911 237.073 588.087 237.073 585.607 C 237.073 582.999 238.609 581.319 240.961 581.319 C 243.313 581.319 244.641 582.967 244.641 585.239 C 244.641 585.463 244.641 585.687 244.625 585.815 L 238.161 585.815 C 238.177 587.479 239.057 589.015 240.977 589.015 C 242.673 589.015 243.313 587.863 243.473 587.191 L 244.529 587.191 C 244.129 588.679 243.009 589.911 240.961 589.911 Z M 240.913 582.215 C 239.329 582.215 238.241 583.383 238.161 584.903 L 243.537 584.903 C 243.537 583.447 242.593 582.215 240.913 582.215 Z M 252.018 584.391 C 251.954 583.479 251.298 582.247 249.602 582.247 C 247.602 582.247 246.786 583.943 246.786 585.607 C 246.786 587.287 247.602 588.999 249.602 588.999 C 251.314 588.999 251.954 587.767 252.018 586.775 L 253.106 586.775 C 252.994 588.535 251.586 589.895 249.602 589.895 C 247.266 589.895 245.698 588.167 245.698 585.607 C 245.698 583.063 247.266 581.335 249.602 581.335 C 251.586 581.335 252.914 582.663 253.106 584.391 L 252.018 584.391 Z M 253.708 581.527 L 254.908 581.527 L 254.908 578.807 L 255.948 578.807 L 255.948 581.527 L 257.612 581.527 L 257.612 582.439 L 255.948 582.439 L 255.948 587.591 C 255.948 588.599 256.188 588.839 256.988 588.839 C 257.244 588.839 257.372 588.823 257.612 588.807 L 257.612 589.687 C 257.292 589.735 257.1 589.751 256.844 589.751 C 255.644 589.751 254.908 589.351 254.908 587.575 L 254.908 582.439 L 253.708 582.439 L 253.708 581.527 Z M 258.953 578.551 L 260.297 578.551 L 260.297 579.895 L 258.953 579.895 L 258.953 578.551 Z M 259.113 581.527 L 260.153 581.527 L 260.153 589.687 L 259.113 589.687 L 259.113 581.527 Z M 265.493 589.911 C 263.045 589.911 261.573 588.151 261.573 585.623 C 261.573 583.079 263.045 581.319 265.493 581.319 C 267.925 581.319 269.413 583.079 269.413 585.623 C 269.413 588.151 267.925 589.911 265.493 589.911 Z M 265.493 588.999 C 267.397 588.999 268.325 587.495 268.325 585.623 C 268.325 583.735 267.397 582.231 265.493 582.231 C 263.573 582.231 262.661 583.735 262.661 585.623 C 262.661 587.495 263.573 588.999 265.493 588.999 Z M 270.848 589.687 L 270.848 581.527 L 271.888 581.527 L 271.888 582.695 L 271.92 582.695 C 272.368 582.023 273.248 581.335 274.704 581.335 C 276.16 581.335 277.376 582.151 277.376 583.959 L 277.376 589.687 L 276.336 589.687 L 276.336 584.183 C 276.336 583.143 275.856 582.247 274.448 582.247 C 272.896 582.247 271.888 583.335 271.888 584.535 L 271.888 589.687 L 270.848 589.687 Z" stroke-linecap="round" />
</g>
		<g transform="matrix(1 0 0 1 174.725 265.351)" id="mntmmWpnPQEB1G9BCt0H9"  >
<path style="stroke: none; stroke-width: 1; stroke-dasharray: none; stroke-linecap: butt; stroke-dashoffset: 0; stroke-linejoin: miter; stroke-miterlimit: 4; fill: rgb(227,87,13); fill-rule: nonzero; opacity: 1;"  transform=" translate(-562.725, -600.351)" d="M 547.663 594.519 L 548.879 594.519 L 551.231 604.295 L 551.263 604.295 L 553.935 594.519 L 555.247 594.519 L 557.935 604.295 L 557.967 604.295 L 560.303 594.519 L 561.535 594.519 L 558.655 605.959 L 557.375 605.959 L 554.607 595.895 L 554.575 595.895 L 551.823 605.959 L 550.527 605.959 L 547.663 594.519 Z M 565.258 606.183 C 562.762 606.183 561.37 604.359 561.37 601.879 C 561.37 599.271 562.906 597.591 565.258 597.591 C 567.61 597.591 568.938 599.239 568.938 601.511 C 568.938 601.735 568.938 601.959 568.922 602.087 L 562.458 602.087 C 562.474 603.751 563.354 605.287 565.274 605.287 C 566.97 605.287 567.61 604.135 567.77 603.463 L 568.826 603.463 C 568.426 604.951 567.306 606.183 565.258 606.183 Z M 565.21 598.487 C 563.626 598.487 562.538 599.655 562.458 601.175 L 567.834 601.175 C 567.834 599.719 566.89 598.487 565.21 598.487 Z M 571.451 604.567 L 571.419 604.567 L 571.419 605.959 L 570.379 605.959 L 570.379 594.519 L 571.419 594.519 L 571.419 599.111 L 571.451 599.111 C 571.915 598.327 572.779 597.591 574.203 597.591 C 576.187 597.591 577.787 599.191 577.787 601.879 C 577.787 604.551 576.187 606.151 574.203 606.151 C 572.779 606.151 571.931 605.447 571.451 604.567 Z M 574.075 598.487 C 572.507 598.487 571.419 599.815 571.419 601.879 C 571.419 603.927 572.507 605.239 574.075 605.239 C 575.771 605.239 576.699 603.703 576.699 601.879 C 576.699 600.039 575.771 598.487 574.075 598.487 Z" stroke-linecap="round" />
</g>
		<g transform="matrix(1 0 0 1 -3.9438920486 169.625)" id="6FgrPXGkaO0NNwcSDYUQu"  >
<path style="stroke: none; stroke-width: 1; stroke-dasharray: none; stroke-linecap: butt; stroke-dashoffset: 0; stroke-linejoin: miter; stroke-miterlimit: 4; fill: rgb(244,108,0); fill-rule: nonzero; opacity: 1;"  transform=" translate(-4.282315, -4.282315)" d="M 0 8.56463 L 0 0 L 8.56463 0 L 8.56463 8.56463 z" stroke-linecap="round" />
</g>
		<g transform="matrix(1 0 0 1 -139.5648920486 -277.5562)" id="TtTcUScIbrqCFbyT1izhC"  >
<path style="stroke: none; stroke-width: 1; stroke-dasharray: none; stroke-linecap: butt; stroke-dashoffset: 0; stroke-linejoin: miter; stroke-miterlimit: 4; fill: rgb(244,108,0); fill-rule: nonzero; opacity: 1;"  transform=" translate(-4.282315, -4.282315)" d="M 0 8.56463 L 0 0 L 8.56463 0 L 8.56463 8.56463 z" stroke-linecap="round" />
</g>
		<g transform="matrix(1 0 0 1 27.4451079514 -316.9534)" id="17cxOHV19-6wRyIRzZ2Vp"  >
<path style="stroke: none; stroke-width: 1; stroke-dasharray: none; stroke-linecap: butt; stroke-dashoffset: 0; stroke-linejoin: miter; stroke-miterlimit: 4; fill: rgb(244,108,0); fill-rule: nonzero; opacity: 1;"  transform=" translate(-4.282315, -4.282315)" d="M 0 8.56463 L 0 0 L 8.56463 0 L 8.56463 8.56463 z" stroke-linecap="round" />
</g>
		<g transform="matrix(1 0 0 1 -274.8848920486 -165.36)" id="YtULtWhXut1H4S5mEKZaT"  >
<path style="stroke: none; stroke-width: 1; stroke-dasharray: none; stroke-linecap: butt; stroke-dashoffset: 0; stroke-linejoin: miter; stroke-miterlimit: 4; fill: rgb(244,108,0); fill-rule: nonzero; opacity: 1;"  transform=" translate(-4.282315, -4.282315)" d="M 0 8.56463 L 0 0 L 8.56463 0 L 8.56463 8.56463 z" stroke-linecap="round" />
</g>
		<g transform="matrix(1 0 0 1 -292.8717920486 -322.9487)" id="cAxljeLpbZbhCGGl5jfex"  >
<path style="stroke: none; stroke-width: 1; stroke-dasharray: none; stroke-linecap: butt; stroke-dashoffset: 0; stroke-linejoin: miter; stroke-miterlimit: 4; fill: rgb(244,108,0); fill-rule: nonzero; opacity: 1;"  transform=" translate(-4.282315, -4.282315)" d="M 0 8.56463 L 0 0 L 8.56463 0 L 8.56463 8.56463 z" stroke-linecap="round" />
</g>
		<g transform="matrix(1 0 0 1 -86.4638920486 -217.604)" id="sRhjq-34zS9BrBQwp1tl1"  >
<path style="stroke: none; stroke-width: 1; stroke-dasharray: none; stroke-linecap: butt; stroke-dashoffset: 0; stroke-linejoin: miter; stroke-miterlimit: 4; fill: rgb(244,108,0); fill-rule: nonzero; opacity: 1;"  transform=" translate(-4.282315, -4.282315)" d="M 0 8.56463 L 0 0 L 8.56463 0 L 8.56463 8.56463 z" stroke-linecap="round" />
</g>
		<g transform="matrix(1 0 0 1 -27.3678920486 324.537)" id="ydMIZpWr5q9xvtUgSrtKQ"  >
<path style="stroke: none; stroke-width: 1; stroke-dasharray: none; stroke-linecap: butt; stroke-dashoffset: 0; stroke-linejoin: miter; stroke-miterlimit: 4; fill: rgb(244,108,0); fill-rule: nonzero; opacity: 1;"  transform=" translate(-4.282315, -4.282315)" d="M 0 8.56463 L 0 0 L 8.56463 0 L 8.56463 8.56463 z" stroke-linecap="round" />
</g>
		<g transform="matrix(1 0 0 1 -204.6568920486 248.312)" id="Liyzl22vQlBz_CTMn4aJp"  >
<path style="stroke: none; stroke-width: 1; stroke-dasharray: none; stroke-linecap: butt; stroke-dashoffset: 0; stroke-linejoin: miter; stroke-miterlimit: 4; fill: rgb(244,108,0); fill-rule: nonzero; opacity: 1;"  transform=" translate(-4.282315, -4.282315)" d="M 0 8.56463 L 0 0 L 8.56463 0 L 8.56463 8.56463 z" stroke-linecap="round" />
</g>
		<g transform="matrix(1 0 0 1 149.0641079514 264.585)" id="bdH53HEqxlPYW3ap05WrB"  >
<path style="stroke: none; stroke-width: 1; stroke-dasharray: none; stroke-linecap: butt; stroke-dashoffset: 0; stroke-linejoin: miter; stroke-miterlimit: 4; fill: rgb(244,108,0); fill-rule: nonzero; opacity: 1;"  transform=" translate(-4.282315, -4.282315)" d="M 0 8.56463 L 0 0 L 8.56463 0 L 8.56463 8.56463 z" stroke-linecap="round" />
</g>
		<g transform="matrix(1 0 0 1 -71.32245 0.94775)" id="KlWYpVVIbzcKsod1YhPfU"  >
<path style="stroke: rgb(0,45,202); stroke-width: 1; stroke-dasharray: 2 2; stroke-linecap: butt; stroke-dashoffset: 0; stroke-linejoin: miter; stroke-miterlimit: 4; fill: none; fill-rule: nonzero; opacity: 1;"  transform=" translate(-316.67755, -335.94775)" d="M 183.712 581.11 L 384 503.5 L 360.143 659.905 L 537.859 600.38 L 301.904 116.051 L 112.197 169.58 L 247.518 57.8112 L 95.4961 11.9905 L 414.957 16.701 L 183.712 581.11 Z" stroke-linecap="round" />
</g>
</g>
</g>
</svg>