<svg width="18" height="20" viewBox="0 0 18 20" fill="none" xmlns="http://www.w3.org/2000/svg">
<path d="M17 19V17C17 15.9391 16.5786 14.9217 15.8284 14.1716C15.0783 13.4214 14.0609 13 13 13H12C11.7348 13 11.4804 12.8946 11.2929 12.7071C11.1054 12.5196 11 12.2652 11 12V7C11 6.46957 10.7893 5.96086 10.4142 5.58579C10.0391 5.21071 9.53043 5 9 5C8.46957 5 7.96086 5.21071 7.58579 5.58579C7.21071 5.96086 7 6.46957 7 7V16L4.6 12.8C4.41371 12.5516 4.17214 12.35 3.89443 12.2111C3.61672 12.0723 3.31049 12 3 12H2.566C1.701 12 1 12.701 1 13.566C1 13.85 1.077 14.129 1.223 14.372L4 19M9 2V1M15 8H16M2 8H3M4.343 3.343L3.636 2.636M13.657 3.343L14.364 2.636" stroke="black" stroke-width="2" stroke-linecap="round" stroke-linejoin="round"/>
</svg>
