<svg width="33" height="30" viewBox="0 0 33 30" fill="none" xmlns="http://www.w3.org/2000/svg">
<path d="M27.2367 20.0002C25.9181 20.0012 24.6526 20.5159 23.7121 21.4335L10.453 15.5668C10.453 15.3668 10.453 15.2002 10.453 15.0002C10.453 14.8002 10.453 14.6335 10.453 14.4502L23.7121 8.56682C24.5426 9.37518 25.6292 9.87316 26.7875 9.97617C27.9458 10.0792 29.1043 9.78088 30.0662 9.13193C31.0281 8.48298 31.7342 7.52338 32.0644 6.41613C32.3947 5.30888 32.3288 4.12224 31.878 3.05774C31.4272 1.99325 30.6192 1.11653 29.5913 0.576503C28.5633 0.0364717 27.3789 -0.13358 26.239 0.09523C25.0992 0.32404 24.0742 0.937603 23.3382 1.83171C22.6023 2.72582 22.2006 3.84535 22.2016 5.00015V5.56682L8.94248 11.4335C8.23481 10.7431 7.33753 10.2756 6.36328 10.0899C5.38902 9.90408 4.38121 10.0082 3.46636 10.3893C2.55151 10.7703 1.77039 11.4112 1.22105 12.2315C0.671723 13.0518 0.378662 14.015 0.378662 15.0002C0.378662 15.9853 0.671723 16.9485 1.22105 17.7688C1.77039 18.5891 2.55151 19.23 3.46636 19.611C4.38121 19.9921 5.38902 20.0962 6.36328 19.9104C7.33753 19.7247 8.23481 19.2572 8.94248 18.5668L22.2016 24.4502V25.0002C22.2016 25.9891 22.4969 26.9558 23.0501 27.778C23.6034 28.6002 24.3898 29.2411 25.3098 29.6195C26.2299 29.998 27.2423 30.097 28.219 29.9041C29.1957 29.7112 30.0928 29.2349 30.797 28.5357C31.5012 27.8364 31.9807 26.9455 32.175 25.9756C32.3693 25.0057 32.2696 24.0004 31.8885 23.0867C31.5074 22.1731 30.862 21.3922 30.034 20.8428C29.206 20.2934 28.2325 20.0002 27.2367 20.0002ZM27.2367 3.33348C27.5686 3.33348 27.8931 3.43123 28.1691 3.61437C28.4451 3.7975 28.6602 4.0578 28.7873 4.36235C28.9143 4.66689 28.9475 5.002 28.8828 5.3253C28.818 5.6486 28.6582 5.94557 28.4235 6.17866C28.1887 6.41175 27.8897 6.57048 27.5641 6.63479C27.2385 6.6991 26.9011 6.6661 26.5944 6.53995C26.2877 6.4138 26.0256 6.20018 25.8412 5.9261C25.6567 5.65202 25.5583 5.32979 25.5583 5.00015C25.5583 4.55812 25.7351 4.1342 26.0499 3.82164C26.3646 3.50908 26.7915 3.33348 27.2367 3.33348ZM5.41791 16.6668C5.08596 16.6668 4.76147 16.5691 4.48546 16.3859C4.20946 16.2028 3.99434 15.9425 3.8673 15.638C3.74027 15.3334 3.70704 14.9983 3.7718 14.675C3.83656 14.3517 3.99641 14.0547 4.23113 13.8216C4.46585 13.5886 4.76491 13.4298 5.09048 13.3655C5.41605 13.3012 5.75351 13.3342 6.0602 13.4604C6.36688 13.5865 6.629 13.8001 6.81342 14.0742C6.99784 14.3483 7.09628 14.6705 7.09628 15.0002C7.09628 15.4422 6.91945 15.8661 6.6047 16.1787C6.28994 16.4912 5.86304 16.6668 5.41791 16.6668ZM27.2367 26.6668C26.9047 26.6668 26.5802 26.5691 26.3042 26.3859C26.0282 26.2028 25.8131 25.9425 25.6861 25.638C25.559 25.3334 25.5258 24.9983 25.5906 24.675C25.6553 24.3517 25.8152 24.0547 26.0499 23.8216C26.2846 23.5886 26.5837 23.4298 26.9092 23.3655C27.2348 23.3012 27.5723 23.3342 27.879 23.4604C28.1856 23.5865 28.4478 23.8001 28.6322 24.0742C28.8166 24.3483 28.915 24.6705 28.915 25.0002C28.915 25.4422 28.7382 25.8661 28.4235 26.1787C28.1087 26.4912 27.6818 26.6668 27.2367 26.6668Z" fill="#E6E7E8"/>
</svg>
