<svg width="41" height="40" viewBox="0 0 41 40" fill="none" xmlns="http://www.w3.org/2000/svg">
<path d="M31.8898 30H8.39272C7.46579 30 6.71436 30.7462 6.71436 31.6667C6.71436 32.5871 7.46579 33.3333 8.39272 33.3333H31.8898C32.8168 33.3333 33.5682 32.5871 33.5682 31.6667C33.5682 30.7462 32.8168 30 31.8898 30Z" fill="#E6E7E8"/>
<path d="M6.71436 28.3335V31.6668C6.71436 32.5873 7.46579 33.3335 8.39272 33.3335C9.31966 33.3335 10.0711 32.5873 10.0711 31.6668V28.3335C10.0711 27.413 9.31966 26.6668 8.39272 26.6668C7.46579 26.6668 6.71436 27.413 6.71436 28.3335Z" fill="#E6E7E8"/>
<path d="M30.2102 28.3335V31.6668C30.2102 32.5873 30.9616 33.3335 31.8886 33.3335C32.8155 33.3335 33.5669 32.5873 33.5669 31.6668V28.3335C33.5669 27.413 32.8155 26.6668 31.8886 26.6668C30.9616 26.6668 30.2102 27.413 30.2102 28.3335Z" fill="#E6E7E8"/>
<path d="M20.1418 24.9998C19.7938 25.0025 19.4536 24.8976 19.1683 24.6998L12.4548 19.9998C12.093 19.745 11.8475 19.3582 11.772 18.9241C11.6966 18.4899 11.7972 18.0438 12.052 17.6832C12.1792 17.5029 12.3411 17.3495 12.5284 17.2317C12.7156 17.1139 12.9245 17.0341 13.143 16.9969C13.3614 16.9597 13.5851 16.9659 13.8012 17.015C14.0172 17.0641 14.2214 17.1553 14.4018 17.2832L20.1418 21.2665L25.8482 16.9998C26.2043 16.7346 26.6519 16.6207 27.0926 16.6833C27.5332 16.7458 27.9308 16.9796 28.1979 17.3332C28.465 17.6868 28.5797 18.1313 28.5167 18.5689C28.4538 19.0065 28.2184 19.4013 27.8622 19.6665L21.1488 24.6665C20.8583 24.8829 20.5049 24.9998 20.1418 24.9998Z" fill="#E6E7E8"/>
<path d="M20.142 21.6667C19.6969 21.6667 19.27 21.4911 18.9552 21.1785C18.6405 20.8659 18.4636 20.442 18.4636 20V6.66667C18.4636 6.22464 18.6405 5.80072 18.9552 5.48816C19.27 5.17559 19.6969 5 20.142 5C20.5871 5 21.014 5.17559 21.3288 5.48816C21.6435 5.80072 21.8204 6.22464 21.8204 6.66667V20C21.8204 20.442 21.6435 20.8659 21.3288 21.1785C21.014 21.4911 20.5871 21.6667 20.142 21.6667Z" fill="#E6E7E8"/>
</svg>
