<svg width="34" height="34" viewBox="0 0 34 34" fill="none" xmlns="http://www.w3.org/2000/svg">
<path d="M2.05078 10.9731C2.05078 4.99103 5.07184 2 11.114 2H23.1982C29.2403 2 32.2614 4.99103 32.2614 10.9731V18.4506C32.2614 24.4327 29.2403 27.4237 23.1982 27.4237H22.4429C21.9747 27.4237 21.5215 27.6481 21.2345 28.0219L18.9687 31.013C17.9718 32.329 16.3404 32.329 15.3434 31.013L13.0776 28.0219C12.836 27.6929 12.2771 27.4237 11.8692 27.4237H11.114C5.07184 27.4237 2.05078 25.9282 2.05078 18.4506V16.9551" stroke="#E6E7E8" stroke-width="3" stroke-miterlimit="10" stroke-linecap="round" stroke-linejoin="round"/>
<path d="M23.1912 15.46H23.2053" stroke="#E6E7E8" stroke-width="3" stroke-linecap="round" stroke-linejoin="round"/>
<path d="M17.1484 15.46H17.1628" stroke="#E6E7E8" stroke-width="3" stroke-linecap="round" stroke-linejoin="round"/>
<path d="M11.1057 15.46H11.12" stroke="#E6E7E8" stroke-width="3" stroke-linecap="round" stroke-linejoin="round"/>
</svg>
